<svg width="20" height="20" viewBox="0 0 20 20" fill="none" xmlns="http://www.w3.org/2000/svg">
<path d="M10.1 0.706428L10.2004 0.700195C10.6082 0.700195 10.9448 1.00538 10.9942 1.39985L11.0004 1.5002V9.2002H18.7004C19.1082 9.2002 19.4448 9.50538 19.4942 9.89985L19.5004 10.0002C19.5004 10.408 19.1952 10.7446 18.8007 10.794L18.7004 10.8002H11.0004V18.5002C11.0004 18.908 10.6952 19.2446 10.3007 19.294L10.2004 19.3002C9.79255 19.3002 9.45599 18.995 9.40662 18.6005L9.40039 18.5002V10.8002H1.70039C1.29255 10.8002 0.955989 10.495 0.906624 10.1005L0.900391 10.0002C0.900391 9.59235 1.20558 9.25579 1.60004 9.20643L1.70039 9.2002H9.40039V1.5002C9.40039 1.09235 9.70558 0.755794 10.1 0.706428L10.2004 0.700195L10.1 0.706428Z" fill="#007AFF"/>
</svg>
