<svg width="15" height="16" viewBox="0 0 15 16" fill="none" xmlns="http://www.w3.org/2000/svg">
<path d="M7.64648 15.1943C8.62174 15.1943 9.54004 15.0075 10.4014 14.6338C11.2627 14.2646 12.0192 13.752 12.6709 13.0957C13.3271 12.4395 13.8421 11.6829 14.2158 10.8262C14.5895 9.96484 14.7764 9.04427 14.7764 8.06445C14.7764 7.08919 14.5895 6.17318 14.2158 5.31641C13.8421 4.45508 13.3271 3.69629 12.6709 3.04004C12.0192 2.38379 11.2604 1.87109 10.3945 1.50195C9.5332 1.12826 8.61491 0.941406 7.63965 0.941406C6.66439 0.941406 5.74609 1.12826 4.88477 1.50195C4.02344 1.87109 3.26465 2.38379 2.6084 3.04004C1.95671 3.69629 1.44401 4.45508 1.07031 5.31641C0.701172 6.17318 0.516602 7.08919 0.516602 8.06445C0.516602 9.04427 0.701172 9.96484 1.07031 10.8262C1.44401 11.6829 1.95898 12.4395 2.61523 13.0957C3.27148 13.752 4.03027 14.2646 4.8916 14.6338C5.75293 15.0075 6.67122 15.1943 7.64648 15.1943ZM7.64648 13.6289C6.8763 13.6289 6.15397 13.4854 5.47949 13.1982C4.80957 12.9111 4.2194 12.5146 3.70898 12.0088C3.19857 11.4984 2.7998 10.9082 2.5127 10.2383C2.23014 9.5638 2.08887 8.83919 2.08887 8.06445C2.08887 7.29427 2.23014 6.57422 2.5127 5.9043C2.7998 5.22982 3.19629 4.63737 3.70215 4.12695C4.21257 3.61654 4.80273 3.21777 5.47266 2.93066C6.14714 2.64355 6.86947 2.5 7.63965 2.5C8.41439 2.5 9.13672 2.64355 9.80664 2.93066C10.4811 3.21777 11.0713 3.61654 11.5771 4.12695C12.0876 4.63737 12.4863 5.22982 12.7734 5.9043C13.0651 6.57422 13.2109 7.29427 13.2109 8.06445C13.2109 8.83919 13.0674 9.5638 12.7803 10.2383C12.4932 10.9082 12.0944 11.4984 11.584 12.0088C11.0781 12.5146 10.488 12.9111 9.81348 13.1982C9.139 13.4854 8.41667 13.6289 7.64648 13.6289ZM4.67285 8.07129C4.67285 8.26725 4.73665 8.43132 4.86426 8.56348C4.99642 8.69108 5.16276 8.75488 5.36328 8.75488H6.94922V10.3477C6.94922 10.5436 7.01302 10.7054 7.14062 10.833C7.26823 10.9606 7.43001 11.0244 7.62598 11.0244C7.83105 11.0244 7.99967 10.9606 8.13184 10.833C8.264 10.7054 8.33008 10.5436 8.33008 10.3477V8.75488H9.92285C10.1188 8.75488 10.2806 8.69108 10.4082 8.56348C10.5404 8.43132 10.6064 8.26725 10.6064 8.07129C10.6064 7.86621 10.5404 7.69987 10.4082 7.57227C10.2806 7.4401 10.1188 7.37402 9.92285 7.37402H8.33008V5.78809C8.33008 5.58301 8.264 5.41667 8.13184 5.28906C7.99967 5.16146 7.83105 5.09766 7.62598 5.09766C7.43001 5.09766 7.26823 5.16146 7.14062 5.28906C7.01302 5.41667 6.94922 5.58301 6.94922 5.78809V7.37402H5.36328C5.1582 7.37402 4.99186 7.4401 4.86426 7.57227C4.73665 7.69987 4.67285 7.86621 4.67285 8.07129Z" fill="#23AFD7"/>
</svg>
