<svg width="11" height="17" viewBox="0 0 11 17" fill="none" xmlns="http://www.w3.org/2000/svg">
<path d="M0 8.79771C0 9.1089 0.14006 9.3757 0.441726 9.60691L8.82377 16.3829C9.06079 16.5785 9.36243 16.6852 9.71795 16.6852C10.4291 16.6852 11 16.2228 11 15.627C11 15.3335 10.8492 15.0757 10.6122 14.8712L3.05976 8.79771L10.6122 2.7242C10.8492 2.51967 11 2.2529 11 1.96835C11 1.37256 10.4291 0.910156 9.71795 0.910156C9.36243 0.910156 9.06079 1.01686 8.82377 1.2125L0.441726 7.97958C0.14006 8.21967 0 8.48644 0 8.79771Z" fill="#F07162"/>
</svg>
