<svg width="75" height="72" viewBox="0 0 75 72" fill="none" xmlns="http://www.w3.org/2000/svg">
<g clip-path="url(#clip0_659_10270)">
<path d="M39.5364 25.5406C38.5832 23.7209 37.5433 21.7928 36.4168 19.7781C31.0225 10.116 25.5849 1.8188 25.5849 1.75381C25.4511 1.54817 25.2681 1.37919 25.0525 1.26222C24.8369 1.14525 24.5954 1.08398 24.3501 1.08398C24.1048 1.08398 23.8633 1.14525 23.6477 1.26222C23.432 1.37919 23.249 1.54817 23.1153 1.75381C23.1153 1.75381 17.591 10.116 12.2834 19.7781C4.7877 32.9063 1.08319 42.2217 1.08319 47.4644C1.07395 51.6631 2.20533 55.7856 4.35651 59.3914C6.50769 62.9973 9.59788 65.9511 13.2971 67.9375C16.9963 69.9239 21.1655 70.8683 25.3596 70.6697C29.5537 70.4711 33.6151 69.1371 37.1101 66.8101" stroke="#F0647D" stroke-linecap="round" stroke-linejoin="round"/>
<path d="M64.2114 46.1638C64.3177 44.2489 64.0323 42.3324 63.3726 40.5316C62.713 38.7308 61.693 37.0834 60.3749 35.6902C59.0569 34.297 57.4686 33.1873 55.7071 32.4289C53.9455 31.6705 52.0478 31.2793 50.13 31.2793C48.2121 31.2793 46.3144 31.6705 44.5529 32.4289C42.7914 33.1873 41.2031 34.297 39.885 35.6902C38.567 37.0834 37.547 38.7308 36.8873 40.5316C36.2277 42.3324 35.9423 44.2489 36.0485 46.1638L50.13 52.403L64.2114 46.1638Z" fill="url(#paint0_linear_659_10270)" stroke="#262626" stroke-linecap="round" stroke-linejoin="round"/>
<path d="M50.1083 57.9722C52.1782 57.9722 53.8562 56.2943 53.8562 54.2244C53.8562 52.1545 52.1782 50.4766 50.1083 50.4766C48.0384 50.4766 46.3605 52.1545 46.3605 54.2244C46.3605 56.2943 48.0384 57.9722 50.1083 57.9722Z" fill="#262626"/>
<path d="M50.1083 39.4277V54.2241" stroke="#262626" stroke-linecap="round" stroke-linejoin="round"/>
<path d="M50.1083 70.6873C63.2574 70.6873 73.9168 60.0279 73.9168 46.8788C73.9168 33.7297 63.2574 23.0703 50.1083 23.0703C36.9593 23.0703 26.2998 33.7297 26.2998 46.8788C26.2998 60.0279 36.9593 70.6873 50.1083 70.6873Z" stroke="#262626" stroke-linecap="round" stroke-linejoin="round"/>
</g>
<defs>
<linearGradient id="paint0_linear_659_10270" x1="36.0269" y1="42.221" x2="64.2114" y2="42.221" gradientUnits="userSpaceOnUse">
<stop stop-color="#12AF7C"/>
<stop offset="0.27" stop-color="#14B078"/>
<stop offset="0.52" stop-color="#19B36D"/>
<stop offset="0.77" stop-color="#22B85A"/>
<stop offset="0.99" stop-color="#2DBE41"/>
</linearGradient>
<clipPath id="clip0_659_10270">
<rect width="75" height="71.7721" fill="white"/>
</clipPath>
</defs>
</svg>
