<svg width="26" height="26" viewBox="0 0 26 26" fill="none" xmlns="http://www.w3.org/2000/svg">
<path d="M7.41016 25.5938C8.06641 25.5938 8.55859 25.2773 9.35547 24.5742L13.375 21.0117H20.4648C23.9922 21.0117 25.9727 18.9961 25.9727 15.5156V6.42188C25.9727 2.94141 23.9922 0.925781 20.4648 0.925781H5.52344C1.99609 0.925781 0.015625 2.94141 0.015625 6.42188V15.5156C0.015625 18.9961 2.04297 21.0117 5.44141 21.0117H5.92188V23.9062C5.92188 24.9492 6.47266 25.5938 7.41016 25.5938ZM7.98438 23.0156V19.6758C7.98438 18.9844 7.69141 18.7148 7.02344 18.7148H5.58203C3.36719 18.7148 2.3125 17.6016 2.3125 15.4453V6.49219C2.3125 4.33594 3.36719 3.22266 5.58203 3.22266H20.3945C22.6094 3.22266 23.6758 4.33594 23.6758 6.49219V15.4453C23.6758 17.6016 22.6094 18.7148 20.3945 18.7148H13.2461C12.543 18.7148 12.1914 18.832 11.6992 19.3477L7.98438 23.0156Z" fill="#8C8C8C"/>
</svg>
