<svg width="65" height="75" viewBox="0 0 65 75" fill="none" xmlns="http://www.w3.org/2000/svg">
<g clip-path="url(#clip0_659_11142)">
<path d="M60.4391 0.914062H4.37199C2.46257 0.914062 0.914673 2.46196 0.914673 4.37138V58.3714C0.914673 60.2808 2.46257 61.8287 4.37199 61.8287H60.4391C62.3485 61.8287 63.8964 60.2808 63.8964 58.3714V4.37138C63.8964 2.46196 62.3485 0.914062 60.4391 0.914062Z" stroke="#262626" stroke-linecap="round" stroke-linejoin="round"/>
<path d="M50.4329 39.4019H13.9024L11.4146 17.4506C11.2779 15.7893 11.806 14.1417 12.8829 12.8693C13.9598 11.5969 15.4975 10.8038 17.1585 10.6641H47.6524C49.3066 10.804 50.8385 11.592 51.9144 12.8563C52.9902 14.1206 53.5229 15.7588 53.3964 17.4141L50.4329 39.4019Z" stroke="#262626" stroke-linecap="round" stroke-linejoin="round"/>
<path d="M28.2256 45.7305H11.8353C11.502 45.7305 11.2317 46.0007 11.2317 46.3341V51.5475C11.2317 51.8809 11.502 52.1512 11.8353 52.1512H28.2256C28.559 52.1512 28.8293 51.8809 28.8293 51.5475V46.3341C28.8293 46.0007 28.559 45.7305 28.2256 45.7305Z" fill="#21AFD7" stroke="#262626" stroke-linecap="round" stroke-linejoin="round"/>
<path d="M52.811 45.7305H36.4208C36.0874 45.7305 35.8171 46.0007 35.8171 46.3341V51.5475C35.8171 51.8809 36.0874 52.1512 36.4208 52.1512H52.811C53.1444 52.1512 53.4147 51.8809 53.4147 51.5475V46.3341C53.4147 46.0007 53.1444 45.7305 52.811 45.7305Z" fill="#21AFD7" stroke="#262626" stroke-linecap="round" stroke-linejoin="round"/>
<path d="M26.2683 61.8284C26.8066 60.653 27.6711 59.6568 28.759 58.9584C29.847 58.26 31.1127 57.8887 32.4055 57.8887C33.6984 57.8887 34.964 58.26 36.052 58.9584C37.1399 59.6568 38.0044 60.653 38.5427 61.8284H26.2683Z" stroke="#262626" stroke-linecap="round" stroke-linejoin="round"/>
<path d="M34.6463 61.8828H30.1646V74.084H34.6463V61.8828Z" stroke="#262626" stroke-linecap="round" stroke-linejoin="round"/>
<path d="M32.4878 35.3588C30.6651 35.354 28.9184 34.6278 27.6296 33.3389C26.3408 32.0501 25.6146 30.3034 25.6097 28.4808C25.6097 26.9259 26.7073 24.1637 28.8841 20.2673C30.4756 17.3954 32.1036 14.9442 32.1219 14.9259C32.1601 14.8634 32.214 14.812 32.2781 14.7767C32.3423 14.7414 32.4146 14.7235 32.4878 14.7247C32.5607 14.7252 32.6323 14.7439 32.6962 14.779C32.76 14.8141 32.8142 14.8646 32.8536 14.9259C32.8536 14.9259 34.4817 17.3954 36.0914 20.2673C38.2683 24.1637 39.3658 26.9259 39.3658 28.4808C39.361 30.3034 38.6348 32.0501 37.346 33.3389C36.0571 34.6278 34.3105 35.354 32.4878 35.3588Z" fill="#F1647D" stroke="#262626" stroke-linecap="round" stroke-linejoin="round"/>
</g>
<defs>
<clipPath id="clip0_659_11142">
<rect width="64.811" height="75" fill="white"/>
</clipPath>
</defs>
</svg>
