<svg width="29" height="27" viewBox="0 0 29 27" fill="none" xmlns="http://www.w3.org/2000/svg">
<path d="M0.191406 12.9414C0.191406 13.5508 0.648438 14.0664 1.39844 14.0664C1.76172 14.0664 2.07812 13.8789 2.35938 13.6328L3.70703 12.5078V23.418C3.70703 25.1523 4.75 26.1719 6.53125 26.1719H22.3867C24.168 26.1719 25.2109 25.1523 25.2109 23.418V12.4375L26.6406 13.6328C26.9219 13.8789 27.2383 14.0664 27.6016 14.0664C28.2812 14.0664 28.7969 13.6445 28.7969 12.9766C28.7969 12.5781 28.6445 12.2617 28.3398 12.0156L25.2109 9.37891V4.39844C25.2109 3.87109 24.8711 3.53125 24.3438 3.53125H22.7617C22.2461 3.53125 21.8945 3.87109 21.8945 4.39844V6.58984L16.1523 1.76172C15.1445 0.917969 13.8789 0.917969 12.8594 1.76172L0.648438 12.0156C0.34375 12.2734 0.191406 12.6133 0.191406 12.9414ZM17.8633 16.1875C17.8633 15.6367 17.5117 15.2852 16.9609 15.2852H12.0273C11.4883 15.2852 11.1133 15.6367 11.1133 16.1875V23.875H7.14062C6.40234 23.875 6.00391 23.4648 6.00391 22.7266V10.5742L14.0078 3.87109C14.3242 3.58984 14.6875 3.58984 15.0039 3.87109L22.9141 10.5039V22.7266C22.9141 23.4648 22.5156 23.875 21.7773 23.875H17.8633V16.1875Z" fill="#8C8C8C"/>
</svg>
