<svg width="15" height="15" viewBox="0 0 15 15" fill="none" xmlns="http://www.w3.org/2000/svg">
<path d="M7.19629 14.0371C8.14876 14.0371 9.04427 13.8548 9.88281 13.4902C10.7259 13.1257 11.4688 12.6221 12.1113 11.9795C12.7539 11.3369 13.2575 10.5964 13.6221 9.75781C13.9867 8.91471 14.1689 8.01693 14.1689 7.06445C14.1689 6.11198 13.9867 5.21647 13.6221 4.37793C13.2575 3.53483 12.7539 2.79199 12.1113 2.14941C11.4688 1.50684 10.7259 1.00326 9.88281 0.638672C9.03971 0.274089 8.14193 0.0917969 7.18945 0.0917969C6.23698 0.0917969 5.33919 0.274089 4.49609 0.638672C3.65755 1.00326 2.91699 1.50684 2.27441 2.14941C1.63639 2.79199 1.13509 3.53483 0.770508 4.37793C0.405924 5.21647 0.223633 6.11198 0.223633 7.06445C0.223633 8.01693 0.405924 8.91471 0.770508 9.75781C1.13509 10.5964 1.63867 11.3369 2.28125 11.9795C2.92383 12.6221 3.66439 13.1257 4.50293 13.4902C5.34603 13.8548 6.24382 14.0371 7.19629 14.0371ZM7.19629 12.875C6.38965 12.875 5.63542 12.7246 4.93359 12.4238C4.23177 12.123 3.61426 11.7083 3.08105 11.1797C2.55241 10.6465 2.1377 10.029 1.83691 9.32715C1.54069 8.62533 1.39258 7.87109 1.39258 7.06445C1.39258 6.25781 1.54069 5.50358 1.83691 4.80176C2.1377 4.09993 2.55241 3.48242 3.08105 2.94922C3.6097 2.41602 4.22493 2.0013 4.92676 1.70508C5.62858 1.4043 6.38281 1.25391 7.18945 1.25391C7.99609 1.25391 8.75033 1.4043 9.45215 1.70508C10.154 2.0013 10.7715 2.41602 11.3047 2.94922C11.8379 3.48242 12.2549 4.09993 12.5557 4.80176C12.8564 5.50358 13.0068 6.25781 13.0068 7.06445C13.0068 7.87109 12.8564 8.62533 12.5557 9.32715C12.2594 10.029 11.8447 10.6465 11.3115 11.1797C10.7829 11.7083 10.1654 12.123 9.45898 12.4238C8.75716 12.7246 8.00293 12.875 7.19629 12.875ZM6 10.8174H8.78223C8.9235 10.8174 9.04199 10.7718 9.1377 10.6807C9.2334 10.5895 9.28125 10.4756 9.28125 10.3389C9.28125 10.2021 9.2334 10.0882 9.1377 9.99707C9.04199 9.90592 8.9235 9.86035 8.78223 9.86035H7.93457V6.38086C7.93457 6.19401 7.889 6.0459 7.79785 5.93652C7.70671 5.82259 7.57454 5.76562 7.40137 5.76562H6.11621C5.97493 5.76562 5.85645 5.8112 5.76074 5.90234C5.66504 5.99349 5.61719 6.10742 5.61719 6.24414C5.61719 6.38086 5.66504 6.49479 5.76074 6.58594C5.85645 6.67708 5.97493 6.72266 6.11621 6.72266H6.84766V9.86035H6C5.85872 9.86035 5.74023 9.90592 5.64453 9.99707C5.54883 10.0882 5.50098 10.2021 5.50098 10.3389C5.50098 10.4756 5.54883 10.5895 5.64453 10.6807C5.74023 10.7718 5.85872 10.8174 6 10.8174ZM7.13477 4.62402C7.38542 4.62402 7.59505 4.53743 7.76367 4.36426C7.93685 4.19108 8.02344 3.98145 8.02344 3.73535C8.02344 3.4847 7.93685 3.27279 7.76367 3.09961C7.59505 2.92643 7.38542 2.83984 7.13477 2.83984C6.88867 2.83984 6.67904 2.92643 6.50586 3.09961C6.33268 3.27279 6.24609 3.4847 6.24609 3.73535C6.24609 3.98145 6.33268 4.19108 6.50586 4.36426C6.67904 4.53743 6.88867 4.62402 7.13477 4.62402Z" fill="#8C8C8C"/>
</svg>
