<svg width="21" height="27" viewBox="0 0 21 27" fill="none" xmlns="http://www.w3.org/2000/svg">
<path d="M4.21875 26.2305H19.4648C20.0742 26.2305 20.543 25.7617 20.543 25.1406C20.543 24.625 20.1914 24.2383 19.7578 24.0391C18.3164 23.4062 18.0234 21.4141 19.5 20.0195C20.0742 19.4922 20.543 18.918 20.543 17.7344V4.71484C20.543 2.19531 19.2422 0.871094 16.7344 0.871094H4.25391C1.74609 0.871094 0.445312 2.18359 0.445312 4.71484V22.4336C0.445312 24.9297 1.74609 26.2305 4.21875 26.2305ZM16.5352 3.16797C17.6719 3.16797 18.2461 3.76562 18.2461 4.85547V17.3828C18.2461 17.957 17.918 18.2734 17.332 18.2734H5.76562V3.16797H16.5352ZM2.74219 18.6836V4.85547C2.74219 3.87109 3.19922 3.29688 4.11328 3.19141V18.2852C3.58594 18.332 3.14062 18.4727 2.74219 18.6836ZM4.51172 24.0508C3.26953 24.0508 2.625 23.3477 2.625 22.2344C2.625 21.1914 3.375 20.4414 4.60547 20.4414H16.3359C16.4648 20.4414 16.582 20.4297 16.6992 20.418C16.125 21.6484 16.1953 22.9844 16.8164 24.0508H4.51172Z" fill="#8C8C8C"/>
</svg>
