<svg width="375" height="215" viewBox="0 0 375 215" fill="none" xmlns="http://www.w3.org/2000/svg">
<path d="M375 0H0V214.096H375V0Z" fill="#F4FBFD"/>
<path d="M230.081 130.754H185.479V185.689H230.081V130.754Z" fill="#777777"/>
<path d="M230.081 133.439H189.928V139.424H230.081V133.439Z" fill="#C1C1C1"/>
<path d="M207.238 143.294H156.864V185.879H207.238V143.294Z" fill="white"/>
<path d="M208.023 141.747H155.619V143.295H208.023V141.747Z" fill="#C1C1C1"/>
<path d="M230.908 129.979H184.579V131.527H230.908V129.979Z" fill="#C1C1C1"/>
<path d="M156.864 148.338H126.461V165.2H156.864V148.338Z" fill="#777777"/>
<path d="M128.863 185.215C128.864 184.99 128.802 184.77 128.685 184.578C128.568 184.387 128.4 184.231 128.199 184.13C127.999 184.028 127.775 183.984 127.551 184.002C127.327 184.02 127.112 184.1 126.931 184.233C126.795 183.948 126.601 183.695 126.361 183.49C126.12 183.284 125.84 183.132 125.537 183.042C125.234 182.952 124.916 182.927 124.602 182.968C124.289 183.009 123.988 183.115 123.718 183.28C123.357 182.546 122.798 181.928 122.103 181.495C121.409 181.063 120.607 180.833 119.789 180.833C118.971 180.833 118.169 181.063 117.474 181.495C116.78 181.928 116.22 182.546 115.859 183.28C115.585 183.112 115.279 183.004 114.96 182.963C114.641 182.923 114.317 182.951 114.01 183.046C113.703 183.141 113.42 183.3 113.179 183.513C112.938 183.726 112.746 183.988 112.614 184.281C112.437 184.132 112.221 184.037 111.991 184.007C111.762 183.977 111.529 184.013 111.319 184.11C111.109 184.208 110.931 184.364 110.807 184.559C110.682 184.754 110.616 184.981 110.616 185.212H128.863V185.215Z" fill="#AAD098"/>
<path d="M156.864 168.708H126.461V185.571H156.864V168.708Z" fill="#777777"/>
<path d="M151.548 177.934C150.098 177.933 148.678 178.339 147.447 179.105C146.217 179.872 145.226 180.968 144.588 182.269C144.103 181.971 143.56 181.781 142.995 181.71C142.431 181.639 141.858 181.688 141.314 181.856C140.77 182.024 140.269 182.306 139.842 182.683C139.416 183.06 139.075 183.523 138.842 184.042C138.529 183.778 138.146 183.609 137.74 183.555C137.334 183.501 136.92 183.564 136.549 183.737C136.177 183.91 135.863 184.186 135.642 184.531C135.422 184.877 135.305 185.278 135.305 185.688V185.704H156.864V180.051C155.428 178.69 153.525 177.933 151.548 177.934Z" fill="#AAD098"/>
<path d="M156.865 165.2H130.675V168.709H156.865V165.2Z" fill="#444444"/>
<path d="M230.082 165.512H209.768V178.916H230.082V165.512Z" fill="#6D6D6D"/>
<path d="M230.082 145.773H209.768V159.178H230.082V145.773Z" fill="#6D6D6D"/>
<path d="M230.081 133.757H190.351V139.039H230.081V133.757Z" fill="#6D6D6D"/>
<path opacity="0.34" d="M156.864 143.825L207.235 145.344V143.294H156.864V143.825Z" fill="#C1C1C1"/>
<path d="M156.861 148.239H124.557V149.908H156.861V148.239Z" fill="#C1C1C1"/>
<path d="M200.097 166.948H164.701V185.438H200.097V166.948Z" fill="#6D6D6D"/>
<path d="M199.074 168.241H165.893V185.501H199.074V168.241Z" fill="#C1C1C1"/>
<path d="M197.882 169.332H167.148V173.298H197.882V169.332Z" fill="#6D6D6D"/>
<path d="M176.136 174.375H167.148V185.425H176.136V174.375Z" fill="#6D6D6D"/>
<path opacity="0.43" d="M188.04 174.375H176.99V185.425H188.04V174.375Z" fill="#6D6D6D"/>
<path d="M197.882 174.375H188.8V185.425H197.882V174.375Z" fill="#6D6D6D"/>
<path d="M186.706 176.479H178.44V185.437H186.706V176.479Z" fill="white"/>
<path d="M186.312 176.882H178.834V185.437H186.312V176.882Z" fill="#6D6D6D"/>
<path d="M182.714 176.882H182.434V185.437H182.714V176.882Z" fill="white"/>
<path d="M181.78 181.147C181.78 181.112 181.79 181.078 181.81 181.048C181.829 181.019 181.857 180.996 181.89 180.983C181.922 180.969 181.958 180.966 181.992 180.973C182.027 180.98 182.059 180.997 182.083 181.021C182.108 181.046 182.125 181.078 182.132 181.112C182.139 181.147 182.136 181.183 182.122 181.215C182.109 181.248 182.086 181.276 182.056 181.295C182.027 181.315 181.993 181.325 181.958 181.325C181.934 181.325 181.911 181.321 181.89 181.312C181.868 181.303 181.848 181.29 181.832 181.273C181.815 181.257 181.802 181.237 181.793 181.215C181.784 181.194 181.78 181.171 181.78 181.147Z" fill="white"/>
<path d="M183.025 181.147C183.025 181.112 183.036 181.077 183.056 181.048C183.075 181.019 183.103 180.996 183.136 180.983C183.169 180.969 183.205 180.966 183.239 180.973C183.274 180.98 183.306 180.997 183.33 181.023C183.355 181.048 183.372 181.08 183.378 181.114C183.385 181.149 183.381 181.185 183.367 181.217C183.353 181.25 183.33 181.278 183.3 181.297C183.27 181.316 183.236 181.326 183.2 181.325C183.154 181.324 183.109 181.305 183.076 181.272C183.044 181.239 183.025 181.194 183.025 181.147Z" fill="white"/>
<path opacity="0.34" d="M170.008 174.375H174.556L173.104 185.425H168.553L170.008 174.375Z" fill="#C1C1C1"/>
<path opacity="0.34" d="M175.22 169.332L174.699 173.298H170.148L170.67 169.332H175.22Z" fill="#C1C1C1"/>
<path opacity="0.34" d="M190.951 174.375H195.502L194.05 185.425H189.499L190.951 174.375Z" fill="#C1C1C1"/>
<path opacity="0.34" d="M196.163 169.332L195.642 173.298H191.091L191.612 169.332H196.163Z" fill="#C1C1C1"/>
<path opacity="0.34" d="M189.779 169.332L189.022 173.298H180.817L181.57 169.332H189.779Z" fill="#C1C1C1"/>
<path d="M188.809 175.188H188.825L188.809 175.278V175.188Z" fill="#E9E9E9"/>
<path opacity="0.42" d="M219.261 159.181H212.539L215.479 145.773H222.2L219.261 159.181Z" fill="#C1C1C1"/>
<path opacity="0.42" d="M225.216 178.92H218.495L221.434 165.512H228.156L225.216 178.92Z" fill="#C1C1C1"/>
<path opacity="0.42" d="M215.657 165.512L212.717 178.92H209.768V165.512H215.657Z" fill="#C1C1C1"/>
<path opacity="0.42" d="M230.078 145.773V159.181H222.693L225.973 145.773H230.078Z" fill="#C1C1C1"/>
<path d="M200.638 133.757H200.078V139.039H200.638V133.757Z" fill="#C1C1C1"/>
<path d="M211.945 133.757H211.386V139.039H211.945V133.757Z" fill="#C1C1C1"/>
<path d="M222.969 133.757H222.41V139.039H222.969V133.757Z" fill="#C1C1C1"/>
<g opacity="0.5">
<path opacity="0.5" d="M133.389 154.392H130.02V159.709H133.389V154.392Z" fill="#6D6D6D"/>
<path opacity="0.5" d="M133.529 159.877H129.817V154.221H133.529V159.877ZM130.16 159.534H133.185V154.561H130.16V159.534Z" fill="#C1C1C1"/>
<path opacity="0.5" d="M133.23 156.169H130.119V156.426H133.23V156.169Z" fill="#C1C1C1"/>
<path opacity="0.5" d="M133.23 157.939H130.119V158.196H133.23V157.939Z" fill="#C1C1C1"/>
<path opacity="0.5" d="M131.8 159.709V154.367H131.542V159.709H131.8Z" fill="white"/>
<path opacity="0.5" d="M143.117 154.392H139.748V159.709H143.117V154.392Z" fill="#6D6D6D"/>
<path opacity="0.5" d="M143.253 159.877H139.544V154.221H143.253V159.877ZM139.884 159.534H142.91V154.561H139.884V159.534Z" fill="#C1C1C1"/>
<path opacity="0.5" d="M142.954 156.169H139.843V156.426H142.954V156.169Z" fill="#C1C1C1"/>
<path opacity="0.5" d="M142.954 157.939H139.843V158.196H142.954V157.939Z" fill="#C1C1C1"/>
<path opacity="0.5" d="M141.524 159.709V154.367H141.267V159.709H141.524Z" fill="#C1C1C1"/>
<path opacity="0.5" d="M152.841 154.392H149.472V159.709H152.841V154.392Z" fill="#6D6D6D"/>
<path opacity="0.5" d="M152.978 159.877H149.269V154.221H152.978V159.877ZM149.612 159.537H152.638V154.564H149.612V159.537Z" fill="#C1C1C1"/>
<path opacity="0.5" d="M152.679 156.169H149.568V156.426H152.679V156.169Z" fill="#C1C1C1"/>
<path opacity="0.5" d="M152.679 157.939H149.568V158.196H152.679V157.939Z" fill="#C1C1C1"/>
<path opacity="0.5" d="M151.252 159.709V154.367H150.995V159.709H151.252Z" fill="#C1C1C1"/>
</g>
<g opacity="0.5">
<path opacity="0.5" d="M133.389 172.62H130.02V177.937H133.389V172.62Z" fill="#6D6D6D"/>
<path opacity="0.5" d="M133.529 178.106H129.817V172.449H133.529V178.106ZM130.16 177.762H133.185V172.789H130.16V177.762Z" fill="#C1C1C1"/>
<path opacity="0.5" d="M133.23 174.397H130.119V174.654H133.23V174.397Z" fill="#C1C1C1"/>
<path opacity="0.5" d="M133.23 176.167H130.119V176.424H133.23V176.167Z" fill="#C1C1C1"/>
<path opacity="0.5" d="M131.803 177.937V172.595H131.546V177.937H131.803Z" fill="#C1C1C1"/>
<path opacity="0.5" d="M143.117 172.62H139.748V177.937H143.117V172.62Z" fill="#6D6D6D"/>
<path opacity="0.5" d="M143.253 178.106H139.544V172.449H143.253V178.106ZM139.884 177.762H142.91V172.789H139.884V177.762Z" fill="#C1C1C1"/>
<path opacity="0.5" d="M142.954 174.397H139.843V174.654H142.954V174.397Z" fill="#C1C1C1"/>
<path opacity="0.5" d="M142.954 176.167H139.843V176.424H142.954V176.167Z" fill="#C1C1C1"/>
<path opacity="0.5" d="M141.528 177.937V172.595H141.27V177.937H141.528Z" fill="#C1C1C1"/>
<path opacity="0.5" d="M152.841 172.62H149.472V177.937H152.841V172.62Z" fill="#6D6D6D"/>
<path opacity="0.5" d="M152.978 178.106H149.269V172.449H152.978V178.106ZM149.612 177.762H152.638V172.789H149.612V177.762Z" fill="#C1C1C1"/>
<path opacity="0.5" d="M152.679 174.397H149.568V174.654H152.679V174.397Z" fill="#C1C1C1"/>
<path opacity="0.5" d="M152.679 176.167H149.568V176.424H152.679V176.167Z" fill="#C1C1C1"/>
<path opacity="0.5" d="M151.252 177.934V172.592H150.995V177.934H151.252Z" fill="white"/>
</g>
<path d="M208.719 161.354H156.079V163.207H208.719V161.354Z" fill="#C1C1C1"/>
<path d="M138.763 148.236C138.763 148.236 139.671 145.274 141.912 145.344C144.152 145.414 144.855 147.473 145.624 147.143C146.393 146.812 148.633 147.003 148.773 148.236H138.763Z" fill="#D3D3D3"/>
<path d="M167.167 154.37C168.201 154.37 169.039 153.532 169.039 152.498C169.039 151.464 168.201 150.626 167.167 150.626C166.134 150.626 165.296 151.464 165.296 152.498C165.296 153.532 166.134 154.37 167.167 154.37Z" fill="url(#paint0_radial_453_11522)"/>
<path d="M171.054 152.787C170.977 152.787 170.904 152.757 170.85 152.702C170.795 152.648 170.765 152.575 170.765 152.498C170.766 151.656 170.471 150.84 169.932 150.193C169.393 149.546 168.644 149.109 167.816 148.958C167.772 148.95 167.726 148.953 167.683 148.964C167.64 148.976 167.6 148.996 167.565 149.024C167.532 149.053 167.505 149.088 167.487 149.127C167.469 149.167 167.46 149.21 167.46 149.253C167.459 149.323 167.483 149.39 167.528 149.443C167.572 149.497 167.633 149.533 167.701 149.546C168.259 149.648 168.775 149.905 169.193 150.288C169.611 150.671 169.912 151.164 170.063 151.71C170.097 151.837 170.101 151.97 170.076 152.098C170.05 152.227 169.995 152.348 169.916 152.452C169.836 152.557 169.733 152.641 169.615 152.699C169.497 152.757 169.368 152.787 169.236 152.787C169.048 152.787 168.865 152.725 168.716 152.61C168.567 152.495 168.46 152.334 168.413 152.151C168.344 151.837 168.158 151.56 167.895 151.375C167.631 151.191 167.307 151.111 166.988 151.154C166.668 151.196 166.376 151.357 166.17 151.604C165.963 151.851 165.856 152.166 165.871 152.488C165.863 152.56 165.829 152.627 165.776 152.675C165.722 152.723 165.652 152.75 165.58 152.75C165.508 152.75 165.438 152.723 165.384 152.675C165.331 152.627 165.297 152.56 165.289 152.488C165.289 152.035 165.453 151.596 165.752 151.255C166.05 150.913 166.463 150.692 166.913 150.633C167.362 150.573 167.819 150.679 168.196 150.931C168.573 151.183 168.846 151.564 168.963 152.002C168.98 152.059 169.015 152.108 169.062 152.143C169.11 152.179 169.168 152.197 169.227 152.196C169.269 152.196 169.31 152.187 169.348 152.168C169.386 152.149 169.418 152.122 169.443 152.088C169.469 152.055 169.487 152.017 169.495 151.976C169.504 151.935 169.502 151.893 169.491 151.853C169.37 151.411 169.127 151.013 168.789 150.705C168.452 150.396 168.034 150.189 167.584 150.108C167.419 150.079 167.266 150.003 167.143 149.89C167.02 149.776 166.932 149.63 166.89 149.469C166.847 149.307 166.851 149.137 166.902 148.977C166.953 148.818 167.048 148.677 167.177 148.57C167.277 148.487 167.394 148.427 167.52 148.393C167.645 148.36 167.777 148.354 167.905 148.376C168.867 148.552 169.737 149.06 170.363 149.811C170.989 150.563 171.332 151.51 171.331 152.488C171.332 152.564 171.305 152.638 171.253 152.694C171.201 152.75 171.13 152.783 171.054 152.787Z" fill="url(#paint1_radial_453_11522)"/>
<path d="M167.161 156.677C166.054 156.675 164.993 156.235 164.21 155.452C163.427 154.669 162.987 153.608 162.985 152.501C162.984 152.257 163.005 152.014 163.049 151.774C163.164 151.118 163.435 150.5 163.838 149.97C164.241 149.441 164.765 149.015 165.365 148.729C165.483 148.674 165.611 148.646 165.74 148.646C165.87 148.646 165.998 148.674 166.115 148.729C166.235 148.784 166.341 148.865 166.426 148.965C166.511 149.066 166.573 149.183 166.608 149.311C166.66 149.508 166.64 149.718 166.553 149.902C166.466 150.087 166.317 150.235 166.131 150.321C165.781 150.486 165.476 150.733 165.242 151.04C165.007 151.348 164.85 151.707 164.784 152.088C164.753 152.255 164.741 152.424 164.749 152.593C164.771 153.203 165.023 153.782 165.455 154.214C165.886 154.645 166.465 154.898 167.075 154.92C167.245 154.927 167.416 154.915 167.584 154.885C167.652 154.874 167.72 154.859 167.787 154.84C168.16 154.741 168.503 154.553 168.789 154.293C169.074 154.033 169.293 153.709 169.427 153.347C169.499 153.153 169.637 152.991 169.816 152.888C169.996 152.786 170.205 152.749 170.409 152.784C170.535 152.807 170.655 152.856 170.76 152.93C170.865 153.004 170.953 153.099 171.017 153.211C171.081 153.322 171.12 153.445 171.132 153.573C171.143 153.701 171.126 153.83 171.082 153.95C170.851 154.578 170.473 155.141 169.979 155.592C169.485 156.043 168.89 156.37 168.245 156.544C168.13 156.572 168.009 156.601 167.889 156.62C167.648 156.661 167.405 156.68 167.161 156.677ZM165.744 149.225C165.699 149.224 165.656 149.234 165.616 149.253C165.099 149.5 164.648 149.866 164.301 150.322C163.954 150.779 163.72 151.311 163.621 151.875C163.584 152.085 163.566 152.298 163.567 152.511C163.571 153.462 163.951 154.372 164.625 155.043C165.298 155.714 166.21 156.092 167.161 156.092C167.374 156.093 167.587 156.075 167.796 156.038C167.902 156.019 168.008 155.997 168.114 155.972C168.67 155.823 169.182 155.544 169.607 155.157C170.032 154.77 170.358 154.286 170.558 153.747C170.573 153.707 170.58 153.664 170.576 153.621C170.573 153.578 170.56 153.537 170.539 153.499C170.516 153.462 170.486 153.429 170.45 153.404C170.413 153.379 170.372 153.362 170.329 153.353C170.26 153.344 170.19 153.358 170.13 153.394C170.069 153.429 170.022 153.482 169.996 153.547C169.828 153.995 169.556 154.398 169.201 154.72C168.847 155.042 168.421 155.275 167.959 155.4L167.704 155.457C167.495 155.493 167.281 155.507 167.069 155.498C166.312 155.47 165.593 155.156 165.057 154.621C164.522 154.085 164.208 153.367 164.18 152.609C164.171 152.397 164.185 152.184 164.221 151.974C164.305 151.501 164.501 151.055 164.792 150.674C165.084 150.292 165.462 149.986 165.896 149.781C165.955 149.754 166.003 149.708 166.033 149.65C166.062 149.593 166.071 149.527 166.058 149.463C166.046 149.419 166.024 149.378 165.995 149.343C165.965 149.308 165.928 149.279 165.887 149.26C165.845 149.235 165.798 149.222 165.75 149.222L165.744 149.225Z" fill="#25AFD8"/>
<path d="M181.068 154.494V152.905C181.068 152.523 180.88 152.269 180.521 152.269C180.162 152.269 179.981 152.52 179.981 152.905V154.494C179.987 154.563 179.978 154.632 179.955 154.698C179.932 154.763 179.895 154.823 179.848 154.874C179.8 154.924 179.742 154.964 179.678 154.99C179.614 155.017 179.545 155.03 179.476 155.027C179.406 155.03 179.337 155.018 179.273 154.991C179.208 154.965 179.151 154.925 179.103 154.875C179.055 154.824 179.019 154.764 178.997 154.698C178.975 154.632 178.967 154.563 178.973 154.494V151.989C178.967 151.92 178.975 151.85 178.997 151.785C179.019 151.719 179.055 151.659 179.103 151.608C179.151 151.558 179.208 151.518 179.273 151.492C179.337 151.465 179.406 151.453 179.476 151.455C179.586 151.451 179.695 151.486 179.783 151.553C179.872 151.62 179.934 151.716 179.959 151.824C180.07 151.69 180.212 151.583 180.372 151.513C180.532 151.443 180.706 151.411 180.88 151.42C181.649 151.42 182.069 151.961 182.069 152.717V154.494C182.074 154.563 182.065 154.633 182.043 154.699C182.02 154.765 181.984 154.825 181.936 154.877C181.889 154.928 181.831 154.969 181.768 154.996C181.704 155.024 181.635 155.039 181.565 155.039C181.495 155.039 181.426 155.024 181.362 154.996C181.299 154.969 181.241 154.928 181.194 154.877C181.147 154.825 181.11 154.765 181.088 154.699C181.065 154.633 181.056 154.563 181.061 154.494H181.068Z" fill="url(#paint2_radial_453_11522)"/>
<path d="M182.895 154.071C182.811 153.803 182.772 153.522 182.781 153.241C182.77 152.959 182.807 152.676 182.889 152.406C182.994 152.097 183.199 151.833 183.471 151.655C183.743 151.476 184.067 151.394 184.392 151.42C185.161 151.42 185.695 151.78 185.895 152.399C185.978 152.662 186.016 152.937 186.01 153.213C186.01 153.297 185.976 153.378 185.916 153.438C185.857 153.497 185.776 153.531 185.692 153.531H183.842C183.814 153.531 183.801 153.531 183.801 153.575C183.801 153.643 183.813 153.711 183.836 153.775C183.887 153.921 183.986 154.045 184.116 154.127C184.246 154.21 184.401 154.246 184.554 154.23C184.784 154.224 185.009 154.162 185.209 154.049C185.313 153.984 185.432 153.947 185.555 153.941C185.604 153.94 185.653 153.949 185.699 153.967C185.744 153.986 185.786 154.014 185.82 154.049C185.854 154.084 185.881 154.126 185.899 154.172C185.917 154.217 185.925 154.266 185.924 154.316C185.924 154.388 185.905 154.459 185.87 154.522C185.834 154.585 185.783 154.638 185.72 154.675C185.349 154.935 184.902 155.067 184.449 155.05C183.642 155.062 183.095 154.697 182.895 154.071ZM184.973 152.876C184.979 152.876 184.985 152.876 184.991 152.873C184.997 152.871 185.002 152.868 185.006 152.864C185.01 152.86 185.014 152.855 185.016 152.849C185.018 152.843 185.018 152.837 185.018 152.831C185.019 152.744 185.007 152.658 184.983 152.574C184.942 152.454 184.863 152.351 184.757 152.281C184.651 152.212 184.525 152.179 184.398 152.189C184.273 152.18 184.148 152.212 184.044 152.282C183.94 152.352 183.862 152.455 183.823 152.574C183.797 152.657 183.786 152.744 183.788 152.831C183.788 152.86 183.788 152.876 183.829 152.876H184.973Z" fill="url(#paint3_radial_453_11522)"/>
<path d="M194.463 154.56C194.461 154.624 194.447 154.687 194.421 154.745C194.394 154.803 194.357 154.856 194.31 154.899C194.263 154.943 194.208 154.977 194.148 154.998C194.088 155.02 194.025 155.03 193.961 155.027C193.882 155.031 193.803 155.015 193.732 154.981C193.661 154.947 193.598 154.897 193.551 154.834L193.465 154.71C193.335 154.835 193.18 154.931 193.01 154.992C192.841 155.053 192.66 155.077 192.48 155.062C191.587 155.062 191.155 154.659 191.155 153.998C191.155 153.229 191.733 152.876 192.594 152.876H193.23C193.236 152.876 193.242 152.875 193.247 152.873C193.253 152.871 193.258 152.868 193.262 152.864C193.267 152.86 193.27 152.854 193.272 152.849C193.274 152.843 193.275 152.837 193.274 152.831V152.796C193.274 152.479 193.046 152.278 192.562 152.278C192.371 152.28 192.181 152.314 192 152.377C191.924 152.406 191.843 152.423 191.762 152.428C191.708 152.431 191.654 152.422 191.604 152.403C191.554 152.383 191.509 152.354 191.471 152.316C191.433 152.277 191.404 152.232 191.385 152.182C191.366 152.131 191.358 152.078 191.361 152.024C191.36 151.94 191.384 151.856 191.43 151.785C191.476 151.714 191.541 151.658 191.619 151.624C191.953 151.475 192.318 151.406 192.683 151.42C193.735 151.42 194.237 151.954 194.237 152.825V153.778C194.229 153.888 194.252 153.999 194.304 154.096L194.396 154.255C194.447 154.348 194.47 154.454 194.463 154.56ZM193.255 153.826V153.588C193.256 153.582 193.255 153.576 193.253 153.57C193.251 153.565 193.248 153.559 193.243 153.555C193.239 153.551 193.234 153.548 193.228 153.546C193.223 153.544 193.217 153.543 193.211 153.543H192.721C192.299 153.543 192.105 153.674 192.105 153.941C192.105 154.207 192.276 154.306 192.607 154.306C193.033 154.306 193.255 154.134 193.255 153.817V153.826Z" fill="url(#paint4_radial_453_11522)"/>
<path d="M195.098 154.493V151.989C195.092 151.92 195.1 151.85 195.122 151.785C195.144 151.719 195.181 151.659 195.228 151.608C195.276 151.558 195.334 151.518 195.398 151.491C195.462 151.465 195.531 151.453 195.601 151.455C195.715 151.451 195.828 151.488 195.918 151.56C196.008 151.632 196.069 151.733 196.09 151.846C196.192 151.71 196.324 151.6 196.477 151.524C196.629 151.449 196.797 151.412 196.967 151.414C197.093 151.41 197.218 151.435 197.333 151.487C197.413 151.521 197.481 151.578 197.529 151.651C197.576 151.724 197.601 151.81 197.6 151.897C197.604 151.964 197.594 152.031 197.57 152.094C197.547 152.157 197.511 152.214 197.464 152.262C197.418 152.31 197.361 152.348 197.299 152.373C197.237 152.399 197.171 152.411 197.104 152.409C197.03 152.407 196.957 152.394 196.888 152.371C196.802 152.349 196.715 152.337 196.627 152.336C196.255 152.336 196.096 152.603 196.096 153.07V154.487C196.102 154.556 196.093 154.626 196.07 154.691C196.047 154.757 196.011 154.817 195.963 154.867C195.916 154.918 195.858 154.957 195.794 154.984C195.729 155.01 195.66 155.023 195.591 155.021C195.523 155.022 195.456 155.009 195.393 154.982C195.33 154.956 195.274 154.916 195.228 154.867C195.181 154.817 195.146 154.758 195.123 154.694C195.101 154.629 195.093 154.561 195.098 154.493Z" fill="url(#paint5_radial_453_11522)"/>
<path d="M197.987 154.071C197.903 153.803 197.865 153.523 197.873 153.242C197.863 152.959 197.899 152.677 197.981 152.406C198.087 152.098 198.292 151.834 198.564 151.656C198.836 151.477 199.16 151.395 199.484 151.421C200.256 151.421 200.787 151.78 200.987 152.4C201.071 152.662 201.111 152.937 201.105 153.213C201.105 153.297 201.071 153.378 201.012 153.438C200.952 153.497 200.871 153.531 200.787 153.531H198.941C198.935 153.53 198.928 153.53 198.922 153.532C198.917 153.534 198.911 153.537 198.907 153.541C198.902 153.546 198.899 153.551 198.897 153.557C198.895 153.563 198.895 153.569 198.896 153.575C198.896 153.644 198.908 153.711 198.931 153.776C198.984 153.921 199.083 154.045 199.214 154.127C199.344 154.209 199.499 154.246 199.653 154.23C199.882 154.224 200.107 154.162 200.307 154.049C200.412 153.984 200.531 153.947 200.654 153.941C200.703 153.94 200.751 153.95 200.796 153.969C200.841 153.987 200.882 154.015 200.917 154.05C200.951 154.085 200.977 154.127 200.995 154.173C201.013 154.218 201.021 154.267 201.019 154.316C201.019 154.388 201.001 154.459 200.966 154.522C200.931 154.584 200.88 154.637 200.819 154.675C200.447 154.934 200.001 155.066 199.548 155.05C198.741 155.063 198.194 154.697 197.987 154.071ZM200.069 152.876C200.098 152.876 200.11 152.86 200.11 152.832C200.113 152.745 200.101 152.658 200.075 152.574C200.035 152.454 199.955 152.351 199.849 152.281C199.743 152.212 199.617 152.18 199.491 152.19C199.365 152.18 199.241 152.213 199.136 152.282C199.032 152.352 198.954 152.455 198.915 152.574C198.89 152.658 198.878 152.745 198.88 152.832C198.879 152.838 198.88 152.844 198.881 152.85C198.883 152.856 198.886 152.861 198.891 152.866C198.895 152.87 198.901 152.873 198.907 152.875C198.912 152.877 198.919 152.877 198.925 152.876H200.069Z" fill="url(#paint6_radial_453_11522)"/>
<path d="M178.284 152.523C178.284 153.026 178.135 153.518 177.855 153.936C177.576 154.354 177.179 154.68 176.714 154.872C176.25 155.064 175.739 155.115 175.246 155.017C174.752 154.919 174.299 154.677 173.944 154.321C173.588 153.965 173.346 153.512 173.248 153.019C173.15 152.526 173.2 152.015 173.393 151.55C173.585 151.086 173.911 150.689 174.329 150.409C174.747 150.13 175.239 149.981 175.742 149.981C176.416 149.981 177.062 150.249 177.539 150.725C178.016 151.202 178.284 151.849 178.284 152.523ZM175.742 151.09C175.458 151.09 175.181 151.174 174.945 151.332C174.71 151.489 174.526 151.713 174.417 151.975C174.309 152.237 174.281 152.525 174.336 152.803C174.391 153.081 174.528 153.336 174.728 153.537C174.929 153.737 175.184 153.874 175.462 153.929C175.74 153.984 176.028 153.956 176.29 153.847C176.552 153.739 176.776 153.555 176.933 153.32C177.091 153.084 177.175 152.807 177.175 152.523C177.175 152.143 177.024 151.779 176.755 151.51C176.486 151.241 176.122 151.09 175.742 151.09Z" fill="url(#paint7_radial_453_11522)"/>
<path d="M189.124 153.957C188.768 153.923 188.437 153.758 188.196 153.493C187.956 153.229 187.822 152.884 187.822 152.526C187.822 152.169 187.956 151.824 188.196 151.56C188.437 151.295 188.768 151.13 189.124 151.096C189.407 151.096 189.684 151.18 189.918 151.338C190.024 151.405 190.148 151.436 190.273 151.427C190.398 151.417 190.516 151.369 190.611 151.287C190.673 151.238 190.723 151.176 190.758 151.105C190.793 151.034 190.811 150.956 190.811 150.877C190.811 150.798 190.793 150.72 190.758 150.649C190.723 150.578 190.673 150.516 190.611 150.467C190.285 150.232 189.909 150.078 189.512 150.017C189.115 149.956 188.71 149.989 188.328 150.115C187.947 150.241 187.601 150.455 187.319 150.74C187.036 151.025 186.825 151.373 186.703 151.756C186.581 152.138 186.551 152.544 186.616 152.94C186.681 153.336 186.838 153.712 187.076 154.035C187.314 154.359 187.625 154.621 187.983 154.801C188.342 154.982 188.738 155.074 189.14 155.072C189.667 155.072 190.181 154.907 190.611 154.602C190.673 154.553 190.724 154.49 190.758 154.419C190.793 154.348 190.811 154.269 190.811 154.19C190.811 154.111 190.793 154.033 190.758 153.962C190.724 153.89 190.673 153.828 190.611 153.779C190.516 153.697 190.398 153.648 190.274 153.638C190.149 153.629 190.025 153.659 189.918 153.725C189.683 153.879 189.406 153.96 189.124 153.957Z" fill="url(#paint8_radial_453_11522)"/>
<path d="M251.326 185.688C251.326 185.118 251.1 184.571 250.696 184.167C250.293 183.764 249.745 183.537 249.175 183.537C248.718 183.534 248.272 183.679 247.904 183.95C247.662 183.445 247.317 182.997 246.892 182.634C246.466 182.271 245.969 182.001 245.432 181.842C244.896 181.683 244.332 181.639 243.778 181.711C243.223 181.783 242.69 181.971 242.212 182.263C241.573 180.963 240.582 179.868 239.352 179.102C238.122 178.336 236.702 177.931 235.254 177.931C233.805 177.931 232.385 178.336 231.156 179.102C229.926 179.868 228.935 180.963 228.296 182.263C227.811 181.965 227.268 181.775 226.704 181.704C226.14 181.632 225.567 181.683 225.023 181.85C224.48 182.018 223.978 182.3 223.552 182.677C223.126 183.054 222.786 183.517 222.553 184.036C222.239 183.772 221.857 183.604 221.45 183.55C221.044 183.496 220.631 183.559 220.259 183.732C219.887 183.905 219.573 184.18 219.352 184.526C219.131 184.871 219.013 185.272 219.013 185.682V185.698H251.326V185.688Z" fill="#AAD098"/>
<path d="M163.808 61.5635C163.815 60.97 163.656 60.3865 163.349 59.8789C163.041 59.3713 162.598 58.9598 162.069 58.6912C161.54 58.4226 160.946 58.3077 160.354 58.3593C159.763 58.4108 159.198 58.6268 158.724 58.9829C158.366 58.2329 157.854 57.5664 157.223 57.0266C156.591 56.4868 155.853 56.0859 155.056 55.8495C154.26 55.6131 153.422 55.5467 152.598 55.6546C151.774 55.7624 150.982 56.0421 150.273 56.4756C149.322 54.5482 147.851 52.9251 146.026 51.7903C144.201 50.6555 142.094 50.0542 139.945 50.0542C137.796 50.0542 135.689 50.6555 133.864 51.7903C132.039 52.9251 130.567 54.5482 129.617 56.4756C128.896 56.0319 128.089 55.7471 127.25 55.6406C126.411 55.5341 125.558 55.6082 124.75 55.858C123.942 56.1078 123.196 56.5274 122.563 57.0889C121.93 57.6503 121.425 58.3405 121.081 59.1133C120.615 58.7209 120.046 58.4698 119.442 58.3895C118.838 58.3093 118.224 58.4032 117.672 58.6603C117.12 58.9174 116.652 59.327 116.325 59.8407C115.998 60.3545 115.824 60.9512 115.824 61.5604C115.824 61.5604 115.824 61.5762 115.824 61.5826H163.811L163.808 61.5635Z" fill="#CAE6EF"/>
<path d="M209.867 93.1586C209.866 92.8268 209.773 92.5018 209.599 92.2191C209.426 91.9365 209.177 91.7073 208.882 91.5565C208.586 91.4058 208.255 91.3394 207.924 91.3647C207.593 91.39 207.276 91.506 207.006 91.6999C206.804 91.2775 206.515 90.9022 206.159 90.5982C205.802 90.2942 205.386 90.0684 204.937 89.9351C204.488 89.8019 204.016 89.7642 203.551 89.8246C203.086 89.885 202.64 90.042 202.24 90.2857C201.703 89.1957 200.872 88.2778 199.84 87.6359C198.809 86.994 197.618 86.6538 196.403 86.6538C195.188 86.6538 193.998 86.994 192.966 87.6359C191.935 88.2778 191.103 89.1957 190.567 90.2857C190.16 90.035 189.705 89.8742 189.231 89.8139C188.758 89.7536 188.277 89.7952 187.82 89.9361C187.364 90.0769 186.943 90.3136 186.586 90.6305C186.229 90.9473 185.943 91.3369 185.749 91.773C185.486 91.5515 185.165 91.4096 184.825 91.3641C184.484 91.3187 184.137 91.3715 183.825 91.5163C183.513 91.6612 183.25 91.8922 183.064 92.182C182.879 92.4718 182.781 92.8084 182.781 93.1522H209.879L209.867 93.1586Z" fill="#CAE6EF"/>
<path d="M116.574 177.826L117.919 185.31H129.369V184.404L122.857 180.623L122.736 177.963L116.574 177.826Z" fill="#F49C6E"/>
<path d="M123.922 180.83C123.922 180.83 122.946 180.83 118.599 181.611L117.076 180.896V185.981L131.32 185.93C131.336 185.567 131.249 185.208 131.067 184.893C130.886 184.578 130.619 184.322 130.297 184.154L123.922 180.83Z" fill="white" stroke="white" stroke-miterlimit="10"/>
<path d="M99.0539 177.826L97.7096 185.31H86.2594V184.404L92.7711 180.623L92.8919 177.963L99.0539 177.826Z" fill="#F49C6E"/>
<path d="M91.7066 180.83C91.7066 180.83 92.6791 180.83 97.0266 181.611L98.552 180.896V185.981L84.3052 185.93C84.2891 185.567 84.3772 185.207 84.5591 184.892C84.741 184.577 85.009 184.321 85.3316 184.154L91.7066 180.83Z" fill="white" stroke="white" stroke-miterlimit="10"/>
<path d="M116.673 111.372L123.07 178.109L113.997 178.315L107.209 135.912C106.643 134.199 104.746 134.215 104.139 135.912L100.186 178.109L91.9387 177.902C91.9387 177.902 90.3148 139.957 95.2533 109.258L116.673 111.372Z" fill="#0477BD"/>
<path d="M98.3581 119.05L95.0308 177.089" stroke="#F9F8F3" stroke-width="0.97" stroke-miterlimit="10"/>
<path d="M118.535 177.502L111.693 119.562" stroke="#F9F8F3" stroke-width="0.97" stroke-miterlimit="10"/>
<g style="mix-blend-mode:soft-light" opacity="0.82">
<path d="M93.2575 126.257L119.371 139.859L118.214 126.937L93.2575 126.257Z" fill="#032538"/>
</g>
<path d="M101.422 80.6025L97.643 99.8101L86.7839 95.0432C87.1462 94.9828 92.4534 85.0453 92.4534 85.0453C92.4534 85.0453 98.3581 77.3006 101.422 80.6025Z" fill="#263238"/>
<path d="M97.2648 80.9111C104.358 77.1325 103.367 78.051 109.49 78.0669C112.824 78.0669 121.697 81.8106 122.863 84.9313C123.96 87.8678 123.127 92.8984 123.276 93.3846L119.739 92.3169L119.164 127.274L91.2076 126.257C91.2076 126.257 94.7034 98.2437 94.8146 93.696C94.8305 93.4355 96.8104 81.1558 97.2648 80.9111Z" fill="#263238"/>
<path d="M102.667 73.141L102.369 78.5245L104.171 83.8285L109.85 77.8443L108.861 73.0488L102.667 73.141Z" fill="#F49C6E"/>
<path d="M108.416 73.1691C108.416 73.1691 104.266 79.7444 102.556 76.6173C102.064 75.7179 101.215 72.667 101.215 72.667C101.215 72.667 108.451 72.8513 108.493 72.8926" fill="#263238"/>
<path d="M108.018 98.5796L106.806 98.9072L107.134 100.119L108.346 99.7914L108.018 98.5796Z" fill="#213666"/>
<path d="M101.026 89.6698L96.5076 90.8916C96.2483 90.9617 96.095 91.2288 96.1651 91.488L96.2862 91.9359C96.3563 92.1951 96.6233 92.3484 96.8825 92.2783L101.401 91.0565C101.661 90.9864 101.814 90.7195 101.744 90.4603L101.623 90.0124C101.553 89.7531 101.286 89.5997 101.026 89.6698Z" fill="#3D83C1"/>
<path d="M98.4788 89.5103L98.3517 89.5452C98.2283 89.5768 98.1125 89.6329 98.0111 89.71C97.9097 89.7871 97.8248 89.8839 97.7614 89.9944C97.698 90.1049 97.6574 90.227 97.642 90.3535C97.6265 90.48 97.6366 90.6082 97.6716 90.7307V90.7497L99.6642 90.2095V90.1904C99.6326 90.067 99.5765 89.9512 99.4994 89.8498C99.4223 89.7484 99.3256 89.6635 99.2151 89.6001C99.1046 89.5367 98.9825 89.4961 98.856 89.4806C98.7296 89.4652 98.6013 89.4753 98.4788 89.5103ZM98.5996 90.2062C98.5726 90.2139 98.5445 90.2161 98.5167 90.2128C98.4889 90.2094 98.4621 90.2005 98.4378 90.1865C98.4135 90.1726 98.3922 90.154 98.3753 90.1318C98.3583 90.1095 98.346 90.0841 98.339 90.057C98.3319 90.0303 98.3301 90.0024 98.3338 89.975C98.3375 89.9476 98.3465 89.9212 98.3603 89.8973C98.3742 89.8734 98.3926 89.8525 98.4146 89.8357C98.4366 89.8189 98.4616 89.8066 98.4883 89.7995C98.515 89.7924 98.5429 89.7906 98.5703 89.7943C98.5977 89.7979 98.6241 89.8071 98.648 89.8209C98.6719 89.8348 98.6928 89.8531 98.7096 89.8751C98.7264 89.8971 98.7387 89.9221 98.7458 89.9488C98.7534 89.9753 98.7557 90.0032 98.7525 90.0306C98.7493 90.058 98.7406 90.0845 98.727 90.1085C98.7134 90.1325 98.6951 90.1534 98.6732 90.1702C98.6513 90.187 98.6263 90.1993 98.5996 90.2062Z" fill="#516CA5"/>
<path d="M103.086 97.2647L91.936 100.253C91.5053 100.369 91.2497 100.812 91.3652 101.242L95.6411 117.195C95.7566 117.626 96.1993 117.881 96.6301 117.766L107.78 114.777C108.211 114.662 108.466 114.219 108.351 113.788L104.075 97.8357C103.959 97.4049 103.517 97.1493 103.086 97.2647Z" fill="#FBF3E2"/>
<path d="M100.724 90.6965L97.288 91.6255L97.5849 92.7238L101.021 91.7948L100.724 90.6965Z" fill="#516CA5"/>
<path d="M95.2919 98.9927L99.5182 97.8599C99.6817 97.8161 99.856 97.839 100.003 97.9236C100.149 98.0083 100.256 98.1476 100.3 98.3112L100.505 99.0756L95.0332 100.542L94.8283 99.7778C94.8063 99.6958 94.8009 99.6103 94.8124 99.5262C94.8239 99.442 94.8521 99.3611 94.8952 99.2879C94.9384 99.2148 94.9957 99.151 95.0638 99.1003C95.132 99.0496 95.2095 99.013 95.2919 98.9927Z" fill="#213666"/>
<path d="M87.8518 95.25C87.8518 95.25 82.9196 101.94 84.6198 106.735C86.3201 111.531 110.082 105.55 110.082 105.55L98.0722 98.3834L94.3603 98.2309L91.319 97.0964L87.8518 95.25Z" fill="#F49C6E"/>
<path d="M103.484 106.786L106.783 106.376L105.435 105.934L97.6431 99.8102L94.052 98.5391" fill="#E78A61"/>
<path d="M100.516 102.159C100.516 102.159 118.297 115.401 123.277 110.908C127.605 104.107 122.736 87.3906 122.736 87.3906L115.042 90.575C115.042 90.575 115.173 98.6025 114.604 98.3928C114.035 98.183 100.379 97.9288 100.379 97.9288C100.379 97.9288 98.0594 95.1481 94.0392 98.5644L100.516 102.159Z" fill="#F49C6E"/>
<path d="M126.575 104.517C125.145 97.662 124.617 84.9914 120.184 80.9713C118.153 79.1312 113.247 79.1091 111.626 79.3379C110.746 79.4618 112.452 79.3379 112.64 80.2118L114.41 98.3262L126.575 104.517Z" fill="#263238"/>
<path d="M101.472 66.1842C101.661 66.4841 101.928 66.7269 102.245 66.8865C102.88 67.1375 104.409 67.4776 105.124 66.9341C105.839 66.3907 106.474 66.4066 106.684 66.5496L108.305 71.6693L108.178 71.7361L108.273 71.9172L109.897 71.0591L108.912 71.3769C110.11 67.5252 110.863 65.6217 110.018 64.5221C110.955 62.4501 107.844 60.1047 106.204 61.2774C105.251 59.6439 103.805 60.718 102.635 61.5316C98.3516 60.0538 99.1175 65.6631 101.069 66.5783C101.25 66.9247 101.193 65.9776 101.472 66.1842ZM109.004 71.2975L108.648 71.4818C108.848 71.2852 109.092 71.1392 109.36 71.056L109.004 71.2975Z" fill="#263238"/>
<path d="M108.438 71.107C108.45 71.1372 108.468 71.1641 108.492 71.1855C108.517 71.2069 108.546 71.2221 108.577 71.2296C108.608 71.2371 108.641 71.2369 108.672 71.2288C108.704 71.2207 108.732 71.205 108.756 71.1832C109.106 70.8463 109.64 69.7181 109.891 71.0592C110.234 72.8834 108.451 73.2362 108.302 73.4809C107.818 74.3935 107.12 75.1753 106.268 75.7594C105.572 76.2488 103.97 76.7478 102.178 76.1694C100.872 75.7499 100.22 71.1896 101.164 65.4756C101.164 65.4756 101.622 66.34 102.283 66.5624C102.944 66.7849 104.113 66.3877 104.863 66.1812C105.473 66.0159 106.621 65.4691 107.383 66.0285C107.844 66.2319 108.13 70.3189 108.438 71.107Z" fill="#F49C6E"/>
<path d="M105.941 69.4289C106.278 69.6672 105.769 68.609 105.305 68.4755C105.104 68.4048 104.883 68.4163 104.691 68.5073C104.498 68.5983 104.349 68.7616 104.275 68.9618C104.868 68.9181 105.457 69.0833 105.941 69.4289Z" fill="#263238"/>
<path d="M101.647 69.4416C101.218 69.6005 101.412 69.0475 101.759 68.806C102.248 68.5962 102.772 68.7075 102.953 69.1238C102.966 69.1238 101.933 69.3367 101.647 69.4416Z" fill="#263238"/>
<path d="M103.509 70.4837L102.985 71.952C102.982 71.9581 102.98 71.965 102.98 71.972C102.981 71.9789 102.982 71.9858 102.986 71.9918C102.989 71.9979 102.994 72.0028 103 72.0064C103.006 72.01 103.013 72.0121 103.02 72.0123L103.656 72.0505C103.681 72.0505 103.7 72.0315 103.7 72.0029L103.595 70.4964C103.597 70.4851 103.594 70.4736 103.587 70.4643C103.58 70.4551 103.57 70.4489 103.559 70.4472C103.547 70.4456 103.536 70.4485 103.526 70.4553C103.517 70.4622 103.511 70.4723 103.509 70.4837Z" fill="#D14B28"/>
<path d="M104.606 71.2721C104.706 71.2721 104.787 71.0899 104.787 70.8652C104.787 70.6405 104.706 70.4585 104.606 70.4585C104.506 70.4585 104.425 70.6405 104.425 70.8652C104.425 71.0899 104.506 71.2721 104.606 71.2721Z" fill="#263238"/>
<path d="M102.718 70.8938C102.718 71.1195 102.798 71.3007 102.899 71.3007C103.001 71.3007 103.077 71.1195 103.077 70.8938C103.077 70.6682 102.998 70.4902 102.899 70.4902C102.801 70.4902 102.718 70.6714 102.718 70.8938Z" fill="#263238"/>
<path d="M102.375 72.5879C102.375 72.5879 104.52 72.6419 104.806 72.6133C104.806 72.6133 103.97 73.8655 103.255 73.8083C102.54 73.7511 102.375 72.5879 102.375 72.5879Z" fill="white"/>
<path d="M100.719 71.9552C100.719 71.9552 100.853 74.9139 101.739 75.7973C102.626 76.6808 105.852 76.6808 107.247 74.8439C108.642 73.0071 109.252 73.255 109.252 73.255C109.252 73.255 107.552 73.8652 107.212 73.9351C106.872 74.005 106.157 72.7084 106.532 72.3461C106.907 71.9838 109.115 70.916 109.115 70.916C109.115 70.916 106.328 72.0378 105.343 72.0378C105.025 72.0378 103.894 70.7126 102.384 71.72C101.126 72.5685 100.719 71.9552 100.719 71.9552Z" fill="#FAFBFB" stroke="#FAFBFB" stroke-width="0.4" stroke-miterlimit="10"/>
<path d="M101.622 78.6259C101.622 78.9437 103.764 85.5603 103.764 85.5603L111.006 78.3208" stroke="#F9F8F3" stroke-width="0.71" stroke-miterlimit="10"/>
<path d="M112.433 92.396H107.434V93.5179H112.433V92.396Z" stroke="#F9F8F3" stroke-width="0.71" stroke-miterlimit="10"/>
<path d="M137.561 97.001C138.105 97.5762 134.841 123.658 134.841 123.658C134.841 123.658 133.548 127.907 138.003 132.362L141.642 97.4331L137.561 97.001Z" fill="#F49C6E"/>
<path d="M142.185 85.5796C142.185 85.5796 138.241 85.8497 137.418 91.6972L136.602 97.5479L140.682 97.9547L142.185 85.5796Z" fill="#6EC8E5"/>
<path d="M157.63 177.311L157.98 183.639L170.034 183.244L163.163 180.216L162.48 177.028L157.63 177.311Z" fill="#F49C6E"/>
<path d="M163.843 180.006L170.034 183.245L157.98 183.639L157.754 180.34L163.843 180.006Z" fill="#0477BD"/>
<path d="M170.228 185.304L157.967 185.609L157.923 183.55L170.183 183.245L170.228 185.304Z" fill="white" stroke="white" stroke-miterlimit="10"/>
<path d="M164.587 180.426L163.268 181.325" stroke="white" stroke-width="0.97" stroke-miterlimit="10"/>
<path d="M165.766 181.017L164.447 181.916" stroke="white" stroke-width="0.97" stroke-miterlimit="10"/>
<path d="M144.044 177.251L145.036 183.96L132.976 184.166L139.869 180.632L139.49 176.984L144.044 177.251Z" fill="#F49C6E"/>
<path d="M139.017 180.626L132.976 184.166L145.036 183.96L144.607 180.518L139.017 180.626Z" fill="#0477BD"/>
<path d="M138.076 181.086L139.437 181.919" stroke="white" stroke-width="0.97" stroke-miterlimit="10"/>
<path d="M136.926 181.732L138.286 182.568" stroke="white" stroke-width="0.97" stroke-miterlimit="10"/>
<path d="M145.198 185.927L132.937 186.232L132.893 184.169L145.154 183.867L145.198 185.927Z" fill="white" stroke="white" stroke-miterlimit="10"/>
<path d="M144.699 106.783L155.244 107.844C155.244 107.844 159.264 103.827 164.113 176.895L157.379 177.375L149.205 126.082C149.167 125.933 149.073 125.804 148.944 125.721C148.814 125.638 148.658 125.606 148.507 125.633C148.355 125.659 148.219 125.741 148.125 125.864C148.031 125.986 147.987 126.139 148.001 126.292L145.716 177.728L138.642 177.334C138.642 177.334 135.016 125.571 138.143 117.203C141.27 108.836 144.699 106.783 144.699 106.783Z" fill="#6EC8E5"/>
<path d="M138.559 116.177C138.559 116.177 142.846 117.985 145.074 113.952C147.302 109.919 147.896 107.733 147.896 107.733" stroke="black" stroke-width="0.97" stroke-miterlimit="10"/>
<path d="M152.476 107.911C152.476 107.911 152.266 116.93 154.792 117.762C157.319 118.595 158.539 118.42 158.539 118.42" stroke="black" stroke-width="0.97" stroke-miterlimit="10"/>
<path d="M154.792 117.756L161.898 176.936" stroke="#F9F8F3" stroke-width="0.97" stroke-miterlimit="10"/>
<path d="M141.127 116.523L141.477 177.451" stroke="#F9F8F3" stroke-width="0.97" stroke-miterlimit="10"/>
<g style="mix-blend-mode:soft-light" opacity="0.82">
<path d="M159.286 122.943L144.439 107.101C144.439 107.101 136.132 112.554 137.05 131.015L159.286 122.943Z" fill="#032538"/>
</g>
<path d="M146.539 75.3019C146.539 75.3019 142.888 74.768 143.066 77.4375C143.244 80.107 144.845 79.5763 144.845 79.5763C144.845 79.5763 144.133 82.0678 146.361 81.4449C148.589 80.822 148.764 78.6832 148.675 77.7933C148.586 76.9035 146.539 75.3019 146.539 75.3019Z" fill="#263238"/>
<path d="M144.448 75.998C144.448 75.998 139.57 69.3752 146.139 65.9716C152.708 62.568 154.567 69.6835 154.567 70.6114C154.567 71.5394 154.249 83.3646 147.067 79.0362L144.448 75.998Z" fill="#263238"/>
<path d="M151.773 75.8706C151.773 75.8706 153.766 85.4045 153.931 86.0401C153.931 86.0401 148.303 98.9713 146.517 85.9512C146.517 85.9512 147.121 83.5169 147.788 78.251L151.773 75.8706Z" fill="#F49C6E"/>
<path d="M144.763 75.1686L146.155 74.6983L145.627 73.1538L144.238 73.6241C144.136 73.6578 144.042 73.7113 143.961 73.7816C143.881 73.852 143.814 73.9376 143.767 74.0336C143.719 74.1297 143.691 74.2344 143.684 74.3414C143.677 74.4483 143.692 74.5556 143.727 74.657C143.761 74.7589 143.815 74.853 143.885 74.934C143.956 75.0149 144.042 75.081 144.138 75.1286C144.234 75.1761 144.339 75.2042 144.446 75.2111C144.554 75.218 144.661 75.2035 144.763 75.1686Z" fill="#F7A78D"/>
<path d="M154.204 72.3817L152.793 72.782L153.242 74.3521L154.653 73.9516C154.756 73.9226 154.852 73.8736 154.937 73.8073C155.021 73.7409 155.091 73.6585 155.143 73.5649C155.196 73.4712 155.229 73.3682 155.241 73.2617C155.253 73.1551 155.245 73.0473 155.215 72.9442C155.186 72.8408 155.136 72.7443 155.07 72.66C155.003 72.5758 154.92 72.5055 154.826 72.4532C154.733 72.4009 154.629 72.3677 154.523 72.3554C154.416 72.3432 154.308 72.3521 154.204 72.3817Z" fill="#F7A78D"/>
<path d="M148.16 68.6883C145.506 69.3239 144.267 71.8664 144.877 74.4374L144.925 74.6343C145.532 77.2085 148.719 79.4712 150.343 78.8324L150.4 78.8038C152.139 78.2826 154.665 74.9902 154.055 72.4161L154.007 72.2192C153.857 71.6021 153.587 71.0208 153.211 70.5088C152.836 69.9969 152.362 69.5643 151.819 69.2361C151.275 68.9079 150.672 68.6905 150.044 68.5965C149.416 68.5025 148.776 68.5337 148.16 68.6883Z" fill="#F49C6E"/>
<path d="M152.053 76.1094C152.693 76.1094 153.213 75.5901 153.213 74.9495C153.213 74.3089 152.693 73.7896 152.053 73.7896C151.412 73.7896 150.893 74.3089 150.893 74.9495C150.893 75.5901 151.412 76.1094 152.053 76.1094Z" fill="#F69A81"/>
<path d="M146.186 74.7392C146.024 74.9014 145.913 75.1082 145.869 75.3332C145.824 75.5582 145.847 75.7914 145.935 76.0034C146.022 76.2154 146.171 76.3967 146.362 76.5242C146.552 76.6517 146.777 76.7197 147.006 76.7197C147.236 76.7197 147.46 76.6517 147.651 76.5242C147.842 76.3967 147.99 76.2154 148.078 76.0034C148.166 75.7914 148.189 75.5582 148.144 75.3332C148.099 75.1082 147.988 74.9014 147.826 74.7392C147.719 74.6312 147.591 74.5455 147.45 74.487C147.31 74.4286 147.159 74.3984 147.006 74.3984C146.854 74.3984 146.703 74.4286 146.562 74.487C146.422 74.5455 146.294 74.6312 146.186 74.7392Z" fill="#F69A81"/>
<path d="M148.487 72.1428C148.662 72.1428 148.313 71.7423 147.874 71.7995C147.436 71.8567 146.657 72.7529 146.657 72.7529C146.657 72.7529 147.88 72.1428 148.487 72.1428Z" fill="#263238"/>
<path d="M150.197 71.8759C150.083 71.8982 150.213 71.4787 150.394 71.4532C150.575 71.4278 151.474 71.3738 151.983 71.9745C151.399 71.8336 150.793 71.8002 150.197 71.8759Z" fill="#263238"/>
<path d="M150.877 75.2827C150.81 75.2827 148.385 75.6196 148.335 75.6005C148.284 75.5814 149.155 76.7414 149.809 76.7001C150.464 76.6588 150.877 75.2827 150.877 75.2827Z" fill="white"/>
<path d="M149.971 75.3019L149.371 75.3687C149.344 75.3721 149.316 75.3687 149.291 75.3587C149.266 75.3488 149.243 75.3326 149.226 75.3117C149.209 75.2908 149.197 75.2658 149.191 75.2391C149.186 75.2124 149.188 75.1849 149.196 75.159L149.253 73.5128C149.262 73.4831 149.28 73.4566 149.304 73.4366C149.327 73.4165 149.356 73.4038 149.387 73.3998C149.418 73.3958 149.449 73.4007 149.477 73.4139C149.505 73.4272 149.529 73.4482 149.546 73.4746L150.089 75.0636C150.102 75.0864 150.108 75.112 150.109 75.1381C150.11 75.1642 150.104 75.1901 150.092 75.2135C150.081 75.2369 150.064 75.257 150.043 75.2724C150.022 75.2879 149.997 75.298 149.971 75.3019Z" fill="#F27963"/>
<path d="M148.109 73.9417C148.16 74.1419 148.296 74.2818 148.411 74.2595C148.525 74.2373 148.579 74.0434 148.528 73.8432C148.478 73.643 148.341 73.5 148.227 73.5254C148.112 73.5508 148.058 73.732 148.109 73.9417Z" fill="#263238"/>
<path d="M150.359 73.5951C150.359 73.8049 150.474 73.967 150.591 73.9638C150.709 73.9607 150.801 73.7826 150.788 73.5761C150.775 73.3695 150.677 73.2043 150.556 73.2106C150.435 73.217 150.35 73.3886 150.359 73.5951Z" fill="#263238"/>
<path d="M144.547 73.2454C144.623 73.2454 146.358 73.169 147.353 68.9868C149.476 70.2496 151.702 71.3309 154.007 72.2189C154.007 72.2189 153.912 66.3936 149.393 66.6415C143.298 66.972 144.547 73.2454 144.547 73.2454Z" fill="#263238"/>
<path d="M144.597 73.3729C144.597 73.3729 147.337 75.9152 148.322 75.3368C149.307 74.7584 148.999 73.91 150.794 74.749C152.59 75.588 154.204 72.3813 154.204 72.3813C154.204 72.3813 153.531 73.9353 154.084 74.0783C154.084 74.0783 152.431 79.2108 149.994 78.9502C147.556 78.6896 146.285 77.3835 144.979 75.0953C144.979 75.0953 146.396 75.8358 144.597 73.3729Z" fill="#FAFBFB" stroke="#FAFBFB" stroke-width="0.4" stroke-miterlimit="10"/>
<path d="M146.822 84.1491L149.269 88.916L153.62 83.9521L156.75 85.5157C159.718 86.0591 159.96 89.2816 159.4 92.2498L159.184 107.418C159.184 107.418 160.455 119.997 160.509 122.752L135.928 122.65L139.297 91.9002C140.282 87.9023 141.238 85.3408 144.648 84.8292L146.822 84.1491Z" fill="#6EC8E5"/>
<g style="mix-blend-mode:soft-light" opacity="0.3">
<path d="M159.388 92.2437C159.67 90.9488 159.697 89.6113 159.467 88.3062C151.611 99.29 144.458 110.76 138.051 122.647L160.51 122.739C160.446 119.984 159.184 107.406 159.184 107.406L159.388 92.2437Z" fill="#032538"/>
</g>
<path d="M144.972 94.4873H140.415V95.8476H144.972V94.4873Z" stroke="#F9F8F3" stroke-width="0.71" stroke-miterlimit="10"/>
<path d="M146.196 84.1523L149.053 90.2032L154.424 84.4225" stroke="#F9F8F3" stroke-width="0.71" stroke-miterlimit="10"/>
<path d="M160.556 103.204L159.368 103.521L159.686 104.71L160.874 104.392L160.556 103.204Z" fill="#213666"/>
<path d="M158.282 96.8296L157.262 96.9694C157.22 96.9757 157.177 96.9734 157.136 96.963C157.095 96.9526 157.057 96.9342 157.023 96.9087C156.989 96.8833 156.961 96.8514 156.94 96.8148C156.918 96.7783 156.905 96.7379 156.899 96.696V96.696C156.893 96.6542 156.896 96.6117 156.907 96.5709C156.918 96.5301 156.937 96.492 156.962 96.4586C156.988 96.4251 157.02 96.3972 157.057 96.3763C157.093 96.3554 157.134 96.342 157.176 96.3369L158.447 96.1622C158.489 96.1559 158.532 96.1581 158.573 96.1687C158.614 96.1793 158.653 96.198 158.686 96.2238C158.72 96.2496 158.749 96.2819 158.77 96.3187C158.791 96.3556 158.804 96.3965 158.809 96.4387V96.5276C158.821 96.614 158.799 96.7015 158.748 96.7723C158.697 96.8431 158.621 96.892 158.536 96.909L158.301 96.9407" stroke="#57BDD0" stroke-width="0.21" stroke-miterlimit="10"/>
<path d="M157.449 100.958L153 102.15C152.745 102.219 152.594 102.481 152.662 102.737L152.78 103.178C152.849 103.433 153.111 103.584 153.366 103.516L157.815 102.324C158.07 102.255 158.222 101.993 158.153 101.737L158.035 101.297C157.967 101.041 157.704 100.89 157.449 100.958Z" fill="#3D83C1"/>
<path d="M151.192 94.3092L151.068 94.341C150.826 94.4073 150.62 94.5661 150.495 94.7832C150.369 95.0003 150.334 95.2582 150.397 95.5009V95.52L152.352 94.9987V94.9797C152.286 94.7378 152.127 94.5318 151.909 94.4063C151.692 94.2808 151.435 94.2459 151.192 94.3092ZM151.306 94.9924C151.267 95.0029 151.225 95.0015 151.187 94.9884C151.148 94.9752 151.114 94.9509 151.089 94.9185C151.064 94.8862 151.05 94.8472 151.047 94.8065C151.044 94.7658 151.054 94.7252 151.074 94.6898C151.094 94.6544 151.125 94.6259 151.161 94.6077C151.198 94.5896 151.239 94.5827 151.279 94.5878C151.32 94.593 151.358 94.6101 151.389 94.6369C151.419 94.6636 151.442 94.6989 151.452 94.7382C151.46 94.7645 151.462 94.7919 151.458 94.8189C151.455 94.8459 151.446 94.8721 151.432 94.8957C151.419 94.9193 151.401 94.9401 151.379 94.9567C151.357 94.9733 151.333 94.9854 151.306 94.9924Z" fill="#516CA5"/>
<path d="M157.008 93.9305L146.13 96.8371C145.709 96.9494 145.459 97.3816 145.572 97.8021L149.73 113.365C149.843 113.786 150.275 114.036 150.695 113.923L161.573 111.017C161.994 110.904 162.243 110.472 162.131 110.052L157.973 94.4886C157.86 94.0681 157.428 93.8181 157.008 93.9305Z" fill="#263238"/>
<path d="M153.402 95.4716L150.034 96.3716L150.321 97.4462L153.689 96.5462L153.402 95.4716Z" fill="#516CA5"/>
<path d="M149.419 95.6084L153.542 94.5066C153.705 94.4631 153.878 94.486 154.024 94.5704C154.17 94.6547 154.277 94.7937 154.32 94.9566L154.519 95.7026L149.168 97.1325L148.969 96.3865C148.925 96.2237 148.948 96.0501 149.032 95.9042C149.117 95.7582 149.256 95.6519 149.419 95.6084Z" fill="#213666"/>
<path d="M170.482 100.977L170.256 100.624L170.371 100.548C168.065 96.5096 165.556 92.5905 162.855 88.8054C158.088 83.2535 155.863 85.7259 155.329 86.6507C154.297 89.406 158.507 93.3245 160.026 95.7175C160.83 96.9664 161.676 98.1995 162.788 99.7821C160.112 100.693 157.389 101.459 154.63 102.077C149.987 101.759 149.526 101.371 148.783 101.635C148.783 101.635 147.696 101.47 148.173 101.886C148.297 101.994 150.798 102.69 150.642 102.766C150.486 102.842 145.948 103.805 146.132 104.222C146.317 104.638 149.075 104.126 149.164 104.336C149.253 104.546 146.304 104.733 146.339 105.134C146.374 105.534 149.371 105.248 149.329 105.452C149.288 105.655 146.498 105.658 146.568 105.963C146.638 106.268 149.599 106.078 149.714 106.192C149.828 106.306 147.041 106.322 146.952 106.704C146.885 106.987 149.542 106.983 150.384 106.872C152.137 106.645 153.868 106.276 155.561 105.769C156.308 105.792 162.175 105.398 168.788 104.578C169.183 104.53 169.559 104.383 169.881 104.15C170.204 103.917 170.462 103.606 170.631 103.246C170.8 102.886 170.875 102.489 170.849 102.092C170.823 101.695 170.697 101.312 170.482 100.977Z" fill="#F49C6E"/>
<path d="M166.503 94.1821C165.327 92.3452 164.717 90.6863 163.468 88.9797C158.701 83.4278 154.811 84.8928 154.287 85.8176C153.334 88.36 159.591 97.1375 159.388 96.8325C161.685 96.6132 164.228 94.5793 166.503 94.1821Z" fill="#6EC8E5"/>
<path d="M272.927 175.602L273.403 184.303L282.566 185.097L278.472 181.112L279.55 175.513L272.927 175.602Z" fill="#F49C6E"/>
<path d="M279.048 181.176L282.998 184.898C283.224 185.072 283.061 185.368 282.737 185.371C282.737 185.371 271.932 185.314 271.91 185.168C271.824 184.265 272.889 181.094 273.045 180.271C273.067 180.153 275.876 183.588 276.629 183.318C277.135 183.137 278.895 181.059 279.048 181.176Z" fill="#0C71B8"/>
<path d="M249.705 175.557L248.205 184.344L258.438 185.097L253.805 180.896L255.423 176.158L249.705 175.557Z" fill="#F49C6E"/>
<path d="M254.609 181.109L258.957 184.897C259.182 185.072 259.02 185.368 258.696 185.371C258.696 185.371 247.522 185.314 247.509 185.167C247.424 184.265 248.18 180.95 248.336 180.127C248.358 180.01 251.717 182.828 252.467 182.558C252.966 182.377 254.457 180.991 254.609 181.109Z" fill="#0C71B8"/>
<path d="M266.139 104.152C265.525 104.291 262.262 108.353 260.93 114.88C260.45 117.232 258.686 126.686 255.527 137.38C251.05 152.542 248.968 170.876 248.6 176.898C250.243 177.324 254.879 177.512 255.909 177.448C258.33 169.694 267.941 139.535 272.409 124.967C272.436 124.799 272.529 124.648 272.668 124.548C272.807 124.448 272.979 124.408 273.148 124.435C273.316 124.462 273.467 124.556 273.567 124.694C273.667 124.833 273.707 125.005 273.68 125.174C273.823 140.469 271.897 174.083 272.609 178.071C273.095 178.141 279.445 177.795 280.411 178.071C281.491 165.426 290.037 111.41 279.14 103.605C273.709 103.491 269.981 103.287 266.139 104.152Z" fill="#0C71B8"/>
<path d="M278.418 103.723C278.418 103.723 278.682 105.149 280.608 114.769C283.408 128.771 277.322 177.795 277.322 177.795" stroke="#F9F8F3" stroke-width="0.98" stroke-miterlimit="10"/>
<path d="M268.112 103.459C268.112 103.459 268.748 99.6452 262.074 128.987C259.815 138.95 253.989 160.694 251.565 177.172" stroke="#F9F8F3" stroke-width="0.98" stroke-miterlimit="10"/>
<path d="M290.692 73.0329C290.374 72.7564 289.738 74.6886 289.738 74.1643C289.738 73.6399 290.314 71.3835 289.923 71.285C289.605 71.1992 289.224 73.8275 288.928 73.8561C288.633 73.8847 289.443 70.91 289.195 70.7607C288.499 70.3412 288.2 73.8212 287.701 73.7894C287.759 73.8498 288.273 70.8242 287.701 70.8941C287.431 70.9259 286.977 73.1919 286.605 75.3593C286.606 75.3986 286.592 75.4368 286.567 75.4668C286.541 75.4968 286.506 75.5165 286.467 75.5224C286.428 75.5282 286.388 75.5197 286.355 75.4985C286.322 75.4772 286.298 75.4447 286.287 75.4069C285.858 74.5775 285.378 73.6685 285.121 74.2246C285.359 78.3274 285.969 79.2617 285.969 79.2617H285.992L283.684 93.3497C283.599 93.8105 283.138 94.2713 282.702 94.052C281.304 93.3592 271.465 88.5414 271.694 88.8402C272.053 89.3105 275.883 98.5329 276.143 98.1388C281.755 103.176 287.368 100.681 287.368 100.681C290.987 96.7532 289.43 79.3348 289.43 79.3348H289.408C289.859 78.3719 290.975 73.284 290.692 73.0329Z" fill="#F49C6E"/>
<path d="M275.456 83.3103C275.456 83.3103 276.318 81.7468 278.094 83.2563C279.871 84.7658 284.269 92.1546 284.269 92.1546L279.979 100.227L275.456 83.3103Z" fill="#6EC8E5"/>
<path d="M279.944 80.4057L277.719 72.143C278.355 69.9756 278.323 68.8633 277.964 68.2023C276.988 66.3877 275.593 65.8442 273.68 65.412C260.879 62.5137 264.744 80.1864 264.744 80.1864L279.944 80.4057Z" fill="#263238"/>
<path d="M270.69 71.9489C270.681 71.9694 270.667 71.9877 270.651 72.0027C270.634 72.0177 270.614 72.029 270.593 72.0356C270.571 72.0422 270.549 72.0441 270.527 72.0412C270.504 72.0383 270.483 72.0306 270.464 72.0187C270.127 71.8058 269.266 71.399 268.646 72.2888C268.027 73.1787 268.9 74.7327 269.67 74.488C269.838 74.4371 269.911 74.7486 269.949 74.9297C270.296 76.6579 270.417 78.4235 270.311 80.1829C270.238 81.7718 269.295 83.6024 269.295 83.6024C269.295 83.6024 274.802 89.4689 276.922 89.9869C278.215 90.3047 276.515 86.9616 276.515 83.8662C276.515 83.8662 275.066 78.9022 274.891 77.4245C275.527 77.2942 278.009 78.0823 278.387 73.6109C278.749 69.5272 276.721 68.4944 276.07 68.2402C275.53 68.0304 272.886 67.5219 270.69 71.9489Z" fill="#F49C6E"/>
<path d="M277.182 67.7575C277.182 67.7575 274.554 72.3401 270.69 71.9493C270.69 71.9493 268.624 64.9292 277.182 67.7575Z" fill="#263238"/>
<path d="M275.387 67.344C275.387 67.344 276.423 69.3461 278.078 70.3822C278.072 70.3822 278.425 66.308 275.387 67.344Z" fill="#263238"/>
<path d="M276.016 82.163C274.004 82.4835 271.948 82.3818 269.978 81.8643C269.792 82.4608 269.561 83.0421 269.285 83.6027C269.285 83.6027 274.792 89.4691 276.912 89.9872C278.205 90.305 276.505 86.9618 276.505 83.8665C276.499 83.8665 276.289 83.1418 276.016 82.163Z" fill="#FBF3E2" stroke="#FBF3E2" stroke-width="1.44" stroke-miterlimit="10"/>
<g style="mix-blend-mode:multiply" opacity="0.28">
<path d="M271.344 125.917L257.126 132.207C257.126 132.207 257.879 125.584 260.142 119.606L271.344 125.917Z" fill="#1E274D"/>
</g>
<g style="mix-blend-mode:multiply" opacity="0.28">
<path d="M284.485 127.046L273.731 130.576C273.617 126.706 273.755 122.832 274.144 118.98L284.485 127.046Z" fill="#1E274D"/>
</g>
<path d="M264.146 84.8707C264.146 84.8707 265.602 82.999 267.381 82.2903C267.823 81.9916 269.908 81.7373 269.908 81.7373L276.013 86.9778C276.458 86.6283 276.569 82.7892 276.569 82.7892C276.455 83.0911 280.294 88.1918 280.878 91.1187C281.431 93.8771 287.018 126.127 287.018 127.208L257.463 126.4C257.463 126.4 262.923 88.5826 264.146 84.8707Z" fill="#6EC8E5"/>
<g style="mix-blend-mode:soft-light" opacity="0.82">
<path d="M267.664 86.4438L274.284 127.268L257.269 126.486C257.45 131.457 261.461 101.364 262.888 95.374C265.081 86.1928 267.613 88.7224 267.664 86.4438Z" fill="#032538"/>
</g>
<path d="M273.445 73.252C273.606 73.2885 273.752 73.3717 273.866 73.4914C273.98 73.6111 274.056 73.7619 274.084 73.9245C274.112 74.0872 274.091 74.2545 274.024 74.4054C273.958 74.5563 273.847 74.6842 273.708 74.7727C273.569 74.8612 273.406 74.9063 273.241 74.9026C273.076 74.8989 272.916 74.8464 272.781 74.7518C272.646 74.6571 272.541 74.5244 272.481 74.3706C272.421 74.2168 272.408 74.0488 272.444 73.8876C272.492 73.6706 272.625 73.4818 272.813 73.3626C273.001 73.2435 273.228 73.2037 273.445 73.252Z" fill="#EB844D"/>
<path d="M278.209 74.8407C278.087 74.8901 277.955 74.91 277.825 74.8991C277.694 74.8881 277.567 74.8465 277.455 74.7776C277.344 74.7087 277.25 74.6143 277.181 74.5023C277.113 74.3903 277.072 74.2637 277.061 74.1328C277.051 74.0019 277.071 73.8704 277.121 73.7489C277.171 73.6275 277.249 73.5194 277.348 73.4336C277.447 73.3478 277.566 73.2866 277.693 73.255C277.82 73.2234 277.954 73.2223 278.082 73.2518C278.196 73.2748 278.304 73.3213 278.399 73.3883C278.381 73.8773 278.317 74.3636 278.209 74.8407Z" fill="#EB844D"/>
<path d="M276.582 74.3677L274.77 74.3423C274.77 74.3423 275.212 75.2194 275.724 75.1368C276.235 75.0541 276.582 74.3677 276.582 74.3677Z" fill="white"/>
<path d="M275.654 72.7783L275.504 73.9795H276.121C276.146 73.9786 276.172 73.9713 276.194 73.9581C276.216 73.9449 276.234 73.9265 276.247 73.9043C276.26 73.8821 276.267 73.8569 276.268 73.8312C276.269 73.8055 276.263 73.78 276.251 73.7572L275.654 72.7783Z" fill="#D14B28"/>
<path d="M274.026 71.6028C273.817 71.7299 274.166 71.1325 274.44 71.0785C274.713 71.0245 275.113 71.0785 275.097 71.301C275.082 71.5235 274.522 71.3041 274.026 71.6028Z" fill="#263238"/>
<path d="M277.392 71.6408C277.579 71.7933 277.319 71.1546 277.055 71.0624C276.791 70.9703 276.419 70.9861 276.419 71.3103C276.448 71.5645 276.941 71.2753 277.392 71.6408Z" fill="#263238"/>
<path d="M274.618 72.7785C274.618 72.9883 274.691 73.1599 274.792 73.1631C274.894 73.1662 274.98 72.9977 274.983 72.788C274.986 72.5783 274.91 72.4067 274.811 72.4067C274.713 72.4067 274.624 72.5561 274.618 72.7785Z" fill="#263238"/>
<path d="M276.276 72.69C276.276 72.8902 276.346 73.0523 276.442 73.0554C276.537 73.0586 276.62 72.8997 276.626 72.6995C276.632 72.4993 276.556 72.3372 276.461 72.334C276.365 72.3309 276.28 72.4898 276.276 72.69Z" fill="#263238"/>
<path d="M256.643 92.3106L265.859 97.4811C265.859 97.4811 272.635 83.7491 267.388 82.4525C262.141 81.1559 256.643 92.3106 256.643 92.3106Z" fill="#6EC8E5"/>
<path d="M276.597 104.892L276.524 104.774C276.454 104.658 276.361 104.558 276.251 104.478C276.142 104.398 276.017 104.34 275.885 104.308C275.753 104.276 275.616 104.271 275.482 104.292C275.348 104.313 275.22 104.36 275.104 104.431L276.251 106.315H276.27C276.385 106.243 276.485 106.15 276.564 106.039C276.642 105.929 276.698 105.804 276.729 105.671C276.759 105.539 276.763 105.402 276.741 105.269C276.718 105.135 276.67 105.007 276.597 104.892ZM275.921 105.226C275.903 105.2 275.892 105.172 275.886 105.141C275.88 105.111 275.881 105.08 275.888 105.051C275.895 105.021 275.908 104.993 275.926 104.968C275.944 104.943 275.967 104.923 275.994 104.908C276.019 104.891 276.048 104.88 276.078 104.874C276.108 104.869 276.139 104.87 276.168 104.876C276.198 104.883 276.226 104.896 276.251 104.914C276.275 104.932 276.296 104.955 276.311 104.981C276.328 105.007 276.339 105.035 276.343 105.065C276.348 105.095 276.347 105.126 276.34 105.156C276.333 105.185 276.32 105.213 276.302 105.238C276.284 105.262 276.261 105.283 276.235 105.299C276.21 105.315 276.182 105.326 276.152 105.331C276.122 105.336 276.092 105.335 276.062 105.328C276.033 105.322 276.006 105.309 275.981 105.291C275.957 105.274 275.936 105.251 275.921 105.226Z" fill="#446997"/>
<path d="M278.671 110.714L272.27 100.223C272.023 99.8187 271.495 99.6909 271.09 99.9377L256.08 109.096C255.676 109.343 255.548 109.871 255.795 110.276L262.196 120.766C262.442 121.171 262.97 121.299 263.375 121.052L278.385 111.893C278.79 111.646 278.918 111.118 278.671 110.714Z" fill="#162F4C"/>
<path d="M284.198 108.86L277.632 98.1279L262.932 107.121L269.498 117.853L284.198 108.86Z" fill="#ABE0F9"/>
<path d="M270.036 117.254L269.336 116.107L268.188 116.807L268.888 117.955L270.036 117.254Z" fill="#5B93B7"/>
<path d="M274.02 114.851L273.021 113.213L271.873 113.913L272.873 115.552L274.02 114.851Z" fill="#5B93B7"/>
<path d="M271.129 116.617L270.096 114.924L268.948 115.624L269.981 117.317L271.129 116.617Z" fill="white"/>
<path d="M277.645 112.508L275.561 107.867L269.766 110.469L271.85 115.11L277.645 112.508Z" fill="#E6F5FC"/>
<g style="mix-blend-mode:multiply" opacity="0.43">
<path d="M276.782 112.799L276.556 112.907L276.293 111.715L276.782 112.799Z" fill="#6EC8E5"/>
</g>
<path d="M262.395 118.389L256.993 109.513L271.691 100.542L278.047 110.972L264.899 118.993L262.395 118.389Z" fill="white"/>
<path d="M276.165 113.094L275.704 112.068C275.667 111.983 275.664 111.888 275.697 111.801C275.729 111.715 275.795 111.645 275.879 111.607V111.607C275.963 111.569 276.059 111.567 276.146 111.599C276.232 111.632 276.302 111.698 276.34 111.782L276.912 113.053C276.95 113.137 276.952 113.233 276.92 113.319C276.887 113.406 276.821 113.476 276.737 113.514L276.645 113.555C276.558 113.595 276.46 113.6 276.37 113.568C276.279 113.537 276.205 113.472 276.162 113.387L276.057 113.151" stroke="#9CC1E6" stroke-width="0.23" stroke-miterlimit="10"/>
<path d="M277.085 107.413L274.48 103.143C274.33 102.897 274.009 102.819 273.763 102.969L273.343 103.226C273.097 103.376 273.019 103.696 273.169 103.942L275.775 108.212C275.925 108.458 276.245 108.536 276.491 108.386L276.912 108.129C277.157 107.979 277.235 107.658 277.085 107.413Z" fill="#EF8774"/>
<path d="M262.618 118.751L263.749 118.058L264.439 119.186L262.757 118.964L262.618 118.751Z" fill="#B8CCEA"/>
<path d="M262.754 118.977L263.886 118.284L264.575 119.412L262.754 118.977Z" fill="white"/>
<path d="M282.072 104.965L280.094 101.731L279.062 102.363L281.04 105.596L282.072 104.965Z" fill="#446997"/>
<path d="M274.566 103.286L276.991 107.26C277.087 107.417 277.116 107.606 277.073 107.784C277.03 107.963 276.917 108.117 276.761 108.213L276.042 108.651L272.897 103.497L273.616 103.058C273.772 102.963 273.96 102.933 274.138 102.976C274.316 103.019 274.47 103.13 274.566 103.286Z" fill="#5B93B7"/>
<path d="M270.689 108.146L273.232 112.316" stroke="#9CC1E6" stroke-width="0.23" stroke-miterlimit="10"/>
<path d="M269.952 108.597L272.495 112.767" stroke="#9CC1E6" stroke-width="0.23" stroke-miterlimit="10"/>
<path d="M265.678 105.184L271.1 114.066" stroke="#B7DFF2" stroke-width="0.11" stroke-miterlimit="10"/>
<path d="M270.652 114.296L265.256 105.452L258.895 109.334L264.291 118.178L270.652 114.296Z" stroke="#9CC1E6" stroke-width="0.11" stroke-miterlimit="10"/>
<path d="M270.654 114.289L265.257 105.445L264.87 105.682L270.266 114.526L270.654 114.289Z" fill="#9CC1E6"/>
<g style="mix-blend-mode:multiply" opacity="0.15">
<path d="M267.672 109.407L266.831 108.029L260.461 111.915L261.302 113.294L267.672 109.407Z" fill="#9CC1E6"/>
</g>
<g style="mix-blend-mode:multiply" opacity="0.15">
<path d="M269.461 112.336L268.62 110.958L262.251 114.845L263.092 116.223L269.461 112.336Z" fill="#9CC1E6"/>
</g>
<path d="M271.812 105.572L270.777 103.881C270.76 103.853 270.723 103.844 270.694 103.861L270.648 103.889C270.62 103.906 270.611 103.944 270.628 103.972L271.663 105.663C271.68 105.691 271.717 105.7 271.746 105.683L271.791 105.655C271.82 105.637 271.829 105.6 271.812 105.572Z" fill="white"/>
<path d="M272.242 109.686L271.601 108.638C271.584 108.609 271.547 108.6 271.518 108.618L271.472 108.646C271.444 108.663 271.435 108.7 271.452 108.729L272.094 109.777C272.111 109.805 272.148 109.814 272.176 109.797L272.222 109.769C272.251 109.751 272.26 109.714 272.242 109.686Z" fill="#9CC1E6"/>
<path d="M265.695 112.674L265.052 111.622C265.035 111.593 264.998 111.584 264.969 111.602L264.923 111.63C264.895 111.647 264.886 111.684 264.903 111.713L265.545 112.765C265.563 112.794 265.6 112.803 265.628 112.785L265.674 112.757C265.703 112.74 265.712 112.703 265.695 112.674Z" fill="#9CC1E6"/>
<path d="M264.949 108.452L263.913 106.754C263.895 106.725 263.858 106.716 263.83 106.734L263.784 106.762C263.755 106.779 263.746 106.816 263.764 106.845L264.8 108.543C264.817 108.571 264.854 108.58 264.883 108.563L264.929 108.535C264.957 108.518 264.966 108.48 264.949 108.452Z" fill="white"/>
<path d="M267.791 113.121L267.156 112.079C267.138 112.05 267.101 112.041 267.073 112.059L267.027 112.087C266.998 112.104 266.989 112.141 267.006 112.17L267.642 113.212C267.659 113.24 267.697 113.249 267.725 113.232L267.771 113.204C267.8 113.186 267.809 113.149 267.791 113.121Z" fill="white"/>
<path d="M264.198 108.886L263.162 107.187C263.145 107.159 263.108 107.15 263.079 107.167L263.033 107.195C263.004 107.213 262.995 107.25 263.013 107.278L264.049 108.977C264.066 109.005 264.103 109.014 264.132 108.997L264.178 108.969C264.207 108.951 264.216 108.914 264.198 108.886Z" fill="white"/>
<path d="M263.471 109.35L262.434 107.652C262.417 107.623 262.38 107.614 262.351 107.632L262.305 107.66C262.277 107.677 262.268 107.714 262.285 107.743L263.321 109.441C263.339 109.469 263.376 109.478 263.404 109.461L263.45 109.433C263.479 109.416 263.488 109.378 263.471 109.35Z" fill="white"/>
<path d="M270.445 106.64C270.697 106.486 270.898 106.261 271.022 105.992C271.146 105.724 271.188 105.425 271.142 105.134C271.096 104.842 270.965 104.57 270.765 104.353C270.564 104.136 270.304 103.983 270.017 103.913C269.73 103.844 269.429 103.861 269.151 103.963C268.874 104.065 268.633 104.247 268.459 104.486C268.285 104.725 268.186 105.01 268.174 105.305C268.162 105.6 268.238 105.892 268.392 106.144C268.599 106.482 268.931 106.724 269.316 106.817C269.701 106.91 270.107 106.846 270.445 106.64Z" fill="#9CC1E6"/>
<path d="M262.03 112.408C262.609 114.089 263.324 115.721 264.169 117.286C264.575 118.036 266.132 120.21 266.33 119.987C266.587 119.692 264.963 117.407 265.122 117.445C265.281 117.483 266.87 120.003 267.159 119.879C267.448 119.755 265.824 117.474 265.955 117.337C266.085 117.2 267.607 119.797 267.96 119.6C268.313 119.403 266.724 116.87 266.949 116.822C267.175 116.774 268.379 119.329 268.827 119.231C269.275 119.132 267.391 114.868 267.362 114.693C267.334 114.518 269.698 115.208 269.838 115.116C269.978 115.023 269.682 114.48 269.682 114.48C268.382 113.453 268.58 114.632 265.58 111.038L261.814 102.845C261.178 101.72 260.924 101.813 261.652 100.745L264.397 96.7055L257.612 92.7998L254.555 99.5815C254.348 100.151 254.298 100.766 254.41 101.362C254.522 101.958 254.791 102.513 255.191 102.969L262.03 112.408Z" fill="#F49C6E"/>
<path d="M270.073 71.6919C270.073 71.6919 272.66 73.7638 273.696 73.6621C274.732 73.5604 275.87 72.9027 276.493 73.2809C277.115 73.6591 278.495 73.6272 278.495 73.6272C278.495 73.6272 278.323 76.8719 276.562 77.4217C274.802 77.9715 272.936 77.2501 271.796 76.5954C270.655 75.9407 269.666 74.4884 269.666 74.4884C269.666 74.4884 271.036 75.7311 271.589 75.836C272.142 75.9408 272.933 74.6283 272.657 74.0754C272.38 73.5224 270.413 72.2448 270.413 72.2448L270.073 71.6919Z" fill="#F9F8F3"/>
<path d="M273.785 92.7583H269.943V94.2678H273.785V92.7583Z" stroke="#FBF3E2" stroke-width="0.63" stroke-miterlimit="10"/>
<path d="M200.596 123.455C200.72 124.328 200.809 124.853 200.809 124.853C200.809 124.853 201.791 129.836 204.88 132.305C205.332 132.667 203.927 131.546 203.927 131.546C203.927 131.546 205.935 133.135 206.32 133.179C206.704 133.224 204.747 131.39 204.747 131.39C204.747 131.39 206.886 133.347 207.289 133.189C207.693 133.03 205.7 130.608 205.7 130.608C205.7 130.608 207.518 132.858 207.925 132.731C208.332 132.604 205.382 126.172 206.437 126.772C206.787 126.972 208.548 128.574 209.088 128.272C209.628 127.97 206.186 124.106 206.186 124.106C206.186 124.106 205.986 122.39 205.999 122.231L200.596 123.455Z" fill="#F49C6E"/>
<path d="M227.24 178.033L228.985 185.625H240.601V184.706L233.997 180.871L233.186 178.173L227.24 178.033Z" fill="#F49C6E"/>
<path d="M234.08 180.871L232.112 182.974C231.996 183.106 231.853 183.213 231.694 183.287C231.534 183.361 231.361 183.401 231.185 183.405C231.009 183.408 230.834 183.375 230.672 183.308C230.509 183.24 230.362 183.14 230.241 183.013L228.016 180.788L229.077 185.628H240.693V184.71L234.08 180.871Z" fill="white" stroke="white" stroke-miterlimit="10"/>
<path d="M211.306 177.95L209.561 185.542H197.946V184.624L204.55 180.788L205.058 178.09L211.306 177.95Z" fill="#F49C6E"/>
<path d="M204.426 180.785L206.39 182.889C206.506 183.021 206.648 183.128 206.808 183.202C206.967 183.276 207.141 183.317 207.317 183.321C207.493 183.325 207.667 183.292 207.83 183.225C207.993 183.157 208.14 183.057 208.262 182.93L210.486 180.706L209.428 185.542H197.819V184.624L204.426 180.785Z" fill="white" stroke="white" stroke-miterlimit="10"/>
<path d="M227.45 116.517L233.85 179.641L227.475 179.743L218.447 132.315C217.811 130.821 217.039 131.679 216.893 132.493L211.017 179.692L204.731 179.241C204.731 179.241 204.095 144.982 206.905 116.085L227.45 116.517Z" fill="#263238"/>
<path d="M231.582 96.5849C229.656 107.282 228.804 116.889 228.804 116.889L205.897 116.52L203.816 83.9874C206.631 81.5086 210.531 80.1325 213.394 80.0308L220.618 79.8242C220.618 79.8242 224.329 80.3423 227.507 80.8794C230.193 81.3307 231.34 82.4239 232.726 84.766" fill="#0477BD"/>
<path opacity="0.38" d="M228.804 116.889L205.897 116.52L203.816 83.9873" fill="#132F54"/>
<path d="M208.675 98.5647C208.465 98.3549 207.124 125.79 206.45 125.495L200.364 125.177C200.364 125.177 200.047 102.597 201.318 90.6611C201.318 90.6611 202.271 83.9873 204.925 83.3008C207.578 82.6144 208.675 98.5647 208.675 98.5647Z" fill="#0477BD"/>
<path d="M208.675 98.5649C208.465 98.3551 207.404 123.846 206.73 123.553L198.957 122.301C198.957 122.301 200.066 102.598 201.318 90.6518C201.318 90.6518 202.271 83.978 204.925 83.2915C207.578 82.6051 208.675 98.5649 208.675 98.5649Z" fill="white"/>
<path d="M220.414 72.5913L221.793 80.2375L217.42 82.3127C217.42 82.3127 214.627 81.8963 213.324 80.3677L214.065 72.82L220.414 72.5913Z" fill="#F49C6E"/>
<path d="M212.053 68.8474L213.343 68.4819L213.645 70.0233L212.355 70.3856C212.26 70.4114 212.161 70.4167 212.064 70.4016C211.968 70.3864 211.875 70.351 211.793 70.2976C211.711 70.2442 211.641 70.174 211.587 70.0917C211.534 70.0094 211.499 69.9167 211.484 69.8198C211.443 69.6162 211.478 69.4044 211.583 69.2251C211.688 69.0457 211.855 68.9112 212.053 68.8474Z" fill="#F49C6E" stroke="#F49C6E" stroke-width="2.02" stroke-miterlimit="10"/>
<path d="M222.251 68.4372L220.935 68.6152L220.827 67.0262L222.143 66.8482C222.241 66.8371 222.34 66.8467 222.434 66.8762C222.528 66.9056 222.614 66.9543 222.688 67.0192C222.762 67.0842 222.822 67.1639 222.863 67.2532C222.904 67.3426 222.926 67.4394 222.928 67.5378C222.948 67.7453 222.89 67.9527 222.765 68.1193C222.639 68.2858 222.456 68.3992 222.251 68.4372Z" fill="#F49C6E" stroke="#F49C6E" stroke-width="2.02" stroke-miterlimit="10"/>
<path d="M217.258 74.269H217.23C214.128 74.3993 212.809 72.3114 212.758 69.6673V69.4672C212.708 66.8231 214.144 62.5964 216.591 62.4026V62.3739C219.041 62.1832 221.584 66.1271 221.634 68.768V68.9714C221.679 71.6218 220.741 74.0498 217.258 74.269Z" fill="#F49C6E"/>
<path d="M217.484 72.5434C216.407 72.6419 215.514 71.965 215.488 71.0338V70.9067L219.394 70.5571V70.6844C219.416 71.6155 218.565 72.4607 217.484 72.5434Z" fill="white"/>
<path d="M216.311 68.6094C216.311 68.8033 216.2 68.959 216.057 68.959C215.914 68.959 215.8 68.8034 215.8 68.6127C215.8 68.422 215.914 68.263 216.054 68.2598C216.194 68.2566 216.311 68.4156 216.311 68.6094Z" fill="#263238"/>
<path d="M218.612 68.3644C218.612 68.5583 218.498 68.714 218.355 68.714C218.212 68.714 218.101 68.5552 218.101 68.3613C218.101 68.1675 218.218 68.0117 218.358 68.0117C218.498 68.0117 218.615 68.1706 218.612 68.3644Z" fill="#263238"/>
<path d="M217.78 70.0359L216.871 70.0836C216.76 70.0836 216.677 69.9533 216.718 69.8261L217.071 68.6917C217.077 68.6611 217.092 68.6332 217.114 68.6121C217.137 68.5909 217.166 68.5777 217.197 68.5745C217.228 68.5713 217.259 68.5782 217.285 68.5942C217.312 68.6102 217.333 68.6342 217.344 68.663L217.901 69.7499C217.916 69.7758 217.926 69.805 217.928 69.8353C217.931 69.8656 217.926 69.8961 217.914 69.9241C217.902 69.952 217.884 69.9767 217.86 69.9962C217.837 70.0157 217.809 70.0293 217.78 70.0359Z" fill="#D14B28"/>
<path d="M214.853 67.63C214.602 67.8461 214.932 66.9532 215.291 66.8165C215.449 66.7449 215.628 66.738 215.79 66.7974C215.953 66.8569 216.085 66.978 216.159 67.1343C215.679 67.1413 215.216 67.3166 214.853 67.63Z" fill="#263238"/>
<path d="M219.064 66.9402C219.356 67.096 218.832 66.3047 218.45 66.2507C218.281 66.2167 218.105 66.2506 217.961 66.3452C217.816 66.4397 217.715 66.5872 217.678 66.7559C218.147 66.6534 218.637 66.7186 219.064 66.9402Z" fill="#263238"/>
<path d="M220.945 63.8137C220.916 63.747 220.885 63.6802 220.853 63.6167C221.171 63.4737 221.727 59.8953 221.139 60.0384C213.88 61.8085 214.316 58.4493 212.066 63.801C212.042 63.8535 212.03 63.9103 212.03 63.9678C212.03 64.0253 212.042 64.0822 212.066 64.1346C212.024 64.2195 211.987 64.3066 211.955 64.3953C211.726 65.0588 211.665 65.7683 211.777 66.461C211.821 66.7788 212.412 68.6443 212.73 68.6856C212.867 68.6856 213.607 66.2957 214.049 64.9737C214.874 65.0784 215.709 65.0784 216.534 64.9737C217.493 64.8299 218.434 64.5881 219.343 64.2523C219.979 65.0944 221.282 66.7724 221.501 66.7946C221.72 66.8169 221.142 64.2714 220.945 63.8137Z" fill="#263238"/>
<path d="M212.11 79.9258L213.464 77.5327L217.526 82.2171L215.616 86.2087L212.11 79.9258Z" fill="#3B98D4"/>
<path d="M222.801 79.9258L221.447 77.5327L217.386 82.2171L219.642 86.1387L222.801 79.9258Z" fill="#3B98D4"/>
<path d="M212.727 68.6728C212.727 68.6728 215.148 70.1473 216.102 69.9185C217.055 69.6897 217.055 69.0763 218.301 69.6611C219.547 70.2458 221.479 66.75 221.479 66.75C221.479 66.75 220.827 68.7077 221.892 68.6728C221.892 68.6728 221.412 74.1389 217.891 74.5044C214.37 74.8698 212.609 70.6177 212.609 70.6177C212.764 70.5479 212.899 70.4403 213.002 70.3049C213.104 70.1694 213.172 70.0102 213.197 69.8422C213.292 69.2511 212.708 68.6664 212.708 68.6664" fill="#F9F8F3"/>
<path d="M213.048 78.499C212.285 78.6389 214.503 131.67 214.503 131.67L203.676 131.879L203.994 85.9831C203.982 84.6477 204.406 83.345 205.202 82.2729C205.998 81.2008 207.123 80.4179 208.405 80.0435L213.048 78.499Z" fill="white"/>
<path d="M221.724 77.7393L220.335 130.633H231.998L230.886 81.4892L221.724 77.7393Z" fill="white"/>
<path d="M211.729 79.0586L209.367 86.2788L211.242 87.7344L209.784 91.0681L213.394 105.226" stroke="#032538" stroke-width="0.72" stroke-miterlimit="10"/>
<path d="M223.599 78.4351L225.124 84.8895L223.182 86.971L224.708 89.1225L221.168 105.019" stroke="#032538" stroke-width="0.72" stroke-miterlimit="10"/>
<path d="M228.664 95.0337H224.221V95.8567H228.664V95.0337Z" stroke="#032538" stroke-width="0.6" stroke-miterlimit="10"/>
<path d="M233.524 117.119L232.887 118.201L233.969 118.838L234.605 117.756L233.524 117.119Z" fill="#213666"/>
<path d="M219.83 120.574L217.443 124.6C217.306 124.831 217.382 125.129 217.613 125.266L218.012 125.503C218.243 125.64 218.541 125.563 218.678 125.332L221.066 121.307C221.203 121.076 221.126 120.777 220.896 120.641L220.496 120.404C220.266 120.267 219.967 120.343 219.83 120.574Z" fill="#3D83C1"/>
<path d="M220.401 117.229L220.335 117.343C220.269 117.452 220.225 117.573 220.207 117.699C220.188 117.825 220.195 117.953 220.227 118.076C220.259 118.2 220.316 118.315 220.393 118.416C220.47 118.518 220.567 118.602 220.678 118.665H220.697L221.742 116.889C221.633 116.819 221.511 116.773 221.383 116.753C221.255 116.733 221.124 116.739 220.999 116.771C220.873 116.802 220.756 116.859 220.653 116.938C220.55 117.017 220.465 117.116 220.401 117.229ZM220.977 117.642C220.956 117.679 220.925 117.709 220.887 117.728C220.849 117.747 220.806 117.755 220.764 117.75C220.722 117.744 220.683 117.727 220.651 117.699C220.619 117.671 220.596 117.634 220.585 117.593C220.574 117.552 220.575 117.509 220.589 117.469C220.603 117.429 220.629 117.394 220.663 117.368C220.696 117.343 220.737 117.328 220.78 117.326C220.822 117.323 220.864 117.334 220.9 117.356C220.948 117.384 220.983 117.429 220.997 117.483C221.012 117.537 221.004 117.594 220.977 117.642Z" fill="#516CA5"/>
<path d="M224.323 112.871L218.491 122.776C218.266 123.159 218.393 123.651 218.776 123.877L232.948 132.221C233.33 132.446 233.823 132.319 234.048 131.936L239.881 122.031C240.106 121.648 239.978 121.156 239.596 120.93L225.424 112.586C225.041 112.36 224.548 112.488 224.323 112.871Z" fill="#6EC8E5"/>
<path d="M222.798 116.586L220.992 119.653L221.972 120.23L223.778 117.163L222.798 116.586Z" fill="#516CA5"/>
<path d="M220.004 119.525L222.214 115.77C222.3 115.625 222.44 115.52 222.603 115.478C222.766 115.435 222.939 115.46 223.085 115.545L223.764 115.945L220.902 120.806L220.223 120.406C220.15 120.363 220.086 120.306 220.035 120.238C219.985 120.171 219.948 120.093 219.928 120.011C219.908 119.929 219.904 119.844 219.917 119.761C219.93 119.677 219.959 119.597 220.004 119.525Z" fill="#213666"/>
<path d="M234.995 123.038C234.871 123.912 234.782 124.436 234.782 124.436C234.782 124.436 233.8 129.419 230.72 131.889C230.269 132.248 231.674 131.129 231.674 131.129C231.674 131.129 229.665 132.718 229.281 132.763C228.896 132.807 230.854 130.973 230.854 130.973C230.854 130.973 228.715 132.931 228.312 132.772C227.908 132.613 229.885 130.192 229.885 130.192C229.885 130.192 228.067 132.438 227.66 132.314C227.253 132.191 230.202 125.755 229.147 126.356C228.798 126.556 227.037 128.158 226.497 127.856C225.957 127.554 229.398 123.69 229.398 123.69C229.398 123.69 229.599 121.973 229.586 121.814L234.995 123.038Z" fill="#F49C6E"/>
<path d="M227.425 88.7224C227.197 90.2132 227.32 91.7366 227.784 93.1715C228.661 95.8918 230.097 100.888 230.291 103.977C230.8 111.998 228.744 123.728 229.176 123.54L235.214 125.205C235.214 125.205 238.134 114.064 237.922 104.59C237.791 98.8283 233.333 82.0265 230.695 81.3368C228.912 80.876 227.892 85.627 227.425 88.7224Z" fill="#0477BD"/>
<path d="M227.425 88.7224C227.197 90.2132 227.32 91.7366 227.784 93.1715C228.661 95.8918 230.097 100.888 230.291 103.977C230.8 111.998 227.92 120.953 228.353 120.763L237.515 122.428C237.515 122.428 239.673 113.301 239.46 103.824C239.329 98.0624 233.342 82.0296 230.704 81.3368C228.912 80.876 227.892 85.627 227.425 88.7224Z" fill="white" stroke="white" stroke-miterlimit="10"/>
<path d="M214.538 92.5232C214.538 92.1801 214.436 91.8446 214.246 91.5593C214.055 91.2739 213.784 91.0515 213.467 90.9201C213.15 90.7888 212.801 90.7545 212.465 90.8214C212.128 90.8884 211.819 91.0536 211.576 91.2963C211.333 91.5389 211.168 91.8482 211.101 92.1848C211.034 92.5214 211.069 92.8702 211.2 93.1872C211.331 93.5043 211.554 93.7754 211.839 93.966C212.124 94.1567 212.46 94.2584 212.803 94.2584C213.263 94.2584 213.705 94.0756 214.03 93.7502C214.355 93.4248 214.538 92.9834 214.538 92.5232Z" fill="#122012"/>
<path d="M212.803 93.4609C213.321 93.4609 213.74 93.0411 213.74 92.5233C213.74 92.0056 213.321 91.5859 212.803 91.5859C212.285 91.5859 211.865 92.0056 211.865 92.5233C211.865 93.0411 212.285 93.4609 212.803 93.4609Z" fill="#3B98D4"/>
<path d="M218.685 98.1608L218.568 97.9732C218.32 97.5764 218.237 97.0988 218.336 96.6416L219.68 90.5431C219.845 89.7969 220.299 89.1467 220.944 88.7355C221.588 88.3243 222.369 88.1858 223.115 88.3504V88.3504C223.485 88.4313 223.835 88.5843 224.145 88.8007C224.456 89.0171 224.72 89.2926 224.924 89.6115C225.128 89.9303 225.267 90.2862 225.332 90.6587C225.398 91.0313 225.39 91.4131 225.308 91.7825L223.973 97.8397C223.921 98.0779 223.82 98.3026 223.677 98.5C223.533 98.6974 223.351 98.8633 223.141 98.9871L223.02 99.0602" stroke="#122012" stroke-width="1.44" stroke-miterlimit="10"/>
<path d="M219.178 98.1353L218.482 98.5802C218.456 98.54 218.438 98.4951 218.43 98.448C218.422 98.4009 218.423 98.3527 218.433 98.306C218.443 98.2593 218.463 98.2151 218.49 98.176C218.518 98.1369 218.553 98.1036 218.593 98.0781L218.676 98.0241C218.757 97.9727 218.856 97.9556 218.95 97.9764C219.044 97.9973 219.126 98.0544 219.178 98.1353Z" fill="#122012"/>
<path d="M222.988 99.575L222.54 98.8759C222.622 98.8244 222.721 98.8071 222.816 98.828C222.91 98.8488 222.993 98.906 223.045 98.9872L223.1 99.0697C223.151 99.1517 223.168 99.2506 223.147 99.3451C223.127 99.4397 223.069 99.5222 222.988 99.575Z" fill="#122012"/>
<path d="M213.559 77.3931C213.559 77.3931 210.852 77.8793 211.373 82.6685C211.894 87.4577 212.517 90.998 212.517 90.998" stroke="#122012" stroke-width="1.44" stroke-miterlimit="10"/>
<path d="M221.132 76.6619C221.132 76.6619 226.027 76.004 223.284 88.29" stroke="#122012" stroke-width="1.44" stroke-miterlimit="10"/>
<path d="M129.903 53.2435C129.903 52.9203 129.808 52.6043 129.629 52.3353C129.45 52.0663 129.195 51.8563 128.897 51.7321C128.598 51.608 128.27 51.5753 127.952 51.638C127.635 51.7006 127.344 51.8559 127.115 52.0842C126.887 52.3126 126.731 52.6037 126.667 52.9206C126.604 53.2376 126.636 53.5662 126.76 53.8649C126.883 54.1635 127.093 54.4187 127.361 54.5984C127.63 54.778 127.946 54.874 128.269 54.874C128.702 54.874 129.117 54.7023 129.423 54.3966C129.729 54.091 129.902 53.6762 129.903 53.2435Z" fill="#F48560"/>
<path d="M179.577 110.752C179.577 110.429 179.481 110.113 179.302 109.844C179.122 109.576 178.867 109.366 178.568 109.243C178.27 109.119 177.941 109.087 177.624 109.15C177.307 109.214 177.016 109.369 176.788 109.598C176.559 109.827 176.404 110.118 176.341 110.435C176.279 110.752 176.312 111.081 176.436 111.379C176.56 111.678 176.77 111.933 177.039 112.112C177.308 112.291 177.624 112.386 177.947 112.386C178.161 112.386 178.374 112.343 178.572 112.261C178.77 112.179 178.95 112.059 179.101 111.907C179.252 111.755 179.372 111.575 179.454 111.377C179.536 111.179 179.578 110.967 179.577 110.752Z" fill="#F48560"/>
<path d="M255.693 78.5369C255.693 78.2138 255.597 77.8979 255.417 77.6293C255.238 77.3606 254.983 77.1513 254.684 77.0277C254.386 76.904 254.057 76.8717 253.741 76.9347C253.424 76.9977 253.133 77.1533 252.904 77.3818C252.676 77.6102 252.52 77.9013 252.457 78.2182C252.394 78.535 252.426 78.8634 252.55 79.1619C252.674 79.4604 252.883 79.7155 253.152 79.895C253.42 80.0745 253.736 80.1702 254.059 80.1702C254.492 80.1702 254.908 79.9982 255.214 79.6918C255.521 79.3855 255.693 78.9701 255.693 78.5369Z" fill="#F48560"/>
<path d="M268.586 171.314C268.586 170.991 268.491 170.675 268.312 170.406C268.133 170.137 267.878 169.927 267.58 169.803C267.281 169.679 266.953 169.646 266.636 169.709C266.319 169.771 266.027 169.927 265.798 170.155C265.57 170.383 265.414 170.674 265.35 170.991C265.287 171.308 265.319 171.637 265.443 171.936C265.566 172.234 265.776 172.49 266.045 172.669C266.313 172.849 266.629 172.945 266.952 172.945C267.385 172.945 267.8 172.773 268.106 172.467C268.413 172.162 268.585 171.747 268.586 171.314Z" fill="#F48560"/>
<path d="M247.837 132.921C249.462 132.921 250.78 131.604 250.78 129.979C250.78 128.353 249.462 127.036 247.837 127.036C246.211 127.036 244.894 128.353 244.894 129.979C244.894 131.604 246.211 132.921 247.837 132.921Z" fill="#F48560"/>
<path d="M129.702 81.3783C131.328 81.3783 132.645 80.0608 132.645 78.4356C132.645 76.8103 131.328 75.4927 129.702 75.4927C128.077 75.4927 126.76 76.8103 126.76 78.4356C126.76 80.0608 128.077 81.3783 129.702 81.3783Z" fill="#F48560"/>
<path d="M77.2208 159.899C78.7986 159.509 79.7616 157.914 79.3717 156.336C78.9818 154.758 77.3867 153.795 75.8089 154.185C74.2311 154.575 73.2681 156.17 73.6579 157.748C74.0478 159.326 75.643 160.289 77.2208 159.899Z" fill="#F48560"/>
<path d="M200.062 73.9007C201.688 73.9007 203.005 72.5831 203.005 70.9579C203.005 69.3326 201.688 68.0151 200.062 68.0151C198.437 68.0151 197.12 69.3326 197.12 70.9579C197.12 72.5831 198.437 73.9007 200.062 73.9007Z" fill="#F48560"/>
<g style="mix-blend-mode:multiply">
<path d="M45.5687 186.086H329.431" stroke="#B7B7B7" stroke-width="4.14" stroke-miterlimit="10" stroke-linecap="round"/>
</g>
<defs>
<radialGradient id="paint0_radial_453_11522" cx="0" cy="0" r="1" gradientUnits="userSpaceOnUse" gradientTransform="translate(2017.91 21470.4) scale(260.519 260.526)">
<stop stop-color="#F7A620"/>
<stop offset="1" stop-color="#F0637B"/>
</radialGradient>
<radialGradient id="paint1_radial_453_11522" cx="0" cy="0" r="1" gradientUnits="userSpaceOnUse" gradientTransform="translate(3155 25343.3) scale(420.421 307.881)">
<stop stop-color="#F7A620"/>
<stop offset="1" stop-color="#F0637B"/>
</radialGradient>
<radialGradient id="paint2_radial_453_11522" cx="0" cy="0" r="1" gradientUnits="userSpaceOnUse" gradientTransform="translate(1663.4 20569) scale(357.121 417.123)">
<stop stop-color="#F7A620"/>
<stop offset="1" stop-color="#F0637B"/>
</radialGradient>
<radialGradient id="paint3_radial_453_11522" cx="0" cy="0" r="1" gradientUnits="userSpaceOnUse" gradientTransform="translate(1730.63 20656.7) scale(372.328 418.914)">
<stop stop-color="#F7A620"/>
<stop offset="1" stop-color="#F0637B"/>
</radialGradient>
<radialGradient id="paint4_radial_453_11522" cx="0" cy="0" r="1" gradientUnits="userSpaceOnUse" gradientTransform="translate(1776.54 20726.4) scale(381.344 420.336)">
<stop stop-color="#F7A620"/>
<stop offset="1" stop-color="#F0637B"/>
</radialGradient>
<radialGradient id="paint5_radial_453_11522" cx="0" cy="0" r="1" gradientUnits="userSpaceOnUse" gradientTransform="translate(1393.29 20499.2) scale(288.562 415.698)">
<stop stop-color="#F7A620"/>
<stop offset="1" stop-color="#F0637B"/>
</radialGradient>
<radialGradient id="paint6_radial_453_11522" cx="0" cy="0" r="1" gradientUnits="userSpaceOnUse" gradientTransform="translate(1747 20654.6) scale(372.671 418.871)">
<stop stop-color="#F7A620"/>
<stop offset="1" stop-color="#F0637B"/>
</radialGradient>
<radialGradient id="paint7_radial_453_11522" cx="0" cy="0" r="1" gradientUnits="userSpaceOnUse" gradientTransform="translate(2612.3 28834.5) scale(585.895 585.889)">
<stop stop-color="#F7A620"/>
<stop offset="1" stop-color="#F0637B"/>
</radialGradient>
<radialGradient id="paint8_radial_453_11522" cx="0" cy="0" r="1" gradientUnits="userSpaceOnUse" gradientTransform="translate(2213.74 28835.3) scale(487.206 585.906)">
<stop stop-color="#F7A620"/>
<stop offset="1" stop-color="#F0637B"/>
</radialGradient>
</defs>
</svg>
