<svg width="375" height="215" viewBox="0 0 375 215" fill="none" xmlns="http://www.w3.org/2000/svg">
<path d="M375 0H0V214.096H375V0Z" fill="#F4FBFD"/>
<g style="mix-blend-mode:multiply">
<path d="M45.5687 186.086H329.431" stroke="#B7B7B7" stroke-width="4.14" stroke-miterlimit="10" stroke-linecap="round"/>
</g>
<g style="mix-blend-mode:multiply">
<g style="mix-blend-mode:multiply">
<path d="M135.238 89.4341H113.577V89.717H135.238V89.4341Z" fill="#CCDAEF"/>
</g>
<g style="mix-blend-mode:multiply">
<path d="M125.034 82.2456H113.577V82.5285H125.034V82.2456Z" fill="#CCDAEF"/>
</g>
<g style="mix-blend-mode:multiply">
<path d="M147.242 96.5493H113.577V96.832H147.242V96.5493Z" fill="#CCDAEF"/>
</g>
<g style="mix-blend-mode:multiply">
<path d="M119.304 82.4585H119.021V89.5009H119.304V82.4585Z" fill="#CCDAEF"/>
</g>
<g style="mix-blend-mode:multiply">
<path d="M129.775 89.5737H129.493V96.6162H129.775V89.5737Z" fill="#CCDAEF"/>
</g>
<g style="mix-blend-mode:multiply">
<path d="M119.282 96.6162H118.999V103.658H119.282V96.6162Z" fill="#CCDAEF"/>
</g>
<g style="mix-blend-mode:multiply">
<path d="M254.317 120.479H226.869V120.762H254.317V120.479Z" fill="#CCDAEF"/>
</g>
<g style="mix-blend-mode:multiply">
<path d="M254.314 113.294H216.661V113.577H254.314V113.294Z" fill="#CCDAEF"/>
</g>
<g style="mix-blend-mode:multiply">
<path d="M254.314 127.595H216.947V127.878H254.314V127.595Z" fill="#CCDAEF"/>
</g>
<g style="mix-blend-mode:multiply">
<path d="M237.788 120.692H237.505V127.735H237.788V120.692Z" fill="#CCDAEF"/>
</g>
<g style="mix-blend-mode:multiply">
<path d="M251.18 113.507H250.897V120.55H251.18V113.507Z" fill="#CCDAEF"/>
</g>
<g style="mix-blend-mode:multiply">
<path d="M229.907 113.507H229.624V120.55H229.907V113.507Z" fill="#CCDAEF"/>
</g>
<g style="mix-blend-mode:multiply">
<path d="M251.158 127.665H250.875V134.707H251.158V127.665Z" fill="#CCDAEF"/>
</g>
<g style="mix-blend-mode:multiply">
<path d="M145.732 138.807H113.577V139.09H145.732V138.807Z" fill="#CCDAEF"/>
</g>
<g style="mix-blend-mode:multiply">
<path d="M135.528 131.618H113.577V131.901H135.528V131.618Z" fill="#CCDAEF"/>
</g>
<g style="mix-blend-mode:multiply">
<path d="M157.732 145.919H113.577V146.202H157.732V145.919Z" fill="#CCDAEF"/>
</g>
<g style="mix-blend-mode:multiply">
<path d="M116.406 139.02H116.123V146.062H116.406V139.02Z" fill="#CCDAEF"/>
</g>
<g style="mix-blend-mode:multiply">
<path d="M129.798 131.832H129.515V138.874H129.798V131.832Z" fill="#CCDAEF"/>
</g>
<g style="mix-blend-mode:multiply">
<path d="M140.266 138.947H139.983V145.989H140.266V138.947Z" fill="#CCDAEF"/>
</g>
<g style="mix-blend-mode:multiply">
<path d="M129.775 145.989H129.493V153.032H129.775V145.989Z" fill="#CCDAEF"/>
</g>
</g>
<path d="M231.337 143.399H214.093C213.672 143.399 213.268 143.232 212.97 142.934C212.672 142.636 212.504 142.232 212.504 141.81C212.504 141.389 212.672 140.985 212.97 140.687C213.268 140.389 213.672 140.221 214.093 140.221H231.337C231.758 140.221 232.162 140.389 232.46 140.687C232.758 140.985 232.926 141.389 232.926 141.81C232.926 142.232 232.758 142.636 232.46 142.934C232.162 143.232 231.758 143.399 231.337 143.399Z" fill="#2B2936"/>
<path d="M227.552 141.957L241.405 185.387" stroke="#2B2936" stroke-width="4.66" stroke-linecap="round" stroke-linejoin="round"/>
<path d="M217.694 142.427L207.76 174.759" stroke="#2B2936" stroke-width="4.66" stroke-linecap="round" stroke-linejoin="round"/>
<path d="M230.485 86.8122C227.456 88.0262 224.383 88.7729 221.269 89.7422C219.815 90.1953 218.538 91.0871 217.611 92.2949C216.684 93.5028 216.154 94.9677 216.092 96.489C216.06 97.2453 216.137 98.0525 215.774 98.7136C215.342 99.5017 214.42 99.8704 213.775 100.5C213.076 101.183 212.822 102.181 212.634 103.141C211.363 109.55 215.412 111.403 215.545 112.376C224.002 112.811 228.289 110.485 236.746 109.97C237.035 108.654 238.881 102.902 238.942 101.558C239.039 100.209 238.784 98.8572 238.201 97.6363C237.905 97.0303 237.483 96.4946 236.963 96.0654C236.443 95.6361 235.837 95.3233 235.185 95.148C234.569 95.0081 233.851 94.9795 233.456 94.4869C233.324 94.2868 233.238 94.0601 233.203 93.8229C233.168 93.5858 233.185 93.3439 233.253 93.1141C233.392 92.6564 233.506 92.1917 233.596 91.722C233.63 91.4075 233.601 91.0894 233.511 90.7862C233.421 90.4829 233.271 90.2005 233.072 89.9551C232.671 89.4657 232.093 89.1543 231.648 88.7062C231.203 88.2581 230.889 87.5495 231.197 86.9965C231.098 86.9181 230.983 86.8611 230.86 86.8294C230.738 86.7977 230.61 86.7918 230.485 86.8122Z" fill="#263238"/>
<path d="M222.81 101.32C222.81 101.32 217.408 103.497 216.302 105.6C215.196 107.704 213.461 113.329 213.146 116.113C212.831 118.897 211.675 124.948 211.675 124.948L210.572 134.358L214.881 135.041C214.881 135.041 214.881 126.419 216.788 120.635C218.695 114.852 222.81 101.32 222.81 101.32Z" fill="#6882AF"/>
<path d="M217.255 108.947C215.638 111.383 214.702 114.207 214.545 117.127C214.417 119.539 214.827 121.964 214.583 124.369" stroke="#FBD6DE" stroke-width="0.39" stroke-linecap="round" stroke-linejoin="round"/>
<path d="M216.258 109.3C215.937 110.307 215.698 111.337 215.542 112.382" stroke="#FBD6DE" stroke-width="0.39" stroke-linecap="round" stroke-linejoin="round"/>
<path d="M207.731 161.695L208.653 167.189C208.653 167.189 210.149 167.374 211.411 165.375L211.675 161.17L207.731 161.695Z" fill="#F49C6E"/>
<path d="M213.381 172.63C212.542 173.762 211.255 177.655 210.362 178.57C210.13 178.794 209.846 178.957 209.536 179.043L209.374 179.091C208.29 179.371 206.876 179.123 206.552 178.411C206.266 177.775 206.838 176.383 207.391 174.89L207.419 174.804C207.72 174.039 207.957 173.25 208.128 172.446C208.192 172.087 208.252 171.702 208.3 171.302V171.21C208.344 170.87 208.382 170.523 208.411 170.186V170.097C208.443 169.751 208.471 169.411 208.494 169.09C208.495 169.06 208.495 169.031 208.494 169.001C208.573 167.873 208.598 167.008 208.598 167.008C210.146 167.218 211.44 165.27 211.44 165.27C211.44 165.27 211.97 165.798 212.619 166.481C212.644 166.504 212.667 166.528 212.688 166.554C213.475 167.329 214.191 168.171 214.83 169.071L214.884 169.169C214.91 169.22 214.932 169.274 214.948 169.328C215.17 170.161 214.227 171.502 213.381 172.63Z" fill="#2B2936"/>
<path d="M214.872 169.16C214.682 169.714 214.435 170.246 214.135 170.749C214.135 170.765 214.135 170.784 214.109 170.8C213.915 171.117 213.712 171.457 213.508 171.778C213.222 172.236 212.924 172.706 212.673 173.183C212.338 173.839 212.038 174.511 211.773 175.198C211.595 175.63 211.414 176.081 211.217 176.514C210.823 177.46 210.252 178.323 209.536 179.056L209.374 179.104C210.14 178.36 210.744 177.466 211.15 176.479C211.347 176.05 211.529 175.602 211.707 175.166C211.97 174.478 212.27 173.804 212.606 173.148C212.863 172.668 213.159 172.195 213.448 171.737C213.648 171.419 213.855 171.101 214.046 170.755C214.062 170.734 214.076 170.712 214.087 170.688C214.394 170.178 214.643 169.636 214.831 169.071L214.872 169.16Z" fill="#FDE7ED"/>
<path d="M211.678 175.189C211.673 175.198 211.665 175.205 211.655 175.209C211.645 175.213 211.634 175.212 211.624 175.208C210.298 174.587 208.791 174.474 207.388 174.89L207.416 174.804C208.823 174.395 210.329 174.508 211.659 175.122C211.666 175.124 211.672 175.127 211.676 175.132C211.681 175.137 211.685 175.143 211.687 175.15C211.689 175.157 211.689 175.164 211.687 175.17C211.686 175.177 211.683 175.183 211.678 175.189Z" fill="#FDE7ED"/>
<path d="M214.128 170.784H214.109C214.104 170.786 214.1 170.787 214.095 170.787C214.09 170.787 214.085 170.786 214.08 170.784L214.049 170.749C213.526 170.178 213.132 169.503 212.89 168.769C212.649 168.034 212.567 167.256 212.65 166.487C212.675 166.51 212.699 166.534 212.72 166.56C212.648 167.306 212.732 168.059 212.968 168.771C213.204 169.483 213.586 170.137 214.09 170.692L214.134 170.742C214.138 170.749 214.139 170.757 214.138 170.764C214.137 170.772 214.133 170.779 214.128 170.784Z" fill="#FDE7ED"/>
<path d="M210.381 170.768C210.382 170.773 210.381 170.779 210.379 170.784C210.378 170.789 210.375 170.793 210.371 170.797C210.368 170.801 210.363 170.804 210.359 170.806C210.354 170.808 210.348 170.81 210.343 170.809C209.638 170.842 208.945 171.009 208.303 171.302V171.21C208.944 170.927 209.631 170.766 210.331 170.733C210.336 170.731 210.342 170.73 210.348 170.731C210.354 170.732 210.36 170.734 210.365 170.738C210.37 170.741 210.374 170.746 210.377 170.751C210.38 170.756 210.381 170.762 210.381 170.768Z" fill="#FDE7ED"/>
<path d="M210.381 169.707C210.381 169.717 210.377 169.727 210.37 169.735C210.363 169.742 210.354 169.747 210.343 169.748C209.686 169.777 209.04 169.925 208.436 170.186V170.098C209.042 169.845 209.687 169.699 210.343 169.668C210.353 169.668 210.363 169.672 210.37 169.68C210.377 169.687 210.381 169.697 210.381 169.707Z" fill="#FDE7ED"/>
<path d="M210.381 168.648C210.381 168.658 210.377 168.668 210.37 168.675C210.363 168.682 210.353 168.686 210.343 168.686C209.715 168.715 209.097 168.852 208.516 169.09C208.517 169.06 208.517 169.031 208.516 169.001C209.095 168.769 209.71 168.636 210.334 168.61C210.339 168.609 210.345 168.609 210.351 168.61C210.357 168.611 210.362 168.614 210.367 168.617C210.372 168.621 210.375 168.626 210.378 168.631C210.38 168.636 210.382 168.642 210.381 168.648Z" fill="#FDE7ED"/>
<path d="M196.131 150.149L193.754 155.19C193.754 155.19 194.882 156.194 197.056 155.272L199.672 151.964L196.131 150.149Z" fill="#F48DA3"/>
<path d="M194.542 162.356C193.208 162.804 189.931 165.27 188.673 165.515C188.353 165.568 188.025 165.539 187.719 165.432L187.557 165.378C186.508 164.991 185.488 163.983 185.628 163.214C185.749 162.534 187.017 161.711 188.323 160.796C188.348 160.78 188.371 160.761 188.399 160.745C189.081 160.285 189.725 159.772 190.325 159.21C190.583 158.953 190.849 158.67 191.116 158.371L191.177 158.298C191.406 158.044 191.634 157.78 191.854 157.519L191.911 157.452C192.133 157.189 192.349 156.922 192.546 156.674C192.566 156.649 192.588 156.626 192.604 156.601C193.312 155.72 193.824 155.012 193.824 155.012C194.978 156.067 197.151 155.202 197.151 155.202C197.151 155.202 197.285 155.94 197.431 156.868C197.439 156.901 197.444 156.935 197.447 156.969C197.642 158.043 197.743 159.132 197.749 160.224C197.749 160.262 197.749 160.3 197.749 160.335C197.743 160.392 197.73 160.449 197.711 160.503C197.418 161.345 195.877 161.908 194.542 162.356Z" fill="#2B2936"/>
<path d="M197.743 160.351C197.273 160.696 196.768 160.991 196.236 161.231L196.185 161.256C195.842 161.418 195.486 161.574 195.137 161.72C194.641 161.93 194.129 162.149 193.646 162.397C192.999 162.746 192.37 163.126 191.762 163.538C191.371 163.795 190.964 164.062 190.554 164.304C189.692 164.857 188.732 165.24 187.726 165.432L187.564 165.378C188.617 165.204 189.623 164.815 190.519 164.234C190.926 163.996 191.33 163.732 191.724 163.474C192.334 163.06 192.965 162.677 193.614 162.327C194.101 162.079 194.612 161.86 195.108 161.65C195.458 161.498 195.814 161.348 196.16 161.183L196.233 161.151C196.774 160.906 197.286 160.6 197.759 160.239C197.752 160.277 197.749 160.316 197.743 160.351Z" fill="#FDE7ED"/>
<path d="M191.682 163.484C191.674 163.49 191.665 163.493 191.655 163.493C191.645 163.493 191.636 163.49 191.628 163.484C190.892 162.217 189.717 161.264 188.326 160.805C188.352 160.789 188.374 160.77 188.402 160.754C189.789 161.225 190.959 162.179 191.698 163.443C191.699 163.451 191.699 163.459 191.696 163.466C191.693 163.473 191.688 163.48 191.682 163.484Z" fill="#FDE7ED"/>
<path d="M196.208 161.263C196.204 161.265 196.201 161.266 196.197 161.266C196.193 161.266 196.189 161.265 196.186 161.263C196.186 161.263 196.186 161.247 196.186 161.237C196.186 161.228 196.186 161.205 196.186 161.19C196.08 160.424 196.139 159.644 196.358 158.903C196.577 158.161 196.952 157.475 197.457 156.89C197.465 156.923 197.47 156.957 197.473 156.991C196.989 157.562 196.631 158.228 196.42 158.945C196.209 159.663 196.151 160.416 196.249 161.158V161.224C196.24 161.247 196.224 161.259 196.208 161.263Z" fill="#FDE7ED"/>
<path d="M193.131 159.111C193.124 159.117 193.114 159.121 193.104 159.121C193.094 159.121 193.085 159.117 193.077 159.111C192.479 158.736 191.815 158.481 191.12 158.358L191.18 158.285C191.868 158.417 192.525 158.675 193.119 159.047C193.124 159.05 193.129 159.054 193.133 159.059C193.137 159.064 193.139 159.07 193.14 159.076C193.142 159.082 193.141 159.088 193.14 159.095C193.138 159.101 193.135 159.106 193.131 159.111Z" fill="#FDE7ED"/>
<path d="M193.735 158.237C193.728 158.243 193.718 158.247 193.708 158.247C193.698 158.247 193.689 158.243 193.681 158.237C193.122 157.884 192.504 157.636 191.857 157.503L191.914 157.436C192.555 157.573 193.167 157.822 193.722 158.17C193.729 158.172 193.735 158.176 193.74 158.181C193.745 158.186 193.748 158.193 193.749 158.2C193.751 158.207 193.75 158.214 193.747 158.22C193.745 158.227 193.741 158.233 193.735 158.237Z" fill="#FDE7ED"/>
<path d="M194.339 157.366C194.336 157.37 194.331 157.373 194.327 157.375C194.322 157.377 194.317 157.377 194.312 157.377C194.307 157.377 194.302 157.377 194.297 157.375C194.293 157.373 194.289 157.37 194.285 157.366C193.754 157.03 193.168 156.79 192.553 156.658C192.572 156.632 192.594 156.61 192.61 156.584C193.219 156.725 193.799 156.966 194.326 157.3C194.333 157.301 194.339 157.305 194.344 157.311C194.349 157.316 194.352 157.322 194.353 157.329C194.355 157.336 194.354 157.343 194.351 157.35C194.349 157.356 194.345 157.362 194.339 157.366Z" fill="#FDE7ED"/>
<path d="M222.741 124.684C222.741 124.684 207.601 123.658 203.501 127.366C199.402 131.075 194.352 151.811 194.352 151.811L199.004 154.179L204.051 145.344C204.051 145.344 205.392 156.228 207.521 162.616L212.174 161.904C212.174 161.904 213.594 145.662 212.333 141.009C212.333 141.009 218.641 140.612 219.588 140.142C222.258 140.597 224.993 140.516 227.632 139.903C231.89 138.88 233.311 138.406 233.311 138.406L222.741 124.684Z" fill="#2B2936"/>
<path d="M204.261 146.974C203.895 144.664 203.546 142.328 203.647 139.983C203.739 137.819 204.146 135.33 205.662 133.678C206.304 133.012 207.1 132.515 207.98 132.23C208.859 131.946 209.795 131.882 210.706 132.044C213.852 132.578 215.701 135.899 217.519 138.184C218.075 138.887 218.727 139.773 219.588 140.142" stroke="#FDE7ED" stroke-width="0.39" stroke-linecap="round" stroke-linejoin="round"/>
<path d="M211.742 138.327C212.021 139.201 212.218 140.099 212.333 141.009" stroke="#FDE7ED" stroke-width="0.39" stroke-linecap="round" stroke-linejoin="round"/>
<path d="M222.458 102.524C222.458 102.524 219.988 109.28 218.463 114.483C217.065 119.25 215.625 124.894 215.625 124.894C215.625 124.894 221.879 126.419 221.879 126.26C221.879 126.101 222.458 119.586 223.983 115.379C225.508 111.171 228.4 102.286 228.451 101.92C228.502 101.555 222.458 102.524 222.458 102.524Z" fill="#FCBF86"/>
<path d="M228.813 100.672C228.813 100.672 228.381 101.971 227.908 103.274C227.434 104.577 225.578 109.859 223.411 110.291C221.244 110.723 221.482 106.741 221.482 106.389C221.639 105.092 221.96 103.82 222.435 102.604C222.524 102.365 222.601 102.127 222.667 101.898C222.932 100.959 223.08 99.9911 223.106 99.0158L228.772 95.1577V95.1737V95.8409L228.813 100.672Z" fill="#F49C6E"/>
<path d="M228.814 95.6853L228.776 95.8346C228.287 97.795 227.302 99.5965 225.915 101.066C225.516 101.533 225.015 101.902 224.45 102.146C224.167 102.265 223.857 102.308 223.552 102.272C223.247 102.235 222.956 102.119 222.709 101.936L222.664 101.898C222.93 100.959 223.077 99.9911 223.103 99.0158L228.769 95.1577C228.785 95.173 228.798 95.1913 228.807 95.2117C228.868 95.3634 228.87 95.532 228.814 95.6853Z" fill="#F49C6E"/>
<path d="M229.449 93.4351C229.163 95.3037 228.442 97.1438 227.225 98.3864C226.306 99.3397 225.118 99.7084 223.602 99.7179C222.286 99.7061 221.028 99.1723 220.106 98.2338C220.026 98.1512 219.947 98.059 219.874 97.97C218.784 96.648 218.53 94.8302 218.469 92.9235C218.469 92.4372 218.45 91.9413 218.45 91.4519C218.45 89.4816 218.298 87.775 219.404 86.3672C220.834 84.5367 223.376 83.6406 225.591 84.4764C227.574 85.2264 228.874 87.1522 229.351 89.1543C229.653 90.5623 229.686 92.0147 229.449 93.4351Z" fill="#F49C6E"/>
<path d="M228.718 81.4414C229.323 81.3759 229.935 81.4223 230.523 81.5782C231.122 81.6597 231.701 81.8516 232.23 82.1439C233.333 82.8494 233.685 84.3399 233.485 85.6397C233.285 86.9395 232.481 88.2837 231.2 88.6397C230.526 88.8009 229.818 88.7509 229.173 88.4966C228.521 88.2722 227.935 87.8911 227.466 87.3868C226.996 86.8825 226.658 86.2704 226.481 85.6046C226.163 84.4701 226.255 83.6978 226.939 82.7444C227.38 82.1025 227.93 81.5781 228.718 81.4414Z" fill="#263238"/>
<path d="M224.269 92.3805C224.283 92.4813 224.327 92.5756 224.395 92.6516C224.462 92.7275 224.551 92.7817 224.65 92.8072C224.748 92.8327 224.852 92.8284 224.948 92.7948C225.045 92.7613 225.129 92.7 225.19 92.6187C225.251 92.5374 225.287 92.4398 225.293 92.3381C225.299 92.2365 225.274 92.1354 225.223 92.0477C225.171 91.9599 225.094 91.8894 225.003 91.8452C224.911 91.8009 224.808 91.7848 224.708 91.7989C224.64 91.8079 224.576 91.8301 224.517 91.8642C224.459 91.8984 224.407 91.9439 224.367 91.998C224.326 92.0521 224.296 92.1137 224.279 92.1794C224.263 92.2451 224.259 92.3135 224.269 92.3805Z" fill="#263238"/>
<path d="M219.728 92.4278C219.731 92.5626 219.789 92.6904 219.887 92.7831C219.985 92.8758 220.116 92.9256 220.25 92.9218C220.385 92.918 220.513 92.861 220.606 92.7629C220.698 92.6649 220.748 92.5341 220.745 92.3992C220.743 92.3324 220.728 92.2667 220.7 92.2057C220.673 92.1447 220.634 92.0896 220.586 92.0437C220.537 91.9978 220.48 91.962 220.418 91.9382C220.355 91.9144 220.289 91.9031 220.222 91.905C220.155 91.9069 220.089 91.9219 220.028 91.9492C219.967 91.9765 219.912 92.0155 219.867 92.064C219.821 92.1126 219.785 92.1697 219.761 92.2321C219.737 92.2945 219.726 92.361 219.728 92.4278Z" fill="#263238"/>
<path d="M221.733 92.9653C221.653 93.2899 221.522 93.5998 221.345 93.8838C221.217 94.064 221.147 94.2792 221.145 94.5003C221.19 95.0469 221.723 95.3457 222.191 95.4537" fill="#BA2426"/>
<path d="M226.16 91.211C226.184 91.2618 226.193 91.3179 226.188 91.3737C226.183 91.4296 226.164 91.483 226.131 91.5288C226.098 91.5587 226.057 91.5803 226.014 91.5919C225.97 91.6035 225.924 91.6047 225.88 91.5955C225.788 91.5802 225.699 91.5535 225.613 91.516C225.34 91.412 225.055 91.3415 224.765 91.3062C224.52 91.3099 224.282 91.2279 224.091 91.0743C224.025 90.9928 223.992 90.8898 223.998 90.7853C224.004 90.6808 224.049 90.5823 224.123 90.5087C224.682 89.9398 225.953 90.5404 226.16 91.211Z" fill="#263238"/>
<path d="M218.848 91.3351C218.824 91.3859 218.814 91.4421 218.819 91.4979C218.824 91.5537 218.844 91.6071 218.876 91.6529C218.911 91.6811 218.951 91.7016 218.995 91.7131C219.038 91.7246 219.083 91.7268 219.127 91.7196C219.219 91.7013 219.308 91.6735 219.394 91.6369C219.668 91.5339 219.953 91.4636 220.243 91.4273C220.487 91.431 220.724 91.3489 220.913 91.1953C220.98 91.1141 221.013 91.0109 221.007 90.9062C221.001 90.8015 220.957 90.7028 220.882 90.6295C220.313 90.0607 219.067 90.6709 218.848 91.3351Z" fill="#263238"/>
<path d="M228.178 95.0245C230.307 95.6188 231.47 92.7555 230.641 91.6209C229.961 90.693 229.23 91.1219 228.852 91.4651C228.756 91.5507 228.669 91.6455 228.591 91.748L228.407 93.1941L228.178 95.0245Z" fill="#F49C6E"/>
<path d="M230.085 92.4058C229.782 92.5543 229.516 92.7663 229.303 93.0274C229.09 93.2885 228.936 93.5925 228.852 93.9186" stroke="#2B2936" stroke-width="0.57" stroke-linecap="round" stroke-linejoin="round"/>
<path d="M229.532 92.7998C229.679 92.9278 229.782 93.0991 229.826 93.2892C229.87 93.4793 229.852 93.6784 229.776 93.8581" stroke="#2B2936" stroke-width="0.57" stroke-linecap="round" stroke-linejoin="round"/>
<path d="M231.073 89.4851L227.816 92.9014C227.816 92.9014 227.237 92.4057 227.212 90.7468C227.186 89.0879 227.212 88.7764 227.212 88.7764C227.212 88.7764 226.802 89.4469 225.435 89.7838C225.782 89.248 225.968 88.6236 225.969 87.9852C225.54 88.7589 224.951 89.4318 224.24 89.9587C224.072 89.9794 223.901 89.9794 223.732 89.9587C224.23 89.3853 224.602 88.7141 224.825 87.9883C224.39 88.6906 223.621 89.2182 223.004 89.7712C222.82 89.7204 222.979 89.7712 222.979 89.7712C222.318 90.3467 221.556 90.7939 220.732 91.09C221.199 90.544 221.52 89.8877 221.663 89.1833C221.161 90.0113 220.515 90.743 219.756 91.3442C219.064 91.4741 218.353 91.4644 217.665 91.3157L217.64 91.2108C217.4 90.0245 217.462 88.797 217.819 87.6407C218.176 86.4843 218.817 85.4358 219.683 84.591C222.68 81.6482 227.812 84.1112 227.812 84.1112C227.812 84.1112 229.757 84.0063 230.65 85.4777C231.543 86.9491 231.073 89.4851 231.073 89.4851Z" fill="#263238"/>
<path d="M227.692 93.7849C227.72 93.9311 227.79 94.1027 227.936 94.1027C228.083 94.1027 228.14 93.9819 228.197 93.8738L229.243 91.8654C229.401 91.5979 229.514 91.3057 229.576 91.0009C229.605 90.8482 229.596 90.6908 229.55 90.5424C229.504 90.3939 229.422 90.259 229.312 90.1493C229.14 90.0311 228.936 89.9678 228.728 89.9678C228.519 89.9678 228.315 90.0311 228.143 90.1493C226.767 90.9692 227.441 92.5582 227.692 93.7849Z" fill="#263238"/>
<path d="M228.868 100.186C228.868 100.186 233.704 102.655 235.386 104.444C237.067 106.233 238.068 109.491 237.699 116.641C237.331 123.791 236.11 124.84 236.596 129.312C237.083 133.783 237.963 136.198 237.121 140.247C236.279 144.296 235.595 145.503 235.595 145.503L222.664 145.767C222.664 145.767 225.502 142.402 224.975 138.038C224.447 133.675 221.822 128.523 221.612 125.473C221.403 122.422 221.873 120.426 222.925 117.693C223.977 114.96 228.445 102.55 228.868 100.186Z" fill="#6882AF"/>
<g style="mix-blend-mode:multiply" opacity="0.34">
<path d="M225.133 126.076C225.133 126.076 227.577 131.228 228.604 130.783C228.494 129.844 228.327 128.914 228.105 127.996C227.928 127.267 227.69 126.555 227.393 125.866L225.133 126.076Z" fill="#6882AF"/>
</g>
<path d="M225.636 122.476C225.636 122.476 222.474 123.699 221.657 123.855C220.84 124.011 218.187 123.108 216.89 123.578C215.593 124.049 211.649 125.355 211.618 125.708C211.618 125.708 211.592 125.905 211.726 125.917C211.726 125.917 211.408 126.035 211.43 126.235C211.452 126.435 211.748 126.48 211.748 126.48C211.693 126.513 211.648 126.56 211.616 126.615C211.584 126.671 211.567 126.734 211.567 126.798C211.586 126.982 211.91 127.052 211.91 127.052L212.971 126.982C212.928 127.031 212.9 127.093 212.893 127.158C212.885 127.224 212.898 127.29 212.93 127.347C213.032 127.554 213.83 127.516 215.336 127.379C216.404 127.241 217.481 127.182 218.558 127.201C219.613 127.239 220.192 127.455 221.517 127.15C222.696 126.832 223.899 126.615 225.115 126.499C226.297 126.432 227.905 126.264 227.905 126.264L225.68 122.498" fill="#F49C6E"/>
<path d="M211.722 125.917C211.722 125.917 215.04 124.71 216.696 124.265" stroke="#2B2936" stroke-width="0.35" stroke-linecap="round" stroke-linejoin="round"/>
<path d="M211.742 126.486C211.742 126.486 215.771 125.215 216.826 125.069" stroke="#2B2936" stroke-width="0.35" stroke-linecap="round" stroke-linejoin="round"/>
<path d="M212.965 126.969C212.965 126.969 216.029 126.016 216.906 125.905" stroke="#2B2936" stroke-width="0.35" stroke-linecap="round" stroke-linejoin="round"/>
<path d="M234.61 104.259C234.61 104.259 232.322 105.877 231.575 110.844C230.828 115.811 230.511 120.426 230.511 120.426L224.949 122.475C224.949 122.475 226.29 123.111 227.393 125.866C228.078 127.627 228.529 129.47 228.734 131.348C228.734 131.348 235.516 128.39 236.228 126.537C236.94 124.684 237.607 114.461 237.569 113.011C237.531 111.562 234.61 104.259 234.61 104.259Z" fill="#6882AF"/>
<path d="M233.31 106.544C231.613 109.503 230.628 120.623 230.628 120.623L225.187 122.612C225.187 122.612 226.71 123.686 227.606 126.34C228.117 127.777 228.452 129.271 228.604 130.789C228.604 130.789 233.835 129.553 235.7 126.871" stroke="#FBD6DE" stroke-width="0.39" stroke-linecap="round" stroke-linejoin="round"/>
<path d="M230.606 120.617C231.44 120.859 232.163 121.384 232.653 122.101" stroke="#FBD6DE" stroke-width="0.39" stroke-linecap="round" stroke-linejoin="round"/>
<path d="M230.549 120.623C231.332 120.375 232.182 120.447 232.913 120.823" stroke="#FBD6DE" stroke-width="0.39" stroke-linecap="round" stroke-linejoin="round"/>
<path d="M231.296 110.596L231.474 113.673" stroke="#FBD6DE" stroke-width="0.39" stroke-linecap="round" stroke-linejoin="round"/>
<path d="M230.568 131.822C231.78 133.952 232.412 136.363 232.401 138.813" stroke="#FBD6DE" stroke-width="0.39" stroke-linecap="round" stroke-linejoin="round"/>
<path d="M234.81 127.916C235.715 133.74 235.304 139.693 233.606 145.338" stroke="#FBD6DE" stroke-width="0.39" stroke-linecap="round" stroke-linejoin="round"/>
<path d="M199.246 105.417H175.071C174.548 105.417 174.124 105.84 174.124 106.364V122.864C174.124 123.387 174.548 123.811 175.071 123.811H199.246C199.769 123.811 200.193 123.387 200.193 122.864V106.364C200.193 105.84 199.769 105.417 199.246 105.417Z" fill="#545281"/>
<g style="mix-blend-mode:multiply" opacity="0.22">
<path d="M199.246 105.417H175.071C174.548 105.417 174.124 105.84 174.124 106.364V122.864C174.124 123.387 174.548 123.811 175.071 123.811H199.246C199.769 123.811 200.193 123.387 200.193 122.864V106.364C200.193 105.84 199.769 105.417 199.246 105.417Z" fill="#545281"/>
</g>
<path d="M199.153 106.456H175.166V122.619H199.153V106.456Z" fill="white"/>
<g style="mix-blend-mode:multiply">
<path d="M199.153 106.456V106.665H175.373V122.616H175.166V106.456H199.153Z" fill="#F6A9BE"/>
</g>
<g style="mix-blend-mode:multiply" opacity="0.58">
<path d="M187.538 105.947C187.538 106.013 187.512 106.076 187.466 106.122C187.419 106.169 187.356 106.195 187.29 106.195C187.225 106.195 187.162 106.169 187.115 106.122C187.069 106.076 187.043 106.013 187.043 105.947C187.043 105.881 187.069 105.818 187.115 105.772C187.162 105.725 187.225 105.699 187.29 105.699C187.323 105.699 187.355 105.706 187.385 105.718C187.415 105.731 187.443 105.749 187.466 105.772C187.489 105.795 187.507 105.822 187.519 105.852C187.532 105.882 187.538 105.915 187.538 105.947Z" fill="#545281"/>
</g>
<g style="mix-blend-mode:multiply" opacity="0.58">
<path d="M189.572 123.391H185.619C185.563 123.39 185.51 123.368 185.471 123.329C185.432 123.29 185.41 123.237 185.409 123.181C185.41 123.126 185.432 123.073 185.471 123.034C185.51 122.995 185.563 122.973 185.619 122.972H189.572C189.627 122.973 189.68 122.995 189.718 123.034C189.757 123.073 189.779 123.126 189.779 123.181C189.779 123.237 189.757 123.289 189.718 123.329C189.68 123.368 189.627 123.39 189.572 123.391Z" fill="#545281"/>
</g>
<path d="M201.559 124.29H173.441C173.34 124.29 173.243 124.25 173.171 124.179C173.1 124.107 173.06 124.01 173.06 123.909C173.06 123.859 173.069 123.809 173.089 123.763C173.108 123.717 173.136 123.675 173.171 123.64C173.207 123.605 173.249 123.577 173.295 123.559C173.341 123.54 173.391 123.53 173.441 123.531H201.559C201.609 123.53 201.659 123.54 201.705 123.559C201.751 123.577 201.793 123.605 201.829 123.64C201.864 123.675 201.893 123.717 201.912 123.763C201.931 123.809 201.941 123.859 201.941 123.909C201.941 124.01 201.901 124.107 201.829 124.179C201.758 124.25 201.661 124.29 201.559 124.29Z" fill="#545281"/>
<g style="mix-blend-mode:multiply" opacity="0.58">
<path d="M201.559 124.29H173.441C173.34 124.29 173.243 124.25 173.171 124.179C173.1 124.107 173.06 124.01 173.06 123.909C173.06 123.859 173.069 123.809 173.089 123.763C173.108 123.717 173.136 123.675 173.171 123.64C173.207 123.605 173.249 123.577 173.295 123.559C173.341 123.54 173.391 123.53 173.441 123.531H201.559C201.609 123.53 201.659 123.54 201.705 123.559C201.751 123.577 201.793 123.605 201.829 123.64C201.864 123.675 201.893 123.717 201.912 123.763C201.931 123.809 201.941 123.859 201.941 123.909C201.941 124.01 201.901 124.107 201.829 124.179C201.758 124.25 201.661 124.29 201.559 124.29Z" fill="#545281"/>
</g>
<path d="M132.702 139.494C133.141 141.178 133.599 142.907 134.609 144.33C135.62 145.754 137.295 146.838 139.023 146.634" stroke="#2B2936" stroke-width="3.88" stroke-linecap="round" stroke-linejoin="round"/>
<path d="M138.388 136.862C138.268 138.207 138.629 139.551 139.405 140.657C140.182 141.762 141.324 142.556 142.63 142.9" stroke="#2B2936" stroke-width="3.88" stroke-linecap="round" stroke-linejoin="round"/>
<path d="M140.174 133.201C140.244 137.968 137.558 139.783 134.796 140.653C134.355 140.793 133.907 140.908 133.471 141.006C130.316 141.718 127.633 133.91 126.451 131.307C125.269 128.704 121.239 123.912 122.669 120.184C122.789 119.856 122.957 119.547 123.168 119.269C123.52 118.803 123.993 118.443 124.535 118.226C125.338 117.929 126.195 117.809 127.049 117.874C130.131 118.001 133.56 119.002 135.601 121.442C137.428 123.626 140.094 127.678 140.174 133.201Z" fill="#526B7F"/>
<g style="mix-blend-mode:multiply" opacity="0.16">
<path d="M135.632 137.927C135.691 138.908 135.394 139.877 134.796 140.657C134.355 140.797 133.907 140.911 133.471 141.01C130.316 141.722 127.633 133.913 126.451 131.311C125.269 128.708 121.239 123.915 122.669 120.188C122.789 119.859 122.957 119.551 123.168 119.272C123.52 118.807 123.993 118.446 124.535 118.23C124.988 118.317 125.434 118.441 125.866 118.602C127.366 119.152 128.822 119.911 129.915 121.103C131.361 122.692 132.016 124.815 132.623 126.864C133.419 129.54 134.214 132.213 135.006 134.882C135.348 135.865 135.558 136.889 135.632 137.927Z" fill="#545281"/>
</g>
<path d="M146.688 143.51C143.911 154.2 141.861 165.066 140.552 176.034" stroke="#2B2936" stroke-width="4.66" stroke-linecap="round" stroke-linejoin="round"/>
<path d="M146.482 137.609L139.173 144.302C138.911 144.539 138.719 144.843 138.615 145.18C138.511 145.518 138.5 145.877 138.582 146.22C138.665 146.563 138.838 146.878 139.084 147.132C139.33 147.385 139.639 147.568 139.98 147.661C140.382 147.765 140.793 147.832 141.207 147.861C144.639 148.144 162.439 147.988 166.379 147.95C167.032 147.944 167.669 147.752 168.216 147.397C169.313 146.679 170.682 145.233 169.281 142.894C167.161 139.35 146.482 137.609 146.482 137.609Z" fill="#526B7F"/>
<path d="M153.445 170.863C152.18 171.603 151.18 172.721 150.585 174.06C149.533 176.355 149.495 176.603 149.733 177.063C149.971 177.524 153.413 179.091 154.128 179.955C154.843 180.82 158.364 183.283 160.535 183.27C162.705 183.257 164.12 183.054 163.878 181.999C163.637 180.944 159.616 177.016 158.396 175.052C157.176 173.088 157.201 172.509 157.201 172.509L153.445 170.863Z" fill="#545281"/>
<path d="M154.691 168.334L153.445 170.876C153.445 170.876 155.987 174.69 157.09 174.169C157.535 173.956 157.29 172.538 157.29 172.538L158.358 170.533L154.691 168.334Z" fill="#F49C6E"/>
<path d="M170.075 172.885C169.467 174.029 169.235 175.335 169.411 176.619C169.684 178.843 169.764 179.034 170.164 179.279C170.565 179.523 173.883 179.101 174.823 179.422C175.764 179.743 179.568 179.962 181.198 178.945C182.828 177.928 183.804 177.115 183.127 176.425C182.45 175.735 177.598 174.645 175.764 173.73C173.93 172.815 173.676 172.367 173.676 172.367L170.075 172.885Z" fill="#545281"/>
<path d="M169.84 170.399L170.075 172.888C170.075 172.888 173.774 174.578 174.356 173.676C174.591 173.307 173.749 172.354 173.749 172.354L173.622 170.345L169.84 170.399Z" fill="#F4B0AF"/>
<path d="M168.658 132.4C168.658 132.4 174.734 133.389 175.872 139.297C176.949 144.896 166.764 160.249 166.764 160.249L159.022 171.489L153.721 168.918C153.721 168.918 156.003 160.935 158.847 154.853C161.73 148.684 163.529 145.834 163.529 145.834L162.343 145.605C162.343 145.605 163.707 135.346 168.658 132.4Z" fill="#32469B"/>
<path d="M163.443 144.836L169.49 172.615L174.845 171.693L173.739 143.098L163.443 144.836Z" fill="#32469B"/>
<path d="M165.01 143.065C165.01 143.065 165.01 143.135 162.944 146.863C160.758 150.778 155.412 160.865 153.728 168.918" stroke="#FDE7ED" stroke-width="0.39" stroke-linecap="round" stroke-linejoin="round"/>
<path d="M173.949 147.55C173.949 147.55 169.306 156.264 166.179 161.12C163.052 165.976 159.022 171.489 159.022 171.489" stroke="#FDE7ED" stroke-width="0.39" stroke-linecap="round" stroke-linejoin="round"/>
<path d="M162.591 141.979C163.503 141.893 164.441 141.807 165.324 142.058C166.208 142.309 167.031 142.98 167.186 143.882C167.32 144.655 166.958 145.421 166.595 146.107C162.597 153.81 157.459 161.027 154.939 169.331" stroke="#FDE7ED" stroke-width="0.39" stroke-linecap="round" stroke-linejoin="round"/>
<path d="M168.092 158.031C169.01 162.817 169.951 167.565 171.458 172.208" stroke="#FDE7ED" stroke-width="0.39" stroke-linecap="round" stroke-linejoin="round"/>
<path d="M170.221 118.255L171.68 117.232C172.204 116.587 172.605 115.851 172.862 115.061C173.256 113.79 173.571 112.341 174.242 112.341C174.912 112.341 174.413 114.747 174.375 115.22C174.337 115.694 174.302 116.173 174.302 116.173C174.302 116.173 175.872 114.708 176.476 113.393C177.079 112.077 177.992 110.634 178.605 110.819C179.317 111.028 177.121 115.522 177.2 115.84C177.28 116.158 177.871 116.272 178.026 116.943C178.182 117.613 177.988 117.896 178.147 118.401C178.306 118.907 178.579 119.704 178.421 120.136C178.262 120.569 177.753 121.201 177.632 121.633C177.512 122.065 174.772 122.463 174.162 122.463C173.552 122.463 170.813 122.698 170.813 122.698L170.221 118.255Z" fill="#F49C6E"/>
<path d="M168.566 109.478C168.566 109.478 169.22 109.055 169.932 107.717C170.644 106.379 170.666 105.375 171.454 104.797C172.243 104.218 173.19 104.063 173.997 103.275C174.804 102.486 175.338 101.8 175.862 101.854C176.387 101.908 176.126 103.484 175.783 104.114C175.375 104.795 174.795 105.357 174.102 105.744C173.738 105.961 173.386 106.198 173.05 106.456L174.048 111.223C174.048 111.223 172.681 112.062 171.578 111.985C170.476 111.909 170.158 112.195 170.158 112.195L168.566 109.478Z" fill="#F49C6E"/>
<path d="M181.08 102.747L172.696 105.004C172.432 105.076 172.276 105.348 172.347 105.612L173.786 110.958C173.857 111.222 174.129 111.379 174.394 111.307L182.777 109.05C183.042 108.979 183.198 108.707 183.127 108.442L181.688 103.097C181.617 102.832 181.345 102.676 181.08 102.747Z" fill="#6882AF"/>
<path d="M181.249 104.002L181.509 103.932L181.697 104.631L173.24 106.907L173.412 107.545L173.612 107.491" stroke="#FDE7ED" stroke-width="0.13" stroke-linecap="round" stroke-linejoin="round"/>
<path d="M173.533 107.412L173.584 107.606L173.723 107.459L173.533 107.412Z" fill="#FDEFF5"/>
<path d="M181.608 105.327L181.865 105.257L182.053 105.956L173.599 108.232L173.771 108.871L173.971 108.817" stroke="#FDE7ED" stroke-width="0.13" stroke-linecap="round" stroke-linejoin="round"/>
<path d="M173.889 108.737L173.94 108.931L174.083 108.785L173.889 108.737Z" fill="#FDEFF5"/>
<path d="M181.942 106.563L182.199 106.494L182.387 107.196L173.93 109.471L174.102 110.11L174.302 110.056" stroke="#FDE7ED" stroke-width="0.13" stroke-linecap="round" stroke-linejoin="round"/>
<path d="M174.222 109.977L174.273 110.17L174.413 110.021L174.222 109.977Z" fill="#FDEFF5"/>
<path d="M174.067 105.934C174.084 106 174.082 106.069 174.061 106.134C174.039 106.198 173.999 106.255 173.945 106.296C173.891 106.338 173.826 106.362 173.758 106.367C173.691 106.371 173.623 106.356 173.564 106.322C173.505 106.288 173.458 106.237 173.428 106.176C173.398 106.115 173.386 106.047 173.395 105.98C173.404 105.912 173.433 105.849 173.478 105.798C173.522 105.747 173.581 105.71 173.647 105.693C173.735 105.669 173.828 105.682 173.907 105.727C173.985 105.772 174.043 105.847 174.067 105.934Z" fill="#F48DA3"/>
<path d="M175.265 105.613C175.283 105.679 175.281 105.748 175.259 105.813C175.237 105.877 175.197 105.934 175.143 105.975C175.09 106.017 175.025 106.041 174.957 106.046C174.889 106.05 174.821 106.035 174.762 106.001C174.703 105.967 174.656 105.916 174.626 105.855C174.596 105.794 174.585 105.726 174.593 105.658C174.602 105.591 174.631 105.528 174.676 105.477C174.721 105.426 174.78 105.389 174.845 105.372C174.889 105.36 174.934 105.356 174.979 105.362C175.023 105.368 175.067 105.382 175.106 105.405C175.145 105.427 175.179 105.457 175.206 105.493C175.233 105.529 175.253 105.57 175.265 105.613Z" fill="#F48DA3"/>
<path d="M176.46 105.289C176.477 105.354 176.475 105.423 176.453 105.486C176.431 105.55 176.391 105.606 176.338 105.646C176.284 105.687 176.22 105.711 176.153 105.716C176.086 105.72 176.019 105.704 175.961 105.67C175.902 105.637 175.856 105.586 175.826 105.526C175.796 105.466 175.785 105.398 175.794 105.331C175.803 105.265 175.831 105.202 175.876 105.152C175.92 105.101 175.979 105.065 176.044 105.048C176.087 105.036 176.132 105.033 176.176 105.039C176.221 105.045 176.263 105.06 176.302 105.082C176.341 105.105 176.374 105.134 176.402 105.17C176.429 105.205 176.449 105.246 176.46 105.289Z" fill="#F48DA3"/>
<path d="M177.648 104.968C177.665 105.033 177.663 105.102 177.641 105.165C177.619 105.228 177.579 105.284 177.526 105.325C177.472 105.365 177.408 105.389 177.341 105.394C177.274 105.398 177.208 105.383 177.15 105.349C177.091 105.316 177.044 105.266 177.015 105.206C176.985 105.146 176.973 105.078 176.982 105.011C176.99 104.945 177.018 104.882 177.062 104.832C177.106 104.781 177.164 104.744 177.229 104.727C177.272 104.715 177.317 104.711 177.362 104.717C177.407 104.723 177.45 104.737 177.489 104.76C177.528 104.782 177.562 104.812 177.589 104.848C177.617 104.884 177.637 104.925 177.648 104.968Z" fill="#F48DA3"/>
<path d="M178.856 104.644C178.874 104.71 178.872 104.779 178.85 104.844C178.828 104.908 178.788 104.965 178.734 105.006C178.681 105.048 178.616 105.072 178.548 105.077C178.48 105.081 178.412 105.066 178.353 105.032C178.295 104.998 178.247 104.947 178.217 104.886C178.187 104.825 178.176 104.757 178.184 104.69C178.193 104.622 178.222 104.559 178.267 104.508C178.312 104.457 178.371 104.42 178.436 104.403C178.524 104.379 178.617 104.392 178.696 104.437C178.775 104.482 178.832 104.557 178.856 104.644Z" fill="#F48DA3"/>
<path d="M180.054 104.323C180.072 104.389 180.07 104.458 180.048 104.523C180.027 104.587 179.986 104.644 179.933 104.685C179.879 104.727 179.814 104.751 179.746 104.756C179.678 104.76 179.611 104.745 179.552 104.711C179.493 104.677 179.445 104.626 179.415 104.565C179.385 104.504 179.374 104.436 179.383 104.368C179.392 104.301 179.42 104.238 179.465 104.187C179.51 104.136 179.569 104.099 179.635 104.082C179.722 104.059 179.815 104.072 179.894 104.117C179.972 104.162 180.03 104.236 180.054 104.323Z" fill="#F48DA3"/>
<path d="M181.249 103.999C181.267 104.064 181.265 104.133 181.244 104.197C181.222 104.26 181.183 104.317 181.129 104.358C181.076 104.399 181.012 104.424 180.945 104.428C180.878 104.433 180.811 104.418 180.752 104.384C180.694 104.351 180.647 104.301 180.617 104.24C180.587 104.18 180.575 104.112 180.584 104.045C180.593 103.979 180.621 103.916 180.665 103.865C180.709 103.815 180.768 103.778 180.833 103.761C180.92 103.737 181.012 103.749 181.09 103.794C181.168 103.839 181.225 103.912 181.249 103.999Z" fill="#F48DA3"/>
<path d="M174.41 107.215C174.427 107.28 174.425 107.349 174.403 107.412C174.381 107.476 174.341 107.532 174.288 107.572C174.234 107.613 174.17 107.637 174.103 107.642C174.036 107.646 173.969 107.63 173.911 107.596C173.853 107.563 173.806 107.512 173.776 107.452C173.747 107.392 173.735 107.324 173.744 107.257C173.753 107.191 173.782 107.128 173.826 107.078C173.87 107.027 173.929 106.991 173.994 106.974C174.037 106.962 174.082 106.958 174.127 106.964C174.171 106.97 174.214 106.984 174.253 107.007C174.291 107.029 174.325 107.059 174.352 107.095C174.379 107.131 174.399 107.172 174.41 107.215Z" fill="#F48DA3"/>
<path d="M175.608 106.891C175.625 106.956 175.622 107.024 175.601 107.088C175.579 107.151 175.539 107.207 175.485 107.247C175.432 107.288 175.368 107.312 175.301 107.317C175.234 107.321 175.167 107.305 175.109 107.272C175.051 107.238 175.004 107.189 174.974 107.129C174.945 107.068 174.933 107.001 174.942 106.934C174.95 106.868 174.978 106.805 175.022 106.755C175.066 106.704 175.124 106.667 175.188 106.65C175.232 106.638 175.277 106.634 175.322 106.64C175.367 106.646 175.41 106.66 175.449 106.683C175.488 106.705 175.522 106.735 175.549 106.771C175.577 106.807 175.597 106.847 175.608 106.891Z" fill="#F48DA3"/>
<path d="M176.806 106.57C176.824 106.635 176.822 106.705 176.8 106.769C176.779 106.834 176.738 106.89 176.685 106.932C176.631 106.973 176.566 106.998 176.498 107.002C176.43 107.007 176.363 106.991 176.304 106.957C176.245 106.923 176.197 106.873 176.167 106.812C176.137 106.751 176.126 106.682 176.135 106.615C176.143 106.548 176.172 106.484 176.217 106.433C176.262 106.382 176.321 106.346 176.387 106.328C176.43 106.316 176.475 106.313 176.52 106.319C176.565 106.324 176.608 106.339 176.647 106.361C176.686 106.384 176.72 106.414 176.747 106.449C176.775 106.485 176.795 106.526 176.806 106.57Z" fill="#F48DA3"/>
<path d="M178.004 106.246C178.028 106.333 178.015 106.427 177.97 106.505C177.925 106.584 177.85 106.641 177.763 106.665C177.719 106.678 177.674 106.681 177.629 106.676C177.584 106.67 177.541 106.656 177.502 106.633C177.463 106.611 177.428 106.581 177.401 106.545C177.374 106.509 177.354 106.468 177.343 106.424C177.327 106.339 177.343 106.251 177.389 106.177C177.435 106.104 177.507 106.05 177.591 106.028C177.675 106.005 177.764 106.015 177.84 106.056C177.917 106.096 177.976 106.164 178.004 106.246Z" fill="#F48DA3"/>
<path d="M179.199 105.925C179.216 105.99 179.214 106.058 179.192 106.122C179.17 106.185 179.13 106.241 179.077 106.282C179.023 106.323 178.959 106.347 178.892 106.351C178.825 106.355 178.758 106.34 178.7 106.306C178.642 106.272 178.595 106.222 178.565 106.162C178.535 106.101 178.524 106.033 178.533 105.967C178.542 105.9 178.571 105.838 178.615 105.787C178.659 105.737 178.718 105.7 178.783 105.683C178.826 105.671 178.871 105.668 178.916 105.674C178.96 105.679 179.003 105.694 179.042 105.716C179.08 105.739 179.114 105.769 179.141 105.805C179.168 105.84 179.188 105.881 179.199 105.925Z" fill="#F48DA3"/>
<path d="M180.397 105.6C180.414 105.665 180.412 105.734 180.39 105.797C180.368 105.86 180.328 105.916 180.275 105.957C180.221 105.997 180.157 106.021 180.09 106.026C180.024 106.03 179.957 106.015 179.899 105.981C179.841 105.948 179.794 105.898 179.764 105.838C179.734 105.778 179.723 105.71 179.731 105.644C179.739 105.577 179.767 105.514 179.811 105.464C179.855 105.413 179.913 105.377 179.978 105.359C180.065 105.335 180.159 105.348 180.237 105.393C180.316 105.438 180.373 105.513 180.397 105.6Z" fill="#F48DA3"/>
<path d="M181.595 105.28C181.613 105.345 181.611 105.415 181.589 105.479C181.568 105.544 181.528 105.6 181.474 105.642C181.42 105.683 181.355 105.708 181.287 105.712C181.219 105.717 181.152 105.701 181.093 105.667C181.034 105.634 180.986 105.583 180.956 105.522C180.926 105.461 180.915 105.392 180.924 105.325C180.933 105.258 180.961 105.194 181.006 105.143C181.051 105.092 181.11 105.056 181.176 105.038C181.263 105.016 181.356 105.028 181.435 105.074C181.513 105.119 181.571 105.193 181.595 105.28Z" fill="#F48DA3"/>
<path d="M174.756 108.492C174.774 108.558 174.772 108.627 174.75 108.692C174.729 108.756 174.688 108.813 174.635 108.854C174.581 108.896 174.516 108.92 174.448 108.925C174.38 108.929 174.313 108.914 174.254 108.88C174.195 108.846 174.147 108.795 174.117 108.734C174.087 108.673 174.076 108.605 174.085 108.538C174.094 108.47 174.122 108.407 174.167 108.356C174.212 108.305 174.271 108.268 174.337 108.251C174.424 108.227 174.518 108.24 174.596 108.285C174.675 108.33 174.732 108.405 174.756 108.492Z" fill="#F48DA3"/>
<path d="M175.951 108.171C175.968 108.236 175.966 108.305 175.944 108.369C175.923 108.432 175.882 108.488 175.829 108.529C175.775 108.569 175.711 108.593 175.644 108.598C175.577 108.602 175.51 108.586 175.452 108.552C175.394 108.519 175.347 108.468 175.317 108.408C175.288 108.348 175.277 108.28 175.286 108.213C175.294 108.147 175.323 108.084 175.367 108.034C175.412 107.983 175.47 107.947 175.535 107.93C175.578 107.918 175.623 107.915 175.668 107.92C175.712 107.926 175.755 107.941 175.794 107.963C175.833 107.986 175.867 108.015 175.894 108.051C175.921 108.087 175.94 108.128 175.951 108.171Z" fill="#F48DA3"/>
<path d="M177.149 107.847C177.166 107.912 177.164 107.981 177.142 108.044C177.12 108.108 177.08 108.163 177.027 108.204C176.974 108.245 176.909 108.269 176.843 108.273C176.776 108.277 176.709 108.262 176.651 108.228C176.593 108.195 176.546 108.145 176.516 108.085C176.486 108.025 176.475 107.957 176.483 107.891C176.492 107.824 176.52 107.762 176.563 107.711C176.607 107.66 176.665 107.624 176.73 107.606C176.818 107.582 176.911 107.595 176.99 107.64C177.068 107.685 177.126 107.76 177.149 107.847Z" fill="#F48DA3"/>
<path d="M178.347 107.527C178.365 107.592 178.363 107.662 178.342 107.726C178.32 107.791 178.28 107.847 178.226 107.889C178.172 107.93 178.107 107.955 178.039 107.959C177.972 107.964 177.904 107.948 177.845 107.914C177.786 107.88 177.739 107.83 177.709 107.769C177.678 107.708 177.667 107.639 177.676 107.572C177.685 107.505 177.714 107.441 177.758 107.39C177.803 107.339 177.862 107.303 177.928 107.285C177.971 107.273 178.017 107.27 178.061 107.276C178.106 107.281 178.149 107.296 178.188 107.318C178.227 107.341 178.261 107.371 178.289 107.407C178.316 107.442 178.336 107.483 178.347 107.527Z" fill="#F48DA3"/>
<path d="M179.555 107.202C179.573 107.268 179.571 107.337 179.549 107.402C179.528 107.466 179.487 107.523 179.434 107.564C179.38 107.606 179.315 107.63 179.247 107.635C179.179 107.639 179.112 107.624 179.053 107.59C178.994 107.556 178.946 107.505 178.916 107.444C178.886 107.384 178.875 107.315 178.884 107.248C178.893 107.18 178.921 107.117 178.966 107.066C179.011 107.015 179.07 106.978 179.136 106.961C179.223 106.937 179.317 106.95 179.395 106.995C179.474 107.04 179.531 107.115 179.555 107.202Z" fill="#F48DA3"/>
<path d="M180.741 106.881C180.758 106.946 180.755 107.015 180.734 107.079C180.712 107.142 180.672 107.198 180.618 107.239C180.565 107.28 180.5 107.304 180.433 107.308C180.366 107.312 180.299 107.296 180.241 107.263C180.183 107.229 180.136 107.179 180.107 107.118C180.077 107.058 180.066 106.99 180.075 106.923C180.084 106.857 180.112 106.794 180.156 106.744C180.201 106.693 180.259 106.657 180.324 106.64C180.367 106.628 180.412 106.626 180.457 106.631C180.501 106.637 180.544 106.652 180.582 106.674C180.621 106.697 180.655 106.727 180.682 106.762C180.709 106.798 180.729 106.838 180.741 106.881Z" fill="#F48DA3"/>
<path d="M181.938 106.557C181.955 106.622 181.953 106.69 181.931 106.754C181.909 106.817 181.869 106.873 181.816 106.913C181.763 106.954 181.698 106.978 181.632 106.982C181.565 106.987 181.498 106.971 181.44 106.938C181.382 106.904 181.335 106.854 181.305 106.794C181.275 106.734 181.264 106.667 181.272 106.6C181.281 106.534 181.309 106.471 181.352 106.42C181.396 106.37 181.454 106.333 181.519 106.315C181.607 106.292 181.7 106.304 181.779 106.35C181.857 106.395 181.915 106.469 181.938 106.557Z" fill="#F48DA3"/>
<path d="M175.163 109.796C175.18 109.861 175.178 109.929 175.156 109.993C175.134 110.056 175.094 110.111 175.041 110.152C174.987 110.193 174.923 110.217 174.856 110.221C174.789 110.226 174.723 110.21 174.665 110.177C174.607 110.143 174.56 110.093 174.53 110.033C174.5 109.973 174.489 109.906 174.497 109.839C174.505 109.773 174.533 109.71 174.577 109.659C174.621 109.609 174.679 109.572 174.744 109.554C174.787 109.542 174.832 109.539 174.877 109.545C174.922 109.55 174.965 109.565 175.004 109.587C175.043 109.61 175.077 109.64 175.104 109.676C175.132 109.711 175.152 109.752 175.163 109.796Z" fill="#FDEFF5"/>
<path d="M176.298 109.449C176.316 109.515 176.313 109.584 176.292 109.648C176.27 109.713 176.23 109.769 176.176 109.811C176.122 109.852 176.057 109.877 175.99 109.881C175.922 109.886 175.854 109.87 175.795 109.836C175.736 109.803 175.689 109.752 175.659 109.691C175.629 109.63 175.617 109.562 175.626 109.494C175.635 109.427 175.664 109.364 175.709 109.313C175.753 109.261 175.812 109.225 175.878 109.207C175.966 109.184 176.059 109.196 176.138 109.242C176.216 109.287 176.274 109.361 176.298 109.449Z" fill="#FDEFF5"/>
<path d="M177.496 109.128C177.514 109.193 177.512 109.263 177.49 109.327C177.468 109.392 177.428 109.448 177.374 109.49C177.321 109.531 177.256 109.556 177.188 109.56C177.12 109.565 177.052 109.549 176.993 109.515C176.935 109.482 176.887 109.431 176.857 109.37C176.827 109.309 176.816 109.24 176.824 109.173C176.833 109.106 176.862 109.042 176.907 108.991C176.952 108.94 177.011 108.904 177.076 108.886C177.12 108.874 177.165 108.871 177.21 108.877C177.255 108.882 177.298 108.897 177.337 108.919C177.376 108.942 177.41 108.972 177.437 109.008C177.465 109.043 177.484 109.084 177.496 109.128Z" fill="#FDEFF5"/>
<path d="M178.691 108.804C178.703 108.847 178.706 108.892 178.701 108.937C178.695 108.981 178.681 109.024 178.659 109.063C178.637 109.102 178.607 109.136 178.572 109.164C178.536 109.191 178.496 109.212 178.452 109.223C178.387 109.242 178.317 109.24 178.253 109.219C178.188 109.198 178.131 109.158 178.089 109.105C178.047 109.051 178.022 108.986 178.017 108.918C178.012 108.85 178.027 108.783 178.061 108.723C178.095 108.664 178.145 108.616 178.206 108.586C178.267 108.556 178.335 108.544 178.403 108.553C178.47 108.561 178.534 108.59 178.585 108.634C178.636 108.679 178.673 108.738 178.691 108.804Z" fill="#FDEFF5"/>
<path d="M179.889 108.483C179.901 108.526 179.904 108.571 179.898 108.615C179.892 108.66 179.878 108.703 179.856 108.741C179.811 108.82 179.736 108.877 179.649 108.901C179.606 108.912 179.561 108.915 179.516 108.91C179.472 108.904 179.429 108.889 179.39 108.867C179.312 108.822 179.255 108.748 179.231 108.661C179.208 108.573 179.22 108.48 179.265 108.402C179.31 108.324 179.384 108.266 179.471 108.243C179.558 108.219 179.651 108.231 179.73 108.276C179.808 108.321 179.865 108.395 179.889 108.483Z" fill="#FDEFF5"/>
<path d="M181.087 108.159C181.105 108.224 181.103 108.294 181.081 108.358C181.06 108.423 181.019 108.479 180.965 108.521C180.912 108.562 180.847 108.587 180.779 108.592C180.711 108.596 180.643 108.58 180.585 108.547C180.526 108.513 180.478 108.462 180.448 108.401C180.418 108.34 180.407 108.272 180.416 108.204C180.424 108.137 180.453 108.074 180.498 108.023C180.543 107.971 180.602 107.935 180.667 107.917C180.755 107.894 180.848 107.906 180.927 107.952C181.006 107.997 181.063 108.071 181.087 108.159Z" fill="#FDEFF5"/>
<path d="M182.285 107.838C182.303 107.903 182.301 107.973 182.279 108.037C182.257 108.102 182.217 108.158 182.163 108.2C182.11 108.241 182.045 108.266 181.977 108.27C181.909 108.275 181.841 108.259 181.782 108.225C181.724 108.191 181.676 108.141 181.646 108.08C181.616 108.019 181.605 107.95 181.613 107.883C181.622 107.816 181.651 107.752 181.696 107.701C181.741 107.65 181.8 107.614 181.865 107.596C181.953 107.574 182.046 107.587 182.124 107.632C182.203 107.677 182.26 107.751 182.285 107.838Z" fill="#FDEFF5"/>
<path d="M177.455 108.772C177.137 109.344 176.975 109.85 176.673 110.422C176.612 110.514 176.561 110.611 176.52 110.714C176.52 110.743 176.663 110.787 176.784 110.79C177.091 110.8 177.396 110.74 177.676 110.614C177.957 110.489 178.205 110.301 178.402 110.066C178.686 109.632 178.809 109.113 178.751 108.597C178.697 107.603 177.753 108.203 177.455 108.772Z" fill="#F49C6E"/>
<path d="M179.275 107.736C179.318 107.626 179.382 107.526 179.466 107.443C179.515 107.396 179.574 107.36 179.638 107.337C179.702 107.314 179.77 107.305 179.838 107.31C179.903 107.314 179.965 107.334 180.021 107.367C180.076 107.401 180.123 107.448 180.156 107.504C180.202 107.603 180.226 107.712 180.226 107.822C180.254 108.404 180.219 108.988 180.121 109.563C180.107 109.732 180.044 109.894 179.94 110.027C179.714 110.284 179.266 110.345 178.872 110.399C178.729 110.428 178.581 110.419 178.443 110.373C177.944 110.145 178.576 109.534 178.719 109.264C178.964 108.775 179.043 108.228 179.275 107.736Z" fill="#F49C6E"/>
<path d="M180.674 107.39C180.719 107.281 180.785 107.182 180.868 107.097C180.918 107.051 180.977 107.014 181.041 106.991C181.106 106.967 181.174 106.957 181.243 106.961C181.308 106.965 181.371 106.986 181.427 107.021C181.482 107.056 181.528 107.104 181.56 107.161C181.607 107.26 181.631 107.369 181.63 107.479C181.659 108.064 181.624 108.652 181.525 109.23C181.509 109.4 181.446 109.562 181.341 109.697C181.112 109.957 180.664 110.015 180.267 110.072C180.123 110.101 179.974 110.092 179.835 110.046C179.336 109.815 179.971 109.201 180.114 108.928C180.362 108.442 180.442 107.892 180.674 107.39Z" fill="#F49C6E"/>
<path d="M157.707 108.464L159.915 113.984C159.915 113.984 165.067 110.304 168.855 108.413L171.169 113.301C171.169 113.301 165.645 119.399 160.862 120.82C156.08 122.24 151.926 110.936 151.926 110.936L157.707 108.464Z" fill="#FDF1F6"/>
<path style="mix-blend-mode:multiply" opacity="0.13" d="M157.684 108.372L159.89 113.892C159.89 113.892 165.045 110.212 168.83 108.318L171.143 113.209C171.143 113.209 165.623 119.307 160.837 120.728C156.051 122.148 151.901 110.844 151.901 110.844L157.684 108.372Z" fill="url(#paint0_linear_453_11524)"/>
<path d="M159.931 113.882C159.488 114.822 159.23 115.838 159.172 116.876" stroke="#F4B0AF" stroke-width="0.78" stroke-linecap="round" stroke-linejoin="round"/>
<path d="M167.422 109.109L170.104 114.512" stroke="#F4B0AF" stroke-width="0.39" stroke-linecap="round" stroke-linejoin="round"/>
<path d="M154.331 91.5283L153.836 92.4595L152.943 94.1407L151.989 95.9044L146.247 92.4817C147.349 90.9817 147.982 87.5527 147.982 87.5527L154.331 91.5283Z" fill="#F49C6E"/>
<path d="M158.374 89.7809C158.288 90.0668 158.182 90.3461 158.056 90.6167C157.822 91.0913 157.55 91.5463 157.243 91.977C156.725 92.7174 155.851 92.9303 154.996 92.7524C154.031 92.5345 153.102 92.1803 152.237 91.7004C151.384 91.3097 150.563 90.8529 149.781 90.334C149.105 89.8284 148.517 89.2141 148.042 88.5161C147.823 88.2016 147.626 87.8724 147.451 87.5309C147.188 87.0046 146.975 86.4545 146.816 85.8879C146.44 84.3774 146.377 82.8061 146.631 81.2704C146.794 79.9785 147.283 78.7492 148.052 77.6983C148.786 76.7686 149.763 76.0598 150.874 75.6499C151.986 75.2399 153.189 75.1449 154.351 75.3752C155.227 75.5678 156.048 75.9593 156.75 76.5193C157.273 76.936 157.698 77.4621 157.996 78.0606C158.165 78.415 158.291 78.7884 158.371 79.1729C158.499 79.7805 158.548 80.4023 158.514 81.0224C158.486 81.7416 158.511 82.4619 158.59 83.1772C158.682 83.9622 159.369 84.3211 159.845 84.9504C160.214 85.4493 160.525 86.1517 160.163 86.657C159.939 86.9049 159.685 87.1238 159.407 87.3086C159.269 87.4138 159.152 87.5443 159.063 87.6931C159.063 87.7015 159.063 87.7099 159.063 87.7184C159 87.855 158.987 88.0903 158.873 88.1825" fill="#F49C6E"/>
<path d="M155.72 82.5062C155.669 82.5697 155.637 82.6475 155.63 82.7292C155.624 82.8108 155.642 82.8925 155.682 82.9638C155.781 83.0845 155.968 83.0719 156.124 83.0465L157.529 82.8145C157.655 82.8094 157.775 82.7599 157.869 82.6747C157.909 82.6188 157.932 82.5526 157.936 82.484C157.94 82.4153 157.924 82.347 157.891 82.2869C157.826 82.1632 157.734 82.0549 157.624 81.9691C157.02 81.4543 156.089 81.8865 155.72 82.5062Z" fill="#263238"/>
<path d="M157.157 81.6765C156.768 82.2861 156.257 82.8087 155.657 83.2115C156.404 81.9181 156.34 81.0695 156.34 81.0695C155.971 82.0728 155.386 82.9831 154.627 83.7359C153.575 84.1111 152.441 84.1892 151.347 83.9615C151.347 83.9615 149.873 88.4106 147.273 88.7284C146.069 88.8683 143.625 87.8863 142.824 86.2051C142.344 85.185 141.712 81.1204 144.528 78.2602C147.448 75.2729 150.146 74.0653 153.725 74.8248C157.303 75.5844 158.301 78.025 158.333 78.3206C158.364 78.6161 158.724 79.2772 157.157 81.6765Z" fill="#263238"/>
<path d="M156.578 83.9717C156.587 84.0794 156.627 84.182 156.694 84.2669C156.76 84.3517 156.851 84.4149 156.953 84.4484C157.056 84.482 157.166 84.4845 157.27 84.4554C157.374 84.4263 157.467 84.3671 157.538 84.2852C157.608 84.2033 157.653 84.1023 157.666 83.9951C157.679 83.888 157.66 83.7794 157.611 83.6829C157.563 83.5865 157.487 83.5067 157.393 83.4534C157.299 83.4002 157.191 83.3759 157.084 83.3838C157.012 83.389 156.942 83.4083 156.877 83.4407C156.813 83.4731 156.756 83.518 156.709 83.5726C156.662 83.6272 156.626 83.6906 156.604 83.7591C156.581 83.8276 156.573 83.8999 156.578 83.9717Z" fill="#2B2936"/>
<path style="mix-blend-mode:multiply" opacity="0.46" d="M157.945 84.1777L157.357 84.8832C157.357 84.8832 157.98 85.4902 157.945 84.1777Z" fill="url(#paint1_linear_453_11524)"/>
<path d="M152.002 84.5368C152.002 84.5368 150.312 81.7338 148.751 82.8492C147.191 83.9647 147.953 87.8418 150.61 87.0855L152.002 84.5368Z" fill="#F49C6E"/>
<path d="M149.215 83.8633C149.607 84.0038 149.953 84.2475 150.218 84.5685C150.482 84.8896 150.655 85.2763 150.718 85.6875" stroke="#2B2936" stroke-width="0.41" stroke-linecap="round" stroke-linejoin="round"/>
<path d="M150.038 84.4033C149.735 84.7823 149.569 85.2527 149.568 85.738" stroke="#2B2936" stroke-width="0.41" stroke-linecap="round" stroke-linejoin="round"/>
<path d="M151.44 85.668C151.478 85.8588 151.547 86.0422 151.643 86.2114C151.684 86.2882 151.745 86.352 151.821 86.3953C151.896 86.4386 151.982 86.4596 152.069 86.4561C152.272 86.4243 152.415 86.1986 152.523 85.9825C152.72 85.5927 152.888 85.1891 153.026 84.775C153.185 84.3393 153.275 83.8814 153.293 83.418C153.311 82.9626 153.174 82.5146 152.905 82.1468C152.767 81.9843 152.585 81.8653 152.381 81.8043C152.177 81.7433 151.959 81.743 151.755 81.8032C151.551 81.8635 151.368 81.9817 151.23 82.1437C151.092 82.3057 151.003 82.5044 150.976 82.7157C150.956 83.0832 151.002 83.4513 151.112 83.8025C151.221 84.4222 151.29 85.0483 151.44 85.668Z" fill="#263238"/>
<path d="M140.441 78.5623C140.254 78.0611 140.186 77.5235 140.241 76.9916C140.296 76.4597 140.473 75.9476 140.758 75.4954C141.241 74.7391 141.995 74.2052 142.637 73.5886C143.368 72.8704 144.009 71.9997 144.969 71.6279C146.078 71.2179 147.391 71.666 148.173 72.5494C148.548 73.0073 148.829 73.5346 149 74.1012C149.171 74.6677 149.229 75.2624 149.17 75.8514C149.124 76.6215 148.915 77.3731 148.558 78.057C148.201 78.741 147.704 79.3421 147.099 79.8207C145.1 81.3207 141.442 81.1682 140.441 78.5623Z" fill="#263238"/>
<path d="M147.194 90.2222L153.55 93.2983C153.55 93.2983 152.25 95.3069 152.212 96.2539C152.174 97.201 152.171 99.1332 152.171 99.1332L143.498 95.9774C143.498 95.9774 146.482 91.6014 147.194 90.2222Z" fill="#545281"/>
<path d="M143.326 95.9393C143.326 95.9393 145.615 92.1545 146.047 91.9956C146.479 91.8367 151.332 93.8482 152.987 96.8864C154.643 99.9245 156.969 105.245 157.916 108.991C158.863 112.738 158.034 117.705 158.034 117.705L157.398 126.063L169.23 131.663C169.23 131.663 164.971 136.789 164.024 141.047C163.077 145.306 163.071 145.779 163.071 145.779C163.071 145.779 150.359 145.068 147.102 144.635C143.844 144.203 139.294 142.074 139.176 135.737C139.058 129.4 140.873 122.329 140.873 122.329C140.873 122.329 137.679 109.633 139.096 104.39C139.905 101.31 141.345 98.4319 143.326 95.9393Z" fill="#FDF6F9"/>
<path d="M143.565 95.4279C143.565 95.4279 147.667 94.3633 152.87 98.8569C152.49 99.8275 152.265 100.852 152.202 101.892C152.202 101.892 155.472 102.667 157.525 107.676" stroke="#F4B0AF" stroke-width="0.78" stroke-linecap="round" stroke-linejoin="round"/>
<path d="M170.905 123.184C170.905 123.184 170.453 123.397 169.7 123.734L169.633 123.763C166.573 125.132 158.828 128.431 155.92 128.18C152.24 127.862 139.621 109.042 139.621 109.042L141.934 97.9511C141.934 97.9511 144.67 93.3748 149.348 97.4267C149.348 97.4267 151.398 98.4754 153.922 107.361C156.445 116.247 158.037 118.125 158.037 118.125L169.122 117.664H169.198L170.326 117.616L170.784 122.031V122.107L170.905 123.184Z" fill="#FDF6F9"/>
<path d="M145.039 95.7934C145.039 95.7934 149.768 95.5837 151.242 100.211C152.717 104.838 158.037 118.125 158.037 118.125L170.326 117.652" stroke="#F4B0AF" stroke-width="0.78" stroke-linecap="round" stroke-linejoin="round"/>
<path d="M158.082 118.106C157.152 119.077 156.484 120.268 156.14 121.567" stroke="#F4B0AF" stroke-width="0.78" stroke-linecap="round" stroke-linejoin="round"/>
<path d="M158.034 118.086C156.615 118.291 155.294 118.927 154.249 119.907" stroke="#F4B0AF" stroke-width="0.78" stroke-linecap="round" stroke-linejoin="round"/>
<path d="M139.624 109.042C139.624 109.042 151.452 126.204 154.764 127.996C158.075 129.788 170.904 123.184 170.904 123.184" stroke="#F4B0AF" stroke-width="0.78" stroke-linecap="round" stroke-linejoin="round"/>
<path d="M139.745 111.588L142.424 113.05" stroke="#F4B0AF" stroke-width="0.78" stroke-linecap="round" stroke-linejoin="round"/>
<path d="M170.793 122.104C170.39 122.218 169.989 122.355 169.598 122.504C169.573 122.51 169.548 122.518 169.525 122.53C168.527 122.905 167.555 123.353 166.608 123.801C165.661 124.249 164.701 124.681 163.729 125.05C162.288 125.625 160.757 125.938 159.206 125.975C158.096 125.993 156.996 125.754 155.994 125.275C154.465 124.522 153.302 123.162 152.24 121.837C148.468 117.112 145.125 112.059 142.252 106.738C142.246 106.731 142.242 106.721 142.242 106.711C142.242 106.701 142.246 106.692 142.252 106.684C142.262 106.681 142.272 106.681 142.281 106.684C142.291 106.687 142.3 106.693 142.306 106.7C145.176 112.017 148.517 117.065 152.288 121.786C153.346 123.108 154.513 124.459 156.016 125.206C158.558 126.477 161.593 125.778 163.687 124.98C164.666 124.608 165.632 124.166 166.548 123.731C167.463 123.296 168.483 122.838 169.487 122.46L169.563 122.431C169.958 122.285 170.355 122.152 170.755 122.037L170.793 122.104Z" fill="#F4B0AF"/>
<path d="M169.662 123.779C169.653 123.779 169.643 123.775 169.636 123.769C169.629 123.762 169.625 123.753 169.624 123.744L169.122 117.67C169.122 117.66 169.125 117.65 169.131 117.642C169.138 117.634 169.147 117.628 169.157 117.626C169.162 117.626 169.167 117.626 169.172 117.628C169.177 117.63 169.182 117.632 169.186 117.636C169.19 117.64 169.193 117.644 169.195 117.649C169.197 117.654 169.198 117.659 169.198 117.664L169.7 123.737C169.701 123.742 169.7 123.747 169.699 123.752C169.697 123.757 169.695 123.761 169.691 123.765C169.688 123.769 169.684 123.772 169.68 123.775C169.675 123.777 169.67 123.778 169.665 123.779H169.662Z" fill="#F4B0AF"/>
<path d="M141.976 112.78C142.831 119.131 143.31 125.528 143.409 131.936C143.434 133.417 143.438 134.911 143.749 136.357C144.06 137.803 144.702 139.217 145.827 140.193C147.242 141.426 149.202 141.782 151.065 142.011C155.349 142.538 159.327 142.646 163.637 142.742" stroke="#F4B0AF" stroke-width="0.78" stroke-linecap="round" stroke-linejoin="round"/>
<path d="M148.986 134.526C150.507 132.407 151.82 130.147 152.908 127.776" stroke="#F4B0AF" stroke-width="0.78" stroke-linecap="round" stroke-linejoin="round"/>
<path d="M131.422 185.383C131.825 181.051 132.95 171.718 133.535 167.396C133.97 164.192 134.45 160.982 134.889 157.792C135.289 154.849 136.096 151.897 137.73 149.386C140.873 144.546 146.383 143.329 151.827 143.761C153.678 143.863 155.502 144.257 157.23 144.927C160.236 146.199 162.219 148.878 163.557 151.76C164.685 154.182 165.353 156.784 165.985 159.387C167.552 165.838 169.503 175.064 170.641 181.604" stroke="#2B2936" stroke-width="4.66" stroke-linecap="round" stroke-linejoin="round"/>
<path d="M169.589 182.924L170.997 185.975C171.031 186.111 171.109 186.233 171.219 186.32C171.329 186.408 171.465 186.456 171.606 186.458C171.746 186.46 171.883 186.415 171.996 186.33C172.108 186.246 172.189 186.126 172.227 185.991L173.612 183.131C173.612 183.131 169.703 182.924 169.589 182.924Z" fill="#2B2936"/>
<path d="M196.716 182.924L198.124 185.975C198.158 186.111 198.236 186.233 198.346 186.32C198.456 186.408 198.592 186.456 198.733 186.458C198.873 186.46 199.011 186.415 199.123 186.33C199.235 186.246 199.317 186.126 199.354 185.991L200.739 183.131C200.739 183.131 196.837 182.924 196.716 182.924Z" fill="#2B2936"/>
<path d="M202.869 127.157H168.486V183.305H202.869V127.157Z" fill="url(#paint2_linear_453_11524)"/>
<g style="mix-blend-mode:multiply" opacity="0.31">
<path d="M202.869 127.157H168.486V130.837H202.869V127.157Z" fill="#545281"/>
</g>
<path d="M206.024 127.891H166.068C165.847 127.891 165.628 127.848 165.423 127.764C165.219 127.679 165.033 127.556 164.877 127.4C164.721 127.243 164.596 127.058 164.512 126.854C164.427 126.65 164.383 126.431 164.383 126.21C164.383 125.763 164.561 125.335 164.877 125.019C165.193 124.703 165.621 124.525 166.068 124.525H206.024C206.245 124.525 206.464 124.569 206.668 124.654C206.873 124.738 207.058 124.862 207.214 125.019C207.37 125.175 207.494 125.361 207.578 125.565C207.663 125.77 207.706 125.989 207.705 126.21C207.705 126.656 207.528 127.083 207.213 127.398C206.898 127.714 206.47 127.891 206.024 127.891Z" fill="url(#paint3_linear_453_11524)"/>
<path d="M115.529 91.9323C115.529 91.6512 115.445 91.3764 115.289 91.1427C115.133 90.9091 114.911 90.7269 114.651 90.6195C114.391 90.5121 114.105 90.4842 113.83 90.5393C113.554 90.5943 113.301 90.7299 113.102 90.9289C112.904 91.1279 112.769 91.3814 112.714 91.6571C112.66 91.9329 112.689 92.2185 112.797 92.478C112.905 92.7375 113.087 92.9593 113.321 93.115C113.555 93.2707 113.83 93.3535 114.111 93.3529C114.487 93.352 114.848 93.2019 115.114 92.9356C115.379 92.6693 115.529 92.3085 115.529 91.9323Z" fill="url(#paint4_radial_453_11524)" stroke="url(#paint5_linear_453_11524)" stroke-width="1.41" stroke-miterlimit="10"/>
<path d="M265.862 163.033C265.862 162.752 265.779 162.477 265.623 162.244C265.467 162.01 265.245 161.828 264.985 161.72C264.726 161.613 264.44 161.585 264.165 161.64C263.889 161.694 263.636 161.83 263.437 162.028C263.239 162.227 263.103 162.48 263.048 162.756C262.994 163.031 263.022 163.317 263.129 163.576C263.237 163.836 263.419 164.058 263.653 164.214C263.886 164.37 264.161 164.454 264.442 164.454C264.818 164.454 265.18 164.304 265.446 164.037C265.713 163.771 265.862 163.41 265.862 163.033Z" fill="url(#paint6_radial_453_11524)" stroke="url(#paint7_linear_453_11524)" stroke-width="1.41" stroke-miterlimit="10"/>
<path d="M282.902 142.313C282.902 142.032 282.819 141.757 282.663 141.523C282.507 141.29 282.285 141.108 282.026 141C281.766 140.893 281.48 140.865 281.205 140.919C280.929 140.974 280.676 141.109 280.477 141.308C280.279 141.507 280.144 141.76 280.089 142.035C280.034 142.311 280.062 142.597 280.17 142.856C280.277 143.116 280.459 143.338 280.693 143.494C280.926 143.65 281.201 143.733 281.482 143.733C281.668 143.733 281.853 143.696 282.026 143.625C282.198 143.554 282.355 143.449 282.486 143.317C282.618 143.185 282.723 143.029 282.794 142.856C282.866 142.684 282.902 142.499 282.902 142.313Z" fill="url(#paint8_radial_453_11524)" stroke="url(#paint9_linear_453_11524)" stroke-width="1.41" stroke-miterlimit="10"/>
<path d="M246.489 92.873C247.197 92.873 247.77 92.2997 247.77 91.5923C247.77 90.885 247.197 90.3115 246.489 90.3115C245.782 90.3115 245.209 90.885 245.209 91.5923C245.209 92.2997 245.782 92.873 246.489 92.873Z" fill="url(#paint10_radial_453_11524)" stroke="url(#paint11_linear_453_11524)" stroke-width="1.41" stroke-miterlimit="10"/>
<path d="M95.571 101.301C96.9856 101.301 98.1324 100.154 98.1324 98.7392C98.1324 97.3245 96.9856 96.1777 95.571 96.1777C94.1563 96.1777 93.0095 97.3245 93.0095 98.7392C93.0095 100.154 94.1563 101.301 95.571 101.301Z" fill="url(#paint12_radial_453_11524)" stroke="url(#paint13_linear_453_11524)" stroke-width="1.41" stroke-miterlimit="10"/>
<path d="M95.2904 154.657C96.6637 154.317 97.5018 152.929 97.1625 151.556C96.8231 150.182 95.4348 149.344 94.0614 149.683C92.6881 150.023 91.8499 151.411 92.1892 152.785C92.5286 154.158 93.917 154.996 95.2904 154.657Z" fill="url(#paint14_radial_453_11524)" stroke="url(#paint15_linear_453_11524)" stroke-width="1.41" stroke-miterlimit="10"/>
<path d="M175.468 94.6049C176.883 94.6049 178.03 93.458 178.03 92.0434C178.03 90.6287 176.883 89.4819 175.468 89.4819C174.054 89.4819 172.907 90.6287 172.907 92.0434C172.907 93.458 174.054 94.6049 175.468 94.6049Z" fill="url(#paint16_radial_453_11524)" stroke="url(#paint17_linear_453_11524)" stroke-width="1.41" stroke-miterlimit="10"/>
<defs>
<linearGradient id="paint0_linear_453_11524" x1="58893.4" y1="69001.1" x2="57948" y2="69652.2" gradientUnits="userSpaceOnUse">
<stop offset="0.01" stop-color="#FDE7ED" stop-opacity="0"/>
<stop offset="1" stop-color="#CD6982" stop-opacity="0.3"/>
</linearGradient>
<linearGradient id="paint1_linear_453_11524" x1="1929.68" y1="4673.07" x2="1928.13" y2="4667.18" gradientUnits="userSpaceOnUse">
<stop offset="0.01" stop-color="#F4B0AF" stop-opacity="0"/>
<stop offset="1" stop-color="#CD6982" stop-opacity="0.5"/>
</linearGradient>
<linearGradient id="paint2_linear_453_11524" x1="106416" y1="348952" x2="110136" y2="348952" gradientUnits="userSpaceOnUse">
<stop stop-color="#F7A620"/>
<stop offset="1" stop-color="#F0637B"/>
</linearGradient>
<linearGradient id="paint3_linear_453_11524" x1="131312" y1="18809.8" x2="137217" y2="18809.8" gradientUnits="userSpaceOnUse">
<stop stop-color="#F7A620"/>
<stop offset="1" stop-color="#F0637B"/>
</linearGradient>
<radialGradient id="paint4_radial_453_11524" cx="0" cy="0" r="1" gradientUnits="userSpaceOnUse" gradientTransform="translate(8064.05 15920.7) scale(1232.8 1232.81)">
<stop stop-color="#F7A620"/>
<stop offset="1" stop-color="#F0637B"/>
</radialGradient>
<linearGradient id="paint5_linear_453_11524" x1="8249.4" y1="15558.6" x2="8278.81" y2="15558.6" gradientUnits="userSpaceOnUse">
<stop stop-color="#F7A620"/>
<stop offset="1" stop-color="#F0637B"/>
</linearGradient>
<radialGradient id="paint6_radial_453_11524" cx="0" cy="0" r="1" gradientUnits="userSpaceOnUse" gradientTransform="translate(9234.67 16096.2) scale(1232.8 1232.83)">
<stop stop-color="#F7A620"/>
<stop offset="1" stop-color="#F0637B"/>
</radialGradient>
<linearGradient id="paint7_linear_453_11524" x1="9743.75" y1="16265.7" x2="9773.15" y2="16265.7" gradientUnits="userSpaceOnUse">
<stop stop-color="#F7A620"/>
<stop offset="1" stop-color="#F0637B"/>
</linearGradient>
<radialGradient id="paint8_radial_453_11524" cx="0" cy="0" r="1" gradientUnits="userSpaceOnUse" gradientTransform="translate(8645.33 15800.5) scale(1232.77)">
<stop stop-color="#F7A620"/>
<stop offset="1" stop-color="#F0637B"/>
</radialGradient>
<linearGradient id="paint9_linear_453_11524" x1="9912.84" y1="16058.8" x2="9942.24" y2="16058.8" gradientUnits="userSpaceOnUse">
<stop stop-color="#F7A620"/>
<stop offset="1" stop-color="#F0637B"/>
</linearGradient>
<radialGradient id="paint10_radial_453_11524" cx="0" cy="0" r="1" gradientUnits="userSpaceOnUse" gradientTransform="translate(8366.22 15476.5) scale(555.717 555.734)">
<stop stop-color="#F7A620"/>
<stop offset="1" stop-color="#F0637B"/>
</radialGradient>
<linearGradient id="paint11_linear_453_11524" x1="8776.89" y1="15490.6" x2="8801.15" y2="15490.6" gradientUnits="userSpaceOnUse">
<stop stop-color="#F7A620"/>
<stop offset="1" stop-color="#F0637B"/>
</linearGradient>
<radialGradient id="paint12_radial_453_11524" cx="0" cy="0" r="1" gradientUnits="userSpaceOnUse" gradientTransform="translate(14483.2 31833.7) scale(2222.89)">
<stop stop-color="#F7A620"/>
<stop offset="1" stop-color="#F0637B"/>
</radialGradient>
<linearGradient id="paint13_linear_453_11524" x1="14703.4" y1="31012.1" x2="14793.2" y2="31012.1" gradientUnits="userSpaceOnUse">
<stop stop-color="#F7A620"/>
<stop offset="1" stop-color="#F0637B"/>
</linearGradient>
<radialGradient id="paint14_radial_453_11524" cx="0" cy="0" r="1" gradientUnits="userSpaceOnUse" gradientTransform="translate(14806.4 28608.5) scale(2222.85 2222.88)">
<stop stop-color="#F7A620"/>
<stop offset="1" stop-color="#F0637B"/>
</radialGradient>
<linearGradient id="paint15_linear_453_11524" x1="14431.6" y1="29011.5" x2="14521.3" y2="29011.5" gradientUnits="userSpaceOnUse">
<stop stop-color="#F7A620"/>
<stop offset="1" stop-color="#F0637B"/>
</linearGradient>
<radialGradient id="paint16_radial_453_11524" cx="0" cy="0" r="1" gradientUnits="userSpaceOnUse" gradientTransform="translate(14611.9 31750.6) scale(2222.85 2222.89)">
<stop stop-color="#F7A620"/>
<stop offset="1" stop-color="#F0637B"/>
</radialGradient>
<linearGradient id="paint17_linear_453_11524" x1="16071" y1="30897.4" x2="16160.8" y2="30897.4" gradientUnits="userSpaceOnUse">
<stop stop-color="#F7A620"/>
<stop offset="1" stop-color="#F0637B"/>
</linearGradient>
</defs>
</svg>
