<svg width="240" height="65" viewBox="0 0 240 65" fill="none" xmlns="http://www.w3.org/2000/svg">
<g clip-path="url(#clip0_62_8094)">
<path d="M32.3181 46.5823C40.3349 46.5823 46.8337 40.0855 46.8337 32.0714C46.8337 24.0573 40.3349 17.5605 32.3181 17.5605C24.3013 17.5605 17.8024 24.0573 17.8024 32.0714C17.8024 40.0855 24.3013 46.5823 32.3181 46.5823Z" fill="url(#paint0_radial_62_8094)"/>
<path d="M62.4603 34.3261C61.8625 34.3261 61.2892 34.0889 60.8663 33.6666C60.4434 33.2443 60.2055 32.6714 60.2048 32.0739C60.2126 25.5499 57.9287 19.2303 53.7516 14.2177C49.5746 9.20515 43.7695 5.81784 37.3494 4.6468C37.0082 4.584 36.6574 4.59698 36.3217 4.68482C35.9861 4.77265 35.6739 4.93319 35.4072 5.15506C35.1457 5.36965 34.9355 5.64004 34.7921 5.94639C34.6486 6.25275 34.5756 6.58732 34.5783 6.92556C34.5744 7.46522 34.7605 7.98905 35.1042 8.40526C35.4478 8.82147 35.927 9.1035 36.4578 9.20192C40.7812 9.98858 44.7942 11.9805 48.0343 14.948C51.2744 17.9156 53.6097 21.738 54.7711 25.9747C55.0356 26.9574 55.0702 27.9879 54.8722 28.9862C54.6742 29.9844 54.249 30.9237 53.6294 31.7313C53.0099 32.5388 52.2127 33.193 51.2995 33.6429C50.3864 34.0929 49.3819 34.3267 48.3639 34.3261C46.9145 34.331 45.5039 33.8585 44.3501 32.9815C43.1963 32.1046 42.3636 30.8722 41.9807 29.4747C41.3502 27.1376 39.8918 25.109 37.8768 23.7665C35.8619 22.4239 33.4277 21.8588 31.0272 22.1764C28.6266 22.4939 26.4232 23.6724 24.8269 25.4926C23.2307 27.3128 22.3502 29.6508 22.3494 32.0715C22.3494 32.6694 22.1118 33.2429 21.6888 33.6658C21.2658 34.0886 20.6922 34.3261 20.094 34.3261C19.4958 34.3261 18.9221 34.0886 18.4992 33.6658C18.0762 33.2429 17.8386 32.6694 17.8386 32.0715C17.8373 28.556 19.1143 25.16 21.4318 22.516C23.7493 19.8719 26.9493 18.1602 30.4355 17.6995C33.9218 17.2389 37.4567 18.0609 40.3818 20.0122C43.3068 21.9636 45.4226 24.9114 46.335 28.3064C46.4603 28.746 46.7269 29.132 47.0936 29.405C47.4603 29.6779 47.9067 29.8227 48.3639 29.8168C48.6905 29.8173 49.0128 29.742 49.3055 29.597C49.5982 29.452 49.8532 29.2411 50.0506 28.9809C50.248 28.7252 50.3834 28.4273 50.4461 28.1104C50.5088 27.7936 50.4971 27.4666 50.4121 27.155C49.4762 23.7423 47.5954 20.6631 44.986 18.2719C42.3767 15.8808 39.1449 14.2748 35.6627 13.639C33.8812 13.3081 32.3043 12.2833 31.2787 10.79C30.2531 9.29677 29.8629 7.45741 30.194 5.67658C30.525 3.89574 31.5502 2.31931 33.0439 1.29407C34.5377 0.268833 36.3776 -0.121224 38.159 0.209708C45.6183 1.5698 52.3631 5.50488 57.2166 11.3284C62.0701 17.1519 64.7241 24.494 64.7157 32.0739C64.715 32.6714 64.4771 33.2443 64.0542 33.6666C63.6313 34.0889 63.058 34.3261 62.4603 34.3261Z" fill="url(#paint1_radial_62_8094)"/>
<path d="M32.3133 64.4584C14.453 64.4584 -0.0795177 49.9259 -0.0795177 32.074C-0.0861115 25.9525 1.64505 19.9549 4.9128 14.7779C8.18056 9.60096 12.8507 5.45722 18.3807 2.82821C19.2908 2.39376 20.2856 2.16567 21.2941 2.16025C22.3026 2.15484 23.2998 2.37223 24.2145 2.7969C25.1404 3.22192 25.9611 3.84602 26.618 4.62467C27.2749 5.40332 27.7517 6.31732 28.0145 7.30144C28.4158 8.82993 28.2675 10.4508 27.5954 11.8811C26.9234 13.3115 25.7703 14.4605 24.3374 15.1278C20.5394 16.9196 17.4536 19.9348 15.575 23.6896C13.6964 27.4445 13.1339 31.7213 13.9779 35.8339C14.8218 39.9466 17.0232 43.6566 20.2288 46.3689C23.4344 49.0811 27.4585 50.6383 31.6554 50.7907C32.9721 50.837 34.29 50.7466 35.588 50.5209C36.106 50.4317 36.6386 50.3137 37.1783 50.1668C40.0674 49.3935 42.7295 47.9404 44.9424 45.929C47.1553 43.9176 48.8547 41.4061 49.8988 38.6043C50.3473 37.3832 51.1351 36.3154 52.1696 35.5263C53.2042 34.7373 54.4426 34.2598 55.7392 34.1501C57.0358 34.0403 58.3368 34.3027 59.4894 34.9066C60.642 35.5104 61.5983 36.4305 62.2458 37.5589C62.7436 38.4181 63.0459 39.3763 63.1313 40.3655C63.2167 41.3547 63.083 42.3506 62.7398 43.2823C60.9403 48.1458 58 52.5067 54.1656 55.9991C50.3313 59.4914 45.7147 62.0132 40.7036 63.3528C39.8313 63.5937 38.9012 63.7984 37.947 63.967C36.0868 64.2932 34.2018 64.4576 32.3133 64.4584ZM21.3229 6.66791C20.9757 6.67183 20.6338 6.75418 20.3229 6.90879C14.6107 9.63025 9.99399 14.2125 7.23081 19.9032C4.46763 25.5938 3.72222 32.0546 5.117 38.2247C6.51178 44.3947 9.96382 49.9073 14.9063 53.8572C19.8488 57.8071 25.9879 59.9596 32.3157 59.9611C33.9415 59.9611 35.5643 59.8217 37.1663 59.5444C37.9807 59.3999 38.7759 59.2216 39.5253 59.0169C43.841 57.863 47.8165 55.6904 51.1177 52.6816C54.4189 49.6728 56.9494 45.9157 58.4964 41.7262C58.6117 41.4143 58.6561 41.0806 58.6265 40.7494C58.597 40.4182 58.4941 40.0977 58.3253 39.8112C58.1049 39.4255 57.7788 39.111 57.3853 38.9047C56.9919 38.6984 56.5476 38.6089 56.105 38.6469C55.6623 38.6849 55.2398 38.8487 54.8873 39.1191C54.5348 39.3894 54.267 39.7549 54.1157 40.1725C52.8217 43.6507 50.7141 46.769 47.9688 49.2669C45.2236 51.7649 41.9203 53.57 38.3349 54.5316C37.6651 54.7123 36.9928 54.8616 36.3446 54.9724C30.7956 55.9516 25.0798 54.8829 20.2598 51.9652C15.4399 49.0475 11.8438 44.4793 10.1404 39.11C8.43691 33.7407 8.74192 27.9357 10.9987 22.7743C13.2555 17.6129 17.3105 13.4465 22.4096 11.0496C22.8881 10.8342 23.2758 10.4577 23.5048 9.9857C23.7338 9.51372 23.7897 8.9763 23.6627 8.46731C23.5256 7.95291 23.2228 7.49794 22.8012 7.17271C22.3796 6.84748 21.8626 6.67007 21.3301 6.66791H21.3229Z" fill="#28B1DA"/>
<path d="M81.9518 45.72C81.9411 45.6234 81.9512 45.5257 81.9815 45.4333C82.0117 45.3409 82.0613 45.256 82.1271 45.1844C82.1928 45.1128 82.2731 45.056 82.3625 45.0179C82.452 44.9799 82.5486 44.9614 82.6458 44.9637C82.7438 44.9609 82.8414 44.9789 82.932 45.0166C83.0225 45.0542 83.1041 45.1106 83.1713 45.1821C83.2385 45.2536 83.2897 45.3385 83.3217 45.4312C83.3536 45.5239 83.3655 45.6224 83.3566 45.72V54.3678C83.3545 54.3806 83.3555 54.3937 83.3595 54.406C83.3635 54.4184 83.3704 54.4296 83.3796 54.4388C83.3887 54.448 83.4 54.4548 83.4123 54.4588C83.4247 54.4628 83.4378 54.4638 83.4506 54.4617H88.106C88.1968 54.4539 88.2882 54.4651 88.3745 54.4945C88.4607 54.5239 88.54 54.5708 88.6071 54.6325C88.6742 54.6941 88.7278 54.7689 88.7645 54.8523C88.8012 54.9357 88.8201 55.0258 88.8201 55.1169C88.8201 55.208 88.8012 55.2981 88.7645 55.3815C88.7278 55.4649 88.6742 55.5398 88.6071 55.6014C88.54 55.663 88.4607 55.71 88.3745 55.7394C88.2882 55.7688 88.1968 55.7799 88.106 55.7721H82.6289C82.5368 55.7789 82.4443 55.7654 82.3579 55.7327C82.2716 55.7 82.1934 55.6488 82.1289 55.5827C82.0644 55.5166 82.0151 55.4373 81.9845 55.3501C81.9539 55.263 81.9428 55.1703 81.9518 55.0784V45.72Z" fill="#808083"/>
<path d="M97.0771 45.72C97.069 45.6231 97.0812 45.5255 97.1128 45.4335C97.1444 45.3415 97.1947 45.2571 97.2606 45.1855C97.3265 45.1139 97.4065 45.0568 97.4956 45.0177C97.5847 44.9787 97.681 44.9585 97.7783 44.9585C97.8756 44.9585 97.9719 44.9787 98.061 45.0177C98.1501 45.0568 98.2301 45.1139 98.296 45.1855C98.3619 45.2571 98.4122 45.3415 98.4438 45.4335C98.4754 45.5255 98.4876 45.6231 98.4795 45.72V55.0928C98.4876 55.1898 98.4754 55.2873 98.4438 55.3793C98.4122 55.4713 98.3619 55.5558 98.296 55.6274C98.2301 55.6989 98.1501 55.7561 98.061 55.7951C97.9719 55.8342 97.8756 55.8544 97.7783 55.8544C97.681 55.8544 97.5847 55.8342 97.4956 55.7951C97.4065 55.7561 97.3265 55.6989 97.2606 55.6274C97.1947 55.5558 97.1444 55.4713 97.1128 55.3793C97.0812 55.2873 97.069 55.1898 97.0771 55.0928V45.72Z" fill="#808083"/>
<path d="M110.889 53.5006H110.937L113.573 45.5274C113.603 45.373 113.685 45.2336 113.806 45.133C113.927 45.0324 114.079 44.9768 114.236 44.9757C114.325 44.9718 114.414 44.9861 114.497 45.0177C114.58 45.0494 114.656 45.0978 114.719 45.1598C114.783 45.2219 114.833 45.2964 114.867 45.3787C114.901 45.461 114.917 45.5493 114.916 45.6382C114.913 45.7566 114.891 45.8738 114.851 45.9851L111.742 55.0592C111.537 55.6252 111.316 55.8637 110.875 55.8637C110.434 55.8637 110.212 55.6228 110.022 55.0592L106.913 45.9851C106.873 45.8738 106.851 45.7566 106.848 45.6382C106.846 45.5493 106.863 45.461 106.897 45.3787C106.93 45.2964 106.981 45.2219 107.044 45.1598C107.108 45.0978 107.184 45.0494 107.267 45.0177C107.35 44.9861 107.439 44.9718 107.528 44.9757C107.687 44.9761 107.841 45.0311 107.965 45.1315C108.089 45.2319 108.174 45.3716 108.207 45.5274L110.889 53.5006Z" fill="#808083"/>
<path d="M123.284 45.6744C123.278 45.5898 123.29 45.5049 123.319 45.4254C123.349 45.3458 123.395 45.2736 123.455 45.2137C123.515 45.1537 123.587 45.1074 123.667 45.078C123.746 45.0486 123.831 45.0367 123.916 45.0432H129.441C129.53 45.0378 129.62 45.0507 129.704 45.0811C129.788 45.1116 129.865 45.1588 129.93 45.2201C129.995 45.2814 130.047 45.3553 130.082 45.4373C130.118 45.5194 130.136 45.6079 130.136 45.6972C130.136 45.7866 130.118 45.8751 130.082 45.9571C130.047 46.0392 129.995 46.1131 129.93 46.1744C129.865 46.2356 129.788 46.2829 129.704 46.3133C129.62 46.3438 129.53 46.3567 129.441 46.3512H124.783C124.77 46.3496 124.757 46.351 124.745 46.3553C124.732 46.3596 124.721 46.3667 124.712 46.376C124.703 46.3854 124.696 46.3967 124.692 46.4091C124.688 46.4215 124.687 46.4347 124.689 46.4476V49.6032C124.687 49.616 124.688 49.6291 124.692 49.6414C124.696 49.6538 124.703 49.665 124.712 49.6742C124.721 49.6834 124.732 49.6902 124.745 49.6942C124.757 49.6982 124.77 49.6992 124.783 49.6971H128.675C128.849 49.6971 129.015 49.7662 129.138 49.889C129.261 50.0119 129.33 50.1786 129.33 50.3523C129.33 50.5261 129.261 50.6927 129.138 50.8156C129.015 50.9385 128.849 51.0075 128.675 51.0075H124.783C124.77 51.0055 124.757 51.0065 124.745 51.0104C124.732 51.0144 124.721 51.0213 124.712 51.0305C124.703 51.0396 124.696 51.0509 124.692 51.0632C124.688 51.0756 124.687 51.0887 124.689 51.1015V54.3679C124.687 54.3807 124.688 54.3938 124.692 54.4061C124.696 54.4185 124.703 54.4297 124.712 54.4389C124.721 54.4481 124.732 54.4549 124.745 54.4589C124.757 54.4629 124.77 54.4639 124.783 54.4618H129.441C129.527 54.4618 129.612 54.4788 129.692 54.5117C129.771 54.5446 129.844 54.5929 129.904 54.6537C129.965 54.7146 130.014 54.7868 130.046 54.8663C130.079 54.9458 130.096 55.031 130.096 55.117C130.096 55.2031 130.079 55.2883 130.046 55.3678C130.014 55.4472 129.965 55.5195 129.904 55.5803C129.844 55.6412 129.771 55.6894 129.692 55.7223C129.612 55.7553 129.527 55.7722 129.441 55.7722H123.916C123.831 55.7787 123.746 55.7669 123.667 55.7374C123.587 55.708 123.515 55.6618 123.455 55.6018C123.395 55.5418 123.349 55.4696 123.319 55.3901C123.29 55.3106 123.278 55.2256 123.284 55.1411V45.6744Z" fill="#808083"/>
<path d="M149.255 45.6743C149.249 45.5906 149.261 45.5066 149.291 45.428C149.32 45.3493 149.365 45.2777 149.424 45.2182C149.484 45.1586 149.555 45.1124 149.633 45.0826C149.712 45.0529 149.796 45.0403 149.879 45.0456H153.21C155.357 45.0456 156.446 46.1489 156.446 47.8543C156.446 49.0997 155.877 49.873 155 50.2054V50.2367C155.773 50.4414 156.643 51.3086 156.643 52.713C156.643 54.734 155.349 55.7746 153.171 55.7746H149.879C149.795 55.7824 149.709 55.7714 149.629 55.7424C149.549 55.7135 149.476 55.6672 149.416 55.607C149.356 55.5468 149.309 55.474 149.28 55.3939C149.251 55.3138 149.24 55.2283 149.248 55.1435L149.255 45.6743ZM153.186 49.6827C154.369 49.6827 155.065 49.0034 155.065 47.9965C155.065 46.9896 154.369 46.3103 153.186 46.3103H150.754C150.741 46.3086 150.728 46.31 150.716 46.3143C150.703 46.3186 150.692 46.3257 150.683 46.3351C150.674 46.3444 150.667 46.3557 150.663 46.3682C150.659 46.3806 150.658 46.3937 150.66 46.4066V49.5767C150.658 49.5896 150.659 49.6027 150.663 49.6152C150.667 49.6276 150.674 49.6389 150.683 49.6482C150.692 49.6576 150.703 49.6647 150.716 49.669C150.728 49.6733 150.741 49.6747 150.754 49.673L153.186 49.6827ZM150.754 54.5003H153.265C154.545 54.5003 155.239 53.8066 155.239 52.7347C155.239 51.6627 154.545 50.9666 153.265 50.9666H150.754C150.741 50.9645 150.728 50.9655 150.716 50.9695C150.704 50.9735 150.692 50.9803 150.683 50.9895C150.674 50.9987 150.667 51.0099 150.663 51.0223C150.659 51.0346 150.658 51.0477 150.66 51.0605V54.4064C150.659 54.4186 150.661 54.4309 150.666 54.4423C150.67 54.4537 150.677 54.464 150.686 54.4723C150.695 54.4806 150.706 54.4868 150.718 54.4904C150.73 54.494 150.742 54.4949 150.754 54.4931V54.5003Z" fill="#808083"/>
<path d="M165.422 45.6744C165.415 45.5898 165.427 45.5049 165.456 45.4254C165.486 45.3458 165.532 45.2736 165.592 45.2137C165.652 45.1537 165.724 45.1074 165.804 45.078C165.883 45.0486 165.968 45.0367 166.053 45.0432H171.578C171.668 45.0378 171.757 45.0507 171.841 45.0811C171.925 45.1116 172.002 45.1588 172.067 45.2201C172.132 45.2814 172.184 45.3553 172.22 45.4373C172.255 45.5194 172.273 45.6079 172.273 45.6972C172.273 45.7866 172.255 45.8751 172.22 45.9571C172.184 46.0392 172.132 46.1131 172.067 46.1744C172.002 46.2356 171.925 46.2829 171.841 46.3133C171.757 46.3438 171.668 46.3567 171.578 46.3512H166.923C166.91 46.3492 166.896 46.3503 166.884 46.3544C166.871 46.3585 166.86 46.3655 166.85 46.3749C166.841 46.3843 166.834 46.3958 166.83 46.4084C166.826 46.421 166.824 46.4345 166.827 46.4476V49.6032C166.825 49.6161 166.826 49.6293 166.831 49.6416C166.835 49.6539 166.842 49.665 166.851 49.6741C166.861 49.6832 166.872 49.6901 166.884 49.694C166.897 49.698 166.91 49.6991 166.923 49.6971H170.805C170.979 49.6971 171.145 49.7662 171.268 49.889C171.391 50.0119 171.46 50.1786 171.46 50.3523C171.46 50.5261 171.391 50.6927 171.268 50.8156C171.145 50.9385 170.979 51.0075 170.805 51.0075H166.923C166.91 51.0056 166.897 51.0066 166.884 51.0106C166.872 51.0146 166.861 51.0214 166.851 51.0305C166.842 51.0396 166.835 51.0508 166.831 51.0631C166.826 51.0754 166.825 51.0885 166.827 51.1015V54.3679C166.825 54.3808 166.826 54.3939 166.831 54.4062C166.835 54.4186 166.842 54.4297 166.851 54.4388C166.861 54.4479 166.872 54.4547 166.884 54.4587C166.897 54.4627 166.91 54.4638 166.923 54.4618H171.578C171.664 54.4618 171.75 54.4788 171.829 54.5117C171.909 54.5446 171.981 54.5929 172.042 54.6537C172.103 54.7145 172.151 54.7868 172.184 54.8663C172.217 54.9458 172.234 55.031 172.234 55.117C172.234 55.203 172.217 55.2882 172.184 55.3677C172.151 55.4472 172.103 55.5195 172.042 55.5803C171.981 55.6411 171.909 55.6894 171.829 55.7223C171.75 55.7553 171.664 55.7722 171.578 55.7722H166.053C165.969 55.7783 165.884 55.7662 165.804 55.7366C165.725 55.707 165.653 55.6608 165.593 55.6009C165.533 55.541 165.487 55.469 165.457 55.3896C165.428 55.3103 165.416 55.2255 165.422 55.1411V45.6744Z" fill="#808083"/>
<path d="M187.13 45.0456C187.219 45.0402 187.309 45.0531 187.393 45.0835C187.477 45.1139 187.554 45.1612 187.619 45.2225C187.684 45.2837 187.736 45.3577 187.771 45.4397C187.807 45.5218 187.825 45.6102 187.825 45.6996C187.825 45.789 187.807 45.8774 187.771 45.9595C187.736 46.0415 187.684 46.1155 187.619 46.1767C187.554 46.238 187.477 46.2853 187.393 46.3157C187.309 46.3461 187.219 46.359 187.13 46.3536H184.651C184.638 46.352 184.625 46.3533 184.612 46.3576C184.6 46.362 184.589 46.3691 184.58 46.3784C184.57 46.3877 184.564 46.3991 184.56 46.4115C184.556 46.4239 184.555 46.4371 184.557 46.45V55.0953C184.562 55.191 184.548 55.2868 184.515 55.3768C184.483 55.4669 184.432 55.5493 184.366 55.619C184.3 55.6888 184.221 55.7443 184.133 55.7823C184.045 55.8202 183.95 55.8398 183.854 55.8398C183.758 55.8398 183.663 55.8202 183.575 55.7823C183.487 55.7443 183.408 55.6888 183.342 55.619C183.277 55.5493 183.226 55.4669 183.193 55.3768C183.16 55.2868 183.146 55.191 183.152 55.0953V46.4476C183.154 46.4347 183.153 46.4215 183.149 46.4091C183.145 46.3966 183.138 46.3853 183.129 46.376C183.12 46.3666 183.109 46.3595 183.096 46.3552C183.084 46.3509 183.071 46.3496 183.058 46.3512H180.578C180.489 46.3566 180.4 46.3437 180.316 46.3133C180.231 46.2829 180.155 46.2356 180.089 46.1743C180.024 46.1131 179.972 46.0391 179.937 45.9571C179.901 45.875 179.883 45.7866 179.883 45.6972C179.883 45.6078 179.901 45.5194 179.937 45.4373C179.972 45.3553 180.024 45.2813 180.089 45.2201C180.155 45.1588 180.231 45.1115 180.316 45.0811C180.4 45.0507 180.489 45.0378 180.578 45.0432L187.13 45.0456Z" fill="#808083"/>
<path d="M202.41 45.0456C202.499 45.0402 202.588 45.0531 202.672 45.0835C202.756 45.1139 202.833 45.1612 202.899 45.2225C202.964 45.2837 203.016 45.3577 203.051 45.4397C203.087 45.5218 203.105 45.6102 203.105 45.6996C203.105 45.789 203.087 45.8774 203.051 45.9595C203.016 46.0415 202.964 46.1155 202.899 46.1767C202.833 46.238 202.756 46.2853 202.672 46.3157C202.588 46.3461 202.499 46.359 202.41 46.3536H199.935C199.922 46.3515 199.908 46.3526 199.896 46.3567C199.883 46.3609 199.872 46.3679 199.862 46.3773C199.853 46.3867 199.846 46.3982 199.842 46.4108C199.838 46.4234 199.837 46.4368 199.839 46.45V55.0953C199.844 55.191 199.83 55.2868 199.797 55.3768C199.765 55.4669 199.714 55.5493 199.648 55.619C199.582 55.6888 199.503 55.7443 199.415 55.7823C199.327 55.8202 199.232 55.8398 199.136 55.8398C199.04 55.8398 198.945 55.8202 198.857 55.7823C198.769 55.7443 198.69 55.6888 198.624 55.619C198.559 55.5493 198.508 55.4669 198.475 55.3768C198.442 55.2868 198.428 55.191 198.434 55.0953V46.4476C198.436 46.4347 198.435 46.4215 198.431 46.4091C198.427 46.3966 198.42 46.3853 198.411 46.376C198.402 46.3666 198.391 46.3595 198.378 46.3552C198.366 46.3509 198.353 46.3496 198.34 46.3512H195.863C195.773 46.3566 195.684 46.3437 195.6 46.3133C195.516 46.2829 195.439 46.2356 195.374 46.1743C195.309 46.1131 195.257 46.0391 195.221 45.9571C195.186 45.875 195.168 45.7866 195.168 45.6972C195.168 45.6078 195.186 45.5194 195.221 45.4373C195.257 45.3553 195.309 45.2813 195.374 45.2201C195.439 45.1588 195.516 45.1115 195.6 45.0811C195.684 45.0507 195.773 45.0378 195.863 45.0432L202.41 45.0456Z" fill="#808083"/>
<path d="M211.325 45.6744C211.319 45.5898 211.331 45.5049 211.36 45.4254C211.39 45.3458 211.436 45.2736 211.496 45.2137C211.556 45.1537 211.628 45.1074 211.708 45.078C211.787 45.0486 211.872 45.0367 211.957 45.0432H217.48C217.569 45.0378 217.658 45.0507 217.742 45.0811C217.826 45.1116 217.903 45.1588 217.968 45.2201C218.034 45.2814 218.085 45.3553 218.121 45.4373C218.156 45.5194 218.175 45.6079 218.175 45.6972C218.175 45.7866 218.156 45.8751 218.121 45.9571C218.085 46.0392 218.034 46.1131 217.968 46.1744C217.903 46.2356 217.826 46.2829 217.742 46.3133C217.658 46.3438 217.569 46.3567 217.48 46.3512H212.834C212.821 46.3496 212.808 46.351 212.795 46.3553C212.783 46.3596 212.772 46.3667 212.763 46.376C212.754 46.3854 212.747 46.3967 212.743 46.4091C212.739 46.4215 212.738 46.4347 212.74 46.4476V49.6032C212.738 49.616 212.739 49.6291 212.743 49.6414C212.747 49.6538 212.754 49.665 212.763 49.6742C212.772 49.6834 212.783 49.6902 212.795 49.6942C212.808 49.6982 212.821 49.6992 212.834 49.6971H216.716C216.806 49.6893 216.898 49.7005 216.984 49.7299C217.07 49.7593 217.15 49.8062 217.217 49.8678C217.284 49.9294 217.338 50.0043 217.374 50.0877C217.411 50.1711 217.43 50.2612 217.43 50.3523C217.43 50.4434 217.411 50.5335 217.374 50.6169C217.338 50.7003 217.284 50.7752 217.217 50.8368C217.15 50.8984 217.07 50.9454 216.984 50.9748C216.898 51.0042 216.806 51.0153 216.716 51.0075H212.834C212.821 51.0055 212.808 51.0065 212.795 51.0104C212.783 51.0144 212.772 51.0213 212.763 51.0305C212.754 51.0396 212.747 51.0509 212.743 51.0632C212.739 51.0756 212.738 51.0887 212.74 51.1015V54.3679C212.738 54.3807 212.739 54.3938 212.743 54.4061C212.747 54.4185 212.754 54.4297 212.763 54.4389C212.772 54.4481 212.783 54.4549 212.795 54.4589C212.808 54.4629 212.821 54.4639 212.834 54.4618H217.489C217.575 54.4618 217.661 54.4788 217.74 54.5117C217.82 54.5446 217.892 54.5929 217.953 54.6537C218.014 54.7146 218.062 54.7868 218.095 54.8663C218.128 54.9458 218.145 55.031 218.145 55.117C218.145 55.2031 218.128 55.2883 218.095 55.3678C218.062 55.4472 218.014 55.5195 217.953 55.5803C217.892 55.6412 217.82 55.6894 217.74 55.7223C217.661 55.7553 217.575 55.7722 217.489 55.7722H211.966C211.882 55.7787 211.797 55.7669 211.717 55.7374C211.638 55.708 211.565 55.6618 211.505 55.6018C211.445 55.5418 211.399 55.4696 211.37 55.3901C211.34 55.3106 211.328 55.2256 211.335 55.1411L211.325 45.6744Z" fill="#808083"/>
<path d="M226.853 55.0929V45.6744C226.846 45.5898 226.858 45.5049 226.888 45.4254C226.917 45.3458 226.964 45.2736 227.023 45.2137C227.083 45.1537 227.156 45.1074 227.235 45.078C227.315 45.0486 227.4 45.0367 227.484 45.0432H230.858C232.942 45.0432 234.253 46.2477 234.253 48.1362C234.253 49.5815 233.494 50.6125 232.217 51.0268L234.145 54.8135C234.207 54.9307 234.239 55.0614 234.239 55.1941C234.24 55.2828 234.224 55.3709 234.19 55.453C234.157 55.5351 234.106 55.6095 234.043 55.6715C233.98 55.7336 233.904 55.782 233.821 55.8138C233.739 55.8456 233.65 55.8602 233.561 55.8565C233.418 55.8548 233.278 55.8121 233.157 55.7337C233.037 55.6552 232.941 55.544 232.882 55.4133L230.766 51.2315H228.369C228.356 51.2295 228.342 51.2306 228.329 51.2347C228.317 51.2388 228.305 51.2458 228.296 51.2552C228.287 51.2646 228.28 51.2761 228.275 51.2887C228.271 51.3014 228.27 51.3148 228.272 51.3279V55.0977C228.278 55.1934 228.264 55.2892 228.231 55.3793C228.198 55.4693 228.148 55.5518 228.082 55.6215C228.016 55.6912 227.937 55.7468 227.849 55.7847C227.761 55.8227 227.666 55.8423 227.57 55.8423C227.474 55.8423 227.379 55.8227 227.291 55.7847C227.203 55.7468 227.124 55.6912 227.058 55.6215C226.992 55.5518 226.941 55.4693 226.909 55.3793C226.876 55.2892 226.862 55.1934 226.867 55.0977L226.853 55.0929ZM232.851 48.1362C232.851 47.0137 232.111 46.3512 230.863 46.3512H228.354C228.341 46.3492 228.328 46.3503 228.315 46.3544C228.302 46.3585 228.291 46.3655 228.281 46.3749C228.272 46.3843 228.265 46.3958 228.261 46.4084C228.257 46.421 228.256 46.4345 228.258 46.4476V49.82C228.256 49.8331 228.257 49.8465 228.261 49.8591C228.265 49.8718 228.272 49.8833 228.281 49.8926C228.291 49.902 228.302 49.9091 228.315 49.9132C228.328 49.9173 228.341 49.9184 228.354 49.9163H230.863C232.111 49.9187 232.851 49.2563 232.851 48.1362Z" fill="#808083"/>
<path d="M122.296 31.5342V22.2313C122.296 19.991 121.195 18.512 119.082 18.512C116.969 18.512 115.904 19.9934 115.904 22.2313V31.5342C115.904 33.4806 114.636 34.6657 112.945 34.6657C111.21 34.6657 109.983 33.483 109.983 31.5342V16.821C109.983 14.8747 111.21 13.6895 112.945 13.6895C114.34 13.6895 115.439 14.4917 115.778 15.8454H115.819C116.836 14.535 118.612 13.4775 121.234 13.4775C125.759 13.4775 128.222 16.65 128.222 21.0895V31.5318C128.222 33.4782 126.995 34.6633 125.263 34.6633C123.564 34.6633 122.296 33.483 122.296 31.5342Z" fill="url(#paint2_radial_62_8094)"/>
<path d="M133.039 29.0413C132.617 27.7718 132.364 26.2928 132.364 24.1778C132.364 22.0098 132.574 20.5405 132.998 19.2734C134.224 15.5517 137.48 13.4922 141.836 13.4922C146.364 13.4922 149.494 15.6071 150.677 19.2421C151.163 20.7875 151.391 22.4019 151.354 24.0212C151.354 25.163 150.631 25.9652 149.41 25.9652H138.537C138.505 25.9626 138.473 25.9671 138.442 25.9783C138.412 25.9895 138.384 26.0072 138.361 26.0301C138.338 26.053 138.321 26.0806 138.31 26.111C138.298 26.1413 138.294 26.1738 138.296 26.206C138.301 26.6101 138.373 27.0106 138.508 27.3912C139.058 29.1256 140.622 30.0554 142.737 30.0554C144.09 30.0228 145.413 29.6598 146.593 28.9979C147.204 28.615 147.904 28.3968 148.624 28.3644C148.912 28.3596 149.198 28.4135 149.465 28.5227C149.731 28.632 149.973 28.7943 150.174 28.9998C150.376 29.2054 150.534 29.4498 150.638 29.7182C150.742 29.9866 150.791 30.2735 150.781 30.5612C150.783 30.9859 150.675 31.4039 150.468 31.7745C150.26 32.1451 149.961 32.4558 149.598 32.6762C147.651 34.03 145.366 34.8755 142.195 34.8755C137.439 34.8755 134.217 32.7196 133.039 29.0413ZM145.263 22.0219C145.297 22.0272 145.333 22.0243 145.366 22.0133C145.4 22.0024 145.43 21.9837 145.455 21.9589C145.48 21.934 145.499 21.9036 145.51 21.8702C145.52 21.8368 145.523 21.8013 145.518 21.7666C145.529 21.2518 145.457 20.7387 145.306 20.2466C144.841 18.8013 143.571 18.0039 141.88 18.0039C140.188 18.0039 138.961 18.8085 138.506 20.2466C138.355 20.7387 138.283 21.2518 138.294 21.7666C138.289 21.8 138.292 21.834 138.302 21.8662C138.312 21.8984 138.33 21.9279 138.353 21.9524C138.376 21.977 138.404 21.996 138.436 22.008C138.467 22.02 138.501 22.0248 138.535 22.0219H145.263Z" fill="url(#paint3_radial_62_8094)"/>
<path d="M201.039 31.9147C201.039 33.4805 199.728 34.6632 198.077 34.6632C197.613 34.6843 197.15 34.5913 196.73 34.3922C196.31 34.1932 195.945 33.8942 195.667 33.5214L195.161 32.7988H195.118C194.06 34.1092 191.863 34.8704 189.323 34.8704C184.08 34.8704 181.542 32.5025 181.542 28.6074C181.542 24.0836 184.916 22.012 190 22.012H193.68C193.714 22.0173 193.75 22.0144 193.783 22.0034C193.817 21.9925 193.847 21.9738 193.872 21.9489C193.897 21.9241 193.915 21.8937 193.926 21.8603C193.937 21.8269 193.94 21.7914 193.935 21.7566V21.5471C193.935 19.6441 192.581 18.5023 189.747 18.5023C188.621 18.5087 187.506 18.7092 186.448 19.0949C186.001 19.2645 185.53 19.3636 185.053 19.3887C183.655 19.3887 182.684 18.4589 182.684 17.0233C182.681 16.5231 182.823 16.0328 183.094 15.612C183.364 15.1911 183.751 14.858 184.207 14.653C185.559 13.9785 187.631 13.4702 190.472 13.4702C196.648 13.4702 199.61 16.6017 199.61 21.7157V27.297C199.61 28.2605 199.694 28.7423 199.99 29.2409L200.54 30.1707C200.866 30.6938 201.039 31.2981 201.039 31.9147ZM193.933 27.6029V26.2058C193.935 26.1721 193.931 26.1383 193.919 26.1068C193.907 26.0752 193.888 26.0468 193.863 26.0236C193.838 26.0005 193.809 25.9832 193.777 25.973C193.745 25.9628 193.711 25.96 193.677 25.9649H190.802C188.306 25.9649 187.164 26.7261 187.164 28.2918C187.164 29.7371 188.181 30.4598 190.125 30.4598C192.622 30.4357 193.933 29.5059 193.933 27.6029Z" fill="url(#paint4_radial_62_8094)"/>
<path d="M204.759 31.5344V16.8212C204.759 14.8748 205.988 13.6897 207.72 13.6897C208.395 13.6611 209.058 13.8764 209.587 14.2962C210.116 14.716 210.477 15.3121 210.602 15.9757V16.0166H210.643C211.566 14.6629 213.475 13.4898 215.8 13.4898C216.541 13.469 217.278 13.613 217.957 13.9113C218.427 14.1129 218.827 14.4493 219.105 14.8781C219.384 15.3069 219.529 15.8088 219.523 16.3201C219.523 18.0545 218.337 19.3216 216.602 19.3216C216.172 19.3131 215.745 19.2425 215.335 19.112C214.839 18.9762 214.327 18.905 213.812 18.9C211.612 18.9 210.68 20.4634 210.68 23.2118V31.5416C210.68 33.488 209.41 34.6731 207.718 34.6731C205.988 34.6635 204.759 33.4831 204.759 31.5344Z" fill="url(#paint5_radial_62_8094)"/>
<path d="M221.764 29.0413C221.342 27.7718 221.087 26.2928 221.087 24.1778C221.087 22.0098 221.299 20.5405 221.723 19.2734C222.949 15.5517 226.205 13.4922 230.561 13.4922C235.087 13.4922 238.217 15.6071 239.402 19.2421C239.888 20.7875 240.117 22.4019 240.08 24.0212C240.08 25.163 239.357 25.9652 238.133 25.9652H227.263C227.229 25.9607 227.196 25.9638 227.164 25.9741C227.132 25.9845 227.103 26.0019 227.078 26.025C227.054 26.0481 227.035 26.0764 227.023 26.1077C227.012 26.1391 227.007 26.1726 227.01 26.206C227.015 26.6099 227.085 27.0102 227.219 27.3912C227.771 29.1256 229.335 30.0554 231.451 30.0554C232.803 30.0228 234.127 29.6598 235.306 28.9979C235.917 28.615 236.617 28.3968 237.337 28.3644C237.625 28.3596 237.911 28.4135 238.178 28.5227C238.444 28.632 238.686 28.7943 238.888 28.9998C239.089 29.2054 239.247 29.4498 239.351 29.7182C239.456 29.9866 239.504 30.2735 239.494 30.5612C239.496 30.9861 239.387 31.4041 239.18 31.7747C238.972 32.1453 238.672 32.4559 238.308 32.6762C236.364 34.03 234.08 34.8755 230.908 34.8755C226.164 34.8755 222.949 32.7196 221.764 29.0413ZM233.988 22.0219C234.022 22.0248 234.055 22.02 234.087 22.008C234.119 21.996 234.147 21.977 234.17 21.9524C234.193 21.9279 234.211 21.8984 234.221 21.8662C234.231 21.834 234.234 21.8 234.229 21.7666C234.239 21.252 234.168 20.7391 234.019 20.2466C233.552 18.8013 232.284 18.0039 230.593 18.0039C228.901 18.0039 227.675 18.8085 227.219 20.2466C227.07 20.7391 227 21.252 227.01 21.7666C227.004 21.8011 227.007 21.8363 227.018 21.8695C227.029 21.9027 227.047 21.9329 227.072 21.9577C227.097 21.9825 227.127 22.0013 227.16 22.0124C227.193 22.0235 227.228 22.0268 227.263 22.0219H233.988Z" fill="url(#paint6_radial_62_8094)"/>
<path d="M105.961 19.9551C105.962 22.9061 105.087 25.7911 103.447 28.245C101.808 30.699 99.4767 32.6117 96.7495 33.7414C94.0223 34.8711 91.0212 35.1669 88.1258 34.5915C85.2305 34.016 82.5708 32.5952 80.4832 30.5086C78.3956 28.4221 76.9739 25.7635 76.3978 22.8692C75.8217 19.9748 76.1171 16.9747 77.2467 14.2483C78.3763 11.5218 80.2893 9.19139 82.7438 7.55181C85.1983 5.91223 88.0841 5.03711 91.0361 5.03711C94.9942 5.03711 98.7901 6.60874 101.589 9.40633C104.388 12.2039 105.961 15.9984 105.961 19.9551ZM91.0361 11.5241C89.3681 11.5241 87.7375 12.0186 86.3506 12.945C84.9637 13.8714 83.8827 15.1881 83.2444 16.7287C82.6061 18.2692 82.439 19.9644 82.7645 21.5999C83.0899 23.2353 83.8931 24.7376 85.0726 25.9167C86.2521 27.0957 87.7548 27.8987 89.3908 28.224C91.0268 28.5493 92.7225 28.3824 94.2636 27.7442C95.8047 27.1061 97.1218 26.0255 98.0485 24.6391C98.9752 23.2526 99.4699 21.6226 99.4699 19.9551C99.4686 17.7199 98.5795 15.5767 96.998 13.9966C95.4165 12.4165 93.2721 11.5289 91.0361 11.5289V11.5241Z" fill="url(#paint7_radial_62_8094)"/>
<path d="M169.651 28.3811C167.414 28.3811 165.269 27.4929 163.687 25.9118C162.105 24.3307 161.217 22.1862 161.217 19.9502C161.217 17.7142 162.105 15.5697 163.687 13.9886C165.269 12.4075 167.414 11.5192 169.651 11.5192C171.315 11.5157 172.943 12.0116 174.323 12.9429C175.566 13.7811 177.243 13.5957 178.395 12.6297C179.906 11.3603 179.911 8.95623 178.306 7.81203C176.074 6.22479 173.448 5.28233 170.716 5.08794C167.984 4.89354 165.251 5.45471 162.817 6.70995C160.383 7.96519 158.341 9.86605 156.916 12.2042C155.49 14.5424 154.736 17.2277 154.736 19.9659C154.736 22.704 155.49 25.3893 156.916 27.7275C158.341 30.0656 160.383 31.9665 162.817 33.2217C165.251 34.477 167.984 35.0382 170.716 34.8438C173.448 34.6494 176.074 33.7069 178.306 32.1197C179.918 30.9682 179.911 28.5546 178.395 27.2827C177.248 26.3192 175.576 26.1313 174.333 26.9671C172.948 27.894 171.317 28.3864 169.651 28.3811Z" fill="url(#paint8_radial_62_8094)"/>
</g>
<defs>
<radialGradient id="paint0_radial_62_8094" cx="0" cy="0" r="1" gradientUnits="userSpaceOnUse" gradientTransform="translate(32.3726 32.054) scale(169.791 169.735)">
<stop stop-color="#F8A721"/>
<stop offset="1" stop-color="#F0637B"/>
</radialGradient>
<radialGradient id="paint1_radial_62_8094" cx="0" cy="0" r="1" gradientUnits="userSpaceOnUse" gradientTransform="translate(32.3726 32.0541) scale(169.791 169.735)">
<stop stop-color="#F8A721"/>
<stop offset="1" stop-color="#F0637B"/>
</radialGradient>
<radialGradient id="paint2_radial_62_8094" cx="0" cy="0" r="1" gradientUnits="userSpaceOnUse" gradientTransform="translate(4429.97 13141.9) scale(16453.6 19114.5)">
<stop stop-color="#F8A721"/>
<stop offset="1" stop-color="#F0637B"/>
</radialGradient>
<radialGradient id="paint3_radial_62_8094" cx="0" cy="0" r="1" gradientUnits="userSpaceOnUse" gradientTransform="translate(4631.34 13262.8) scale(17135.3 19290.5)">
<stop stop-color="#F8A721"/>
<stop offset="1" stop-color="#F0637B"/>
</radialGradient>
<radialGradient id="paint4_radial_62_8094" cx="0" cy="0" r="1" gradientUnits="userSpaceOnUse" gradientTransform="translate(4799.46 13273.2) scale(17588.3 19305.7)">
<stop stop-color="#F8A721"/>
<stop offset="1" stop-color="#F0637B"/>
</radialGradient>
<radialGradient id="paint5_radial_62_8094" cx="0" cy="0" r="1" gradientUnits="userSpaceOnUse" gradientTransform="translate(3701.77 13140.1) scale(13319.1 19111.9)">
<stop stop-color="#F8A721"/>
<stop offset="1" stop-color="#F0637B"/>
</radialGradient>
<radialGradient id="paint6_radial_62_8094" cx="0" cy="0" r="1" gradientUnits="userSpaceOnUse" gradientTransform="translate(4720.63 13262.8) scale(17137.4 19290.5)">
<stop stop-color="#F8A721"/>
<stop offset="1" stop-color="#F0637B"/>
</radialGradient>
<radialGradient id="paint7_radial_62_8094" cx="0" cy="0" r="1" gradientUnits="userSpaceOnUse" gradientTransform="translate(7146.52 18494.7) scale(26929.1 26920.2)">
<stop stop-color="#F8A721"/>
<stop offset="1" stop-color="#F0637B"/>
</radialGradient>
<radialGradient id="paint8_radial_62_8094" cx="0" cy="0" r="1" gradientUnits="userSpaceOnUse" gradientTransform="translate(6025.86 18488.7) scale(22361.4 26911.5)">
<stop stop-color="#F8A721"/>
<stop offset="1" stop-color="#F0637B"/>
</radialGradient>
<clipPath id="clip0_62_8094">
<rect width="240" height="64.557" fill="white"/>
</clipPath>
</defs>
</svg>
