<svg width="36" height="47" viewBox="0 0 36 47" fill="none" xmlns="http://www.w3.org/2000/svg">
<path d="M0.478516 40.4395C0.478516 44.2637 2.45508 46.2402 6.25781 46.2402H29.418C33.1992 46.2402 35.1973 44.2637 35.1973 40.4395V6.62305C35.1973 2.82031 33.1992 0.822266 29.418 0.822266H6.25781C2.45508 0.822266 0.478516 2.82031 0.478516 6.62305V40.4395ZM2.06836 40.3965V6.66602C2.06836 3.87305 3.5293 2.41211 6.34375 2.41211H29.332C32.1465 2.41211 33.6074 3.87305 33.6074 6.66602V40.3965C33.6074 43.1895 32.1465 44.6504 29.332 44.6504H6.34375C3.5293 44.6504 2.06836 43.1895 2.06836 40.3965ZM8.53516 10.3613H27.3125C27.7207 10.3613 28.043 10.0391 28.043 9.63086C28.043 9.24414 27.7207 8.94336 27.3125 8.94336H8.53516C8.12695 8.94336 7.80469 9.24414 7.80469 9.63086C7.80469 10.0391 8.12695 10.3613 8.53516 10.3613ZM8.53516 16.2051H20.5879C21.0176 16.2051 21.3398 15.9043 21.3398 15.4961C21.3398 15.1094 21.0176 14.7871 20.5879 14.7871H8.53516C8.12695 14.7871 7.80469 15.1094 7.80469 15.4961C7.80469 15.9043 8.12695 16.2051 8.53516 16.2051ZM8.92188 40.7188H26.7539C28.6445 40.7188 29.5898 39.7949 29.5898 37.9043V23.4668C29.5898 21.5762 28.6445 20.6523 26.7539 20.6523H8.92188C7.03125 20.6523 6.08594 21.5762 6.08594 23.4668V37.9043C6.08594 39.7949 7.03125 40.7188 8.92188 40.7188Z" fill="#F0647D"/>
</svg>
