<svg width="46" height="23" viewBox="0 0 46 23" fill="none" xmlns="http://www.w3.org/2000/svg">
<path d="M23 11.6445C25.8242 11.6445 28.1211 9.14844 28.1211 6.08984C28.1211 3.06641 25.8477 0.664062 23 0.664062C20.1758 0.664062 17.8672 3.10156 17.8672 6.10156C17.8789 9.16016 20.1641 11.6445 23 11.6445ZM9.40625 11.9141C11.8789 11.9141 13.8711 9.72266 13.8711 7.02734C13.8711 4.39062 11.8789 2.25781 9.40625 2.25781C6.96875 2.25781 4.94141 4.42578 4.95312 7.03906C4.95312 9.73438 6.95703 11.9141 9.40625 11.9141ZM36.5703 11.9141C39.0312 11.9141 41.0234 9.73438 41.0352 7.03906C41.0469 4.42578 39.0195 2.25781 36.5703 2.25781C34.1094 2.25781 32.1055 4.39062 32.1055 7.02734C32.1055 9.72266 34.1094 11.9141 36.5703 11.9141ZM23 9.62891C21.3711 9.62891 20 8.08203 20 6.10156C19.9883 4.17969 21.3594 2.69141 23 2.69141C24.6406 2.69141 26 4.15625 26 6.08984C26 8.05859 24.6289 9.62891 23 9.62891ZM9.40625 9.92188C8.08203 9.92188 6.94531 8.64453 6.94531 7.03906C6.94531 5.50391 8.07031 4.25 9.40625 4.25C10.7773 4.25 11.8906 5.48047 11.8906 7.02734C11.8906 8.64453 10.7539 9.92188 9.40625 9.92188ZM36.5703 9.92188C35.2227 9.92188 34.0977 8.64453 34.0977 7.02734C34.0977 5.48047 35.2109 4.25 36.5703 4.25C37.918 4.25 39.043 5.50391 39.043 7.03906C39.043 8.64453 37.9062 9.92188 36.5703 9.92188ZM2.96094 22.6836H12.0664C11.4336 22.3203 11 21.4766 11.082 20.7031H2.83203C2.60938 20.7031 2.51562 20.6094 2.51562 20.3984C2.51562 17.7031 5.67969 15.125 9.40625 15.125C10.7188 15.125 12.043 15.4531 13.0625 16.0273C13.4492 15.4648 13.9414 14.9844 14.5742 14.5625C13.0859 13.6367 11.2344 13.1445 9.40625 13.1445C4.44922 13.1445 0.441406 16.6953 0.441406 20.5859C0.441406 21.9688 1.28516 22.6836 2.96094 22.6836ZM43.0273 22.6836C44.7031 22.6836 45.5469 21.9688 45.5469 20.5859C45.5469 16.6953 41.5273 13.1445 36.582 13.1445C34.7539 13.1445 32.9023 13.6367 31.4141 14.5625C32.0469 14.9844 32.5391 15.4648 32.9258 16.0273C33.9453 15.4531 35.2578 15.125 36.582 15.125C40.3086 15.125 43.4727 17.7031 43.4727 20.3984C43.4727 20.6094 43.3789 20.7031 43.1562 20.7031H34.9062C34.9883 21.4766 34.5547 22.3203 33.9219 22.6836H43.0273ZM15.6875 22.6836H30.3008C32.3164 22.6836 33.2891 22.0508 33.2891 20.6797C33.2891 17.4688 29.2812 13.1562 22.9883 13.1562C16.707 13.1562 12.6875 17.4688 12.6875 20.6797C12.6875 22.0508 13.6602 22.6836 15.6875 22.6836ZM15.3008 20.6562C15.0195 20.6562 14.9141 20.5742 14.9141 20.3516C14.9141 18.5586 17.8203 15.1836 22.9883 15.1836C28.168 15.1836 31.0742 18.5586 31.0742 20.3516C31.0742 20.5742 30.9688 20.6562 30.6875 20.6562H15.3008Z" fill="#8C8C8C"/>
</svg>
