<svg width="51" height="75" viewBox="0 0 51 75" fill="none" xmlns="http://www.w3.org/2000/svg">
<g clip-path="url(#clip0_659_10975)">
<path d="M11.9268 40.2441C7.45563 49.6951 3.81982 59.5192 1.06095 69.6039C0.904471 70.1505 0.877555 70.7261 0.982341 71.285C1.08713 71.8438 1.32073 72.3706 1.66461 72.8234C2.19676 73.4048 2.88595 73.8196 3.64884 74.0176C4.41173 74.2157 5.21565 74.1884 5.96339 73.9393C6.55418 73.8111 7.10398 73.5384 7.56366 73.1458C8.02333 72.7532 8.37854 72.2527 8.59754 71.6893L15.6585 53.3966L23.9817 71.4149C24.3851 72.3107 25.0809 73.043 25.9549 73.4917C26.829 73.9404 27.8296 74.0788 28.7927 73.8844C29.3045 73.7769 29.7822 73.5456 30.1841 73.2108C30.5859 72.8759 30.8995 72.4477 31.0975 71.9637C31.324 71.4315 31.4407 70.8591 31.4407 70.2807C31.4407 69.7024 31.324 69.13 31.0975 68.5978L22.3353 49.0246C22.3353 49.0246 16.189 48.6954 11.9268 40.2441Z" fill="#23AFD7"/>
<path d="M24.4573 48.7306L34.5183 46.9014C35.5376 46.7039 36.4578 46.1614 37.1241 45.3652C37.7904 44.569 38.1621 43.5675 38.1768 42.5294C38.1768 38.505 36.75 31.9196 28.1158 26.066C28.1158 26.066 36.128 16.5721 46.9939 14.9623C47.4014 14.9369 47.7978 14.8189 48.153 14.6174C48.5081 14.4159 48.8127 14.1362 49.0437 13.7995C49.2747 13.4627 49.4259 13.0778 49.4859 12.6739C49.546 12.27 49.5132 11.8578 49.3902 11.4684C48.75 8.90745 44.9817 8.7794 42.8963 8.98062C35.0671 9.74891 16.189 17.4135 1.06095 69.6026C0.904471 70.1492 0.877555 70.7248 0.982341 71.2837C1.08713 71.8425 1.32073 72.3693 1.66461 72.8221C2.19676 73.4035 2.88595 73.8183 3.64884 74.0163C4.41173 74.2143 5.21565 74.1871 5.96339 73.9379C6.55418 73.8097 7.10398 73.5371 7.56366 73.1445C8.02333 72.7518 8.37855 72.2514 8.59754 71.6879L15.6585 53.3953L23.9817 71.4136C24.3851 72.3094 25.0809 73.0417 25.9549 73.4904C26.829 73.939 27.8296 74.0775 28.7927 73.8831C29.3045 73.7756 29.7823 73.5443 30.1841 73.2094C30.5859 72.8746 30.8995 72.4464 31.0975 71.9623C31.324 71.4301 31.4407 70.8577 31.4407 70.2794C31.4407 69.7011 31.324 69.1287 31.0975 68.5965L22.3353 49.0233C23.8717 44.579 26.2228 40.4599 29.2683 36.877C30.5039 37.9511 31.5009 39.2722 32.1951 40.755L27.0549 41.8343" stroke="#262626" stroke-linecap="round" stroke-linejoin="round"/>
<path d="M39.128 31.5914C41.9972 31.5914 44.3231 29.2655 44.3231 26.3963C44.3231 23.5271 41.9972 21.2012 39.128 21.2012C36.2588 21.2012 33.9329 23.5271 33.9329 26.3963C33.9329 29.2655 36.2588 31.5914 39.128 31.5914Z" stroke="#262626" stroke-linecap="round" stroke-linejoin="round"/>
<path d="M23.7805 12.8953C25.6613 10.1217 28.3131 7.95958 31.4086 6.67578" stroke="#262626" stroke-linecap="round" stroke-linejoin="round"/>
<path d="M27 4.68235C28.8979 2.78217 31.3061 1.4732 33.9329 0.914062" stroke="#262626" stroke-linecap="round" stroke-linejoin="round"/>
<path d="M11.9268 40.2441C11.9268 40.2441 13.189 47.049 22.3353 49.0978" stroke="#262626" stroke-linecap="round" stroke-linejoin="round"/>
</g>
<defs>
<clipPath id="clip0_659_10975">
<rect width="50.4512" height="75" fill="white"/>
</clipPath>
</defs>
</svg>
