<svg width="10" height="15" viewBox="0 0 10 15" fill="none" xmlns="http://www.w3.org/2000/svg">
<path d="M9.05469 7.35938C9.05469 7.03906 8.9375 6.77344 8.6875 6.52344L2.67188 0.640625C2.46875 0.4375 2.22656 0.34375 1.9375 0.34375C1.35156 0.34375 0.875 0.804688 0.875 1.39062C0.875 1.67969 1 1.94531 1.21094 2.15625L6.55469 7.35156L1.21094 12.5625C1 12.7734 0.875 13.0312 0.875 13.3281C0.875 13.9141 1.35156 14.3828 1.9375 14.3828C2.22656 14.3828 2.46875 14.2812 2.67188 14.0781L8.6875 8.19531C8.94531 7.94531 9.05469 7.67969 9.05469 7.35938Z" fill="#B3B3B3"/>
</svg>
