<svg width="75" height="58" viewBox="0 0 75 58" fill="none" xmlns="http://www.w3.org/2000/svg">
<g clip-path="url(#clip0_659_10798)">
<path d="M11.1347 39.4377V20.6612C11.1403 20.174 11.0491 19.6904 10.8665 19.2387C10.684 18.7869 10.4135 18.3758 10.0709 18.0293C9.72835 17.6828 9.32041 17.4077 8.87075 17.2199C8.42109 17.0322 7.93864 16.9355 7.45136 16.9355H4.74179C4.25451 16.9355 3.77206 17.0322 3.3224 17.2199C2.87273 17.4077 2.46479 17.6828 2.12221 18.0293C1.77962 18.3758 1.5092 18.7869 1.3266 19.2387C1.14401 19.6904 1.05287 20.174 1.05847 20.6612V56.6477H73.9416V39.4377H11.1347Z" fill="#F1647D" stroke="#262626" stroke-linecap="round" stroke-linejoin="round"/>
<path d="M51.3972 25.4026H60.1186C61.7087 25.3915 63.2855 25.6936 64.7588 26.2919C66.2321 26.8901 67.5732 27.7726 68.7054 28.8891C69.8377 30.0057 70.7389 31.3343 71.3577 32.7991C71.9764 34.2639 72.3006 35.8362 72.3117 37.4264H27.2228V30.6524C27.2615 29.243 27.8501 27.9046 28.8628 26.9235C29.8755 25.9425 31.2319 25.3966 32.6419 25.4026H40.3472" stroke="#23AFD7" stroke-linecap="round" stroke-linejoin="round"/>
<path d="M20.6816 37.3623C24.0253 37.3623 26.7358 34.6517 26.7358 31.3081C26.7358 27.9645 24.0253 25.2539 20.6816 25.2539C17.338 25.2539 14.6274 27.9645 14.6274 31.3081C14.6274 34.6517 17.338 37.3623 20.6816 37.3623Z" stroke="#23AFD7" stroke-linecap="round" stroke-linejoin="round"/>
<path d="M20.6816 11.3887H26.7147L21.0203 17.464H26.7147" stroke="#262626" stroke-linecap="round" stroke-linejoin="round"/>
<path d="M36.3252 1.05859H43.8824L36.7486 8.82743H43.8824" stroke="#262626" stroke-linecap="round" stroke-linejoin="round"/>
</g>
<defs>
<clipPath id="clip0_659_10798">
<rect width="75" height="57.8112" fill="white"/>
</clipPath>
</defs>
</svg>
