<svg width="13" height="13" viewBox="0 0 13 13" fill="none" xmlns="http://www.w3.org/2000/svg">
<path d="M6.23633 12.957C7.08789 12.957 7.88672 12.7949 8.63281 12.4707C9.37891 12.1504 10.0352 11.7051 10.6016 11.1348C11.1719 10.5684 11.6191 9.91211 11.9434 9.16602C12.2676 8.41992 12.4297 7.62109 12.4297 6.76953C12.4297 5.92188 12.2676 5.125 11.9434 4.37891C11.6191 3.63281 11.1719 2.97461 10.6016 2.4043C10.0352 1.83398 9.37695 1.38867 8.62695 1.06836C7.88086 0.744141 7.08398 0.582031 6.23633 0.582031C5.38867 0.582031 4.58984 0.744141 3.83984 1.06836C3.09375 1.38867 2.43555 1.83398 1.86523 2.4043C1.29883 2.97461 0.853516 3.63281 0.529297 4.37891C0.208984 5.125 0.0488281 5.92188 0.0488281 6.76953C0.0488281 7.62109 0.208984 8.41992 0.529297 9.16602C0.853516 9.91211 1.30078 10.5684 1.87109 11.1348C2.44141 11.7051 3.09961 12.1504 3.8457 12.4707C4.5918 12.7949 5.38867 12.957 6.23633 12.957ZM5.05859 9.23633C4.91406 9.32227 4.76953 9.33398 4.625 9.27148C4.48438 9.20508 4.41406 9.09375 4.41406 8.9375V4.61328C4.41406 4.45703 4.48633 4.34766 4.63086 4.28516C4.77539 4.21875 4.91797 4.22656 5.05859 4.30859L8.67969 6.42383C8.80859 6.50195 8.87305 6.61914 8.87305 6.77539C8.87695 6.93164 8.8125 7.05078 8.67969 7.13281L5.05859 9.23633Z" fill="white"/>
</svg>
