<svg width="44" height="75" viewBox="0 0 44 75" fill="none" xmlns="http://www.w3.org/2000/svg">
<g clip-path="url(#clip0_659_10642)">
<path d="M26.2317 40.6641C26.2303 41.2046 26.3613 41.7374 26.6132 42.2157C26.8651 42.694 27.2303 43.1033 27.6769 43.408L34.9939 48.3287C35.5962 48.7305 36.0719 49.2951 36.3659 49.9567L42.2378 62.8531C42.7559 63.9481 42.8849 65.187 42.6037 66.3653C42.313 67.2191 41.739 67.9478 40.977 68.4303C40.215 68.9128 39.3108 69.1201 38.4147 69.0177C37.7222 68.961 37.0574 68.7209 36.4884 68.3223C35.9194 67.9237 35.4667 67.3808 35.1769 66.7494L29.9086 55.5726C29.5944 54.9178 29.1074 54.3611 28.5 53.9628C25.2439 51.8592 16.1891 46.7738 14.4695 42.9872" fill="#23AFD7"/>
<path d="M15.2195 44.1211L13.3903 53.4687C13.1706 54.5459 12.6651 55.5442 11.9268 56.3589L2.32318 66.7857C1.80012 67.3448 1.4126 68.0166 1.19057 68.7493C0.968538 69.482 0.917944 70.256 1.0427 71.0113C1.17995 71.8193 1.58451 72.5578 2.19151 73.1084C2.7985 73.659 3.57279 73.9898 4.39026 74.0479C5.16389 74.1427 5.94896 74.0584 6.68481 73.8014C7.42067 73.5445 8.08762 73.1219 8.63416 72.5662L19.7561 61.2796C20.5859 60.4305 21.146 59.3549 21.3659 58.1882L22.9207 50.3772" fill="#23AFD7"/>
<path d="M1.18901 39.7868L4.04267 28.1344C4.34997 26.8699 5.12865 25.7706 6.2195 25.0612L12.9329 20.6892C14.9892 19.3224 17.4157 18.6201 19.8841 18.677C22.6097 18.677 25.5732 19.7563 26.1951 23.5612C26.2041 23.6769 26.2041 23.7931 26.1951 23.9087V40.6648C26.1937 41.2054 26.3246 41.7381 26.5766 42.2164C26.8285 42.6948 27.1937 43.1041 27.6402 43.4087L34.9573 48.3295C35.5595 48.7313 36.0353 49.2959 36.3293 49.9575L42.2012 62.8539C42.7192 63.9489 42.8483 65.1878 42.5671 66.3661C42.2777 67.2132 41.7093 67.9369 40.9549 68.4188C40.2005 68.9007 39.3049 69.1121 38.4146 69.0185C37.7222 68.9617 37.0574 68.7217 36.4884 68.3231C35.9193 67.9245 35.4667 67.3816 35.1768 66.7502L29.9085 55.5734C29.5944 54.9185 29.1073 54.3619 28.5 53.9636C25.2439 51.86 16.189 46.7746 14.4695 42.988C13.5732 41.049 14.4695 26.7624 14.4695 26.7624L11.8719 28.1526C10.7632 28.7012 9.91065 29.6587 9.49389 30.8234L7.04267 41.2319C6.93778 41.6571 6.74531 42.0556 6.47757 42.4021C6.20983 42.7486 5.87272 43.0354 5.48779 43.2441C4.90698 43.6202 4.20422 43.7596 3.52384 43.6337C2.84345 43.5079 2.23708 43.1263 1.82925 42.5673C1.51227 42.1863 1.2892 41.7362 1.17799 41.2533C1.06679 40.7703 1.07056 40.268 1.18901 39.7868V39.7868Z" stroke="#262626" stroke-linecap="round" stroke-linejoin="round"/>
<path d="M19.7744 18.658C24.6743 18.658 28.6464 14.6859 28.6464 9.78601C28.6464 4.88617 24.6743 0.914062 19.7744 0.914062C14.8746 0.914062 10.9025 4.88617 10.9025 9.78601C10.9025 14.6859 14.8746 18.658 19.7744 18.658Z" stroke="#262626" stroke-linecap="round" stroke-linejoin="round"/>
<path d="M26.2318 28.5918L37.061 36.7686C37.5776 37.1733 37.9759 37.7095 38.214 38.321C38.4522 38.9325 38.5215 39.5968 38.4147 40.2442C38.3666 40.8134 38.1386 41.3524 37.7637 41.7833C37.3887 42.2141 36.8863 42.5144 36.3293 42.6406C35.8543 42.7335 35.3655 42.7312 34.8914 42.6338C34.4172 42.5365 33.9671 42.346 33.5671 42.0735L26.25 37.0247" stroke="#262626" stroke-linecap="round" stroke-linejoin="round"/>
<path d="M15.2195 44.1211L13.3903 53.4687C13.1706 54.5459 12.6651 55.5442 11.9268 56.3589L2.32318 66.7857C1.80012 67.3448 1.4126 68.0166 1.19057 68.7493C0.968538 69.482 0.917944 70.256 1.0427 71.0113C1.17995 71.8193 1.58451 72.5578 2.19151 73.1084C2.7985 73.659 3.57279 73.9898 4.39026 74.0479C5.16389 74.1427 5.94896 74.0584 6.68481 73.8014C7.42067 73.5445 8.08762 73.1219 8.63416 72.5662L19.7561 61.2796C20.5859 60.4305 21.146 59.3549 21.3659 58.1882L22.9207 50.3772" stroke="#262626" stroke-linecap="round" stroke-linejoin="round"/>
<path d="M14.3415 42.2738C14.3415 42.2738 22.0244 42.9689 26.2317 40.6641" stroke="#262626" stroke-linecap="round" stroke-linejoin="round"/>
</g>
<defs>
<clipPath id="clip0_659_10642">
<rect width="43.6463" height="75" fill="white"/>
</clipPath>
</defs>
</svg>
