<svg width="13" height="13" viewBox="0 0 13 13" fill="none" xmlns="http://www.w3.org/2000/svg">
<path d="M4.87695 12.7168H8.50977C8.77148 12.7168 9.00391 12.6875 9.20703 12.6289C9.41406 12.5703 9.59961 12.4824 9.76367 12.3652C9.93164 12.248 10.0879 12.1074 10.2324 11.9434L12.3359 9.54102C12.4805 9.36914 12.5918 9.21289 12.6699 9.07227C12.752 8.93164 12.8086 8.78125 12.8398 8.62109C12.8711 8.45703 12.8867 8.26172 12.8867 8.03516V5.5332C12.8867 5.30273 12.8711 5.10742 12.8398 4.94727C12.8086 4.78711 12.752 4.63672 12.6699 4.49609C12.5918 4.35156 12.4805 4.19531 12.3359 4.02734L10.2324 1.625C10.0879 1.45703 9.93164 1.31641 9.76367 1.20312C9.59961 1.08594 9.41406 0.998047 9.20703 0.939453C9.00391 0.876953 8.77148 0.845703 8.50977 0.845703H4.87695C4.61523 0.845703 4.38086 0.876953 4.17383 0.939453C3.9707 0.998047 3.78516 1.08594 3.61719 1.20312C3.45312 1.31641 3.29688 1.45703 3.14844 1.625L1.05078 4.02734C0.90625 4.19531 0.792969 4.35156 0.710938 4.49609C0.628906 4.63672 0.572266 4.78711 0.541016 4.94727C0.509766 5.10742 0.494141 5.30273 0.494141 5.5332V8.03516C0.494141 8.26172 0.509766 8.45703 0.541016 8.62109C0.572266 8.78125 0.628906 8.93164 0.710938 9.07227C0.792969 9.21289 0.90625 9.36914 1.05078 9.54102L3.14844 11.9434C3.29688 12.1074 3.45312 12.248 3.61719 12.3652C3.78516 12.4824 3.9707 12.5703 4.17383 12.6289C4.38086 12.6875 4.61523 12.7168 4.87695 12.7168ZM6.69922 7.6543C6.27344 7.6543 6.04883 7.44141 6.02539 7.01562L5.93164 4.47852C5.91992 4.25977 5.98438 4.08203 6.125 3.94531C6.26953 3.80859 6.45898 3.74023 6.69336 3.74023C6.92383 3.74023 7.11133 3.81055 7.25586 3.95117C7.40039 4.08789 7.46875 4.26562 7.46094 4.48438L7.36133 7.00977C7.33789 7.43945 7.11719 7.6543 6.69922 7.6543ZM6.69922 9.77539C6.46875 9.77539 6.27148 9.70703 6.10742 9.57031C5.94727 9.43359 5.86719 9.25391 5.86719 9.03125C5.86719 8.80859 5.94727 8.62891 6.10742 8.49219C6.26758 8.35547 6.46484 8.28711 6.69922 8.28711C6.93359 8.28711 7.12891 8.35547 7.28516 8.49219C7.44531 8.62891 7.52539 8.80859 7.52539 9.03125C7.52539 9.25391 7.44531 9.43359 7.28516 9.57031C7.12891 9.70703 6.93359 9.77539 6.69922 9.77539Z" fill="white"/>
</svg>
