<svg width="25" height="25" viewBox="0 0 25 25" fill="none" xmlns="http://www.w3.org/2000/svg">
<path d="M12.4727 24.9141C14.1758 24.9141 15.7734 24.5898 17.2656 23.9414C18.7578 23.3008 20.0703 22.4102 21.2031 21.2695C22.3438 20.1367 23.2383 18.8242 23.8867 17.332C24.5352 15.8398 24.8594 14.2422 24.8594 12.5391C24.8594 10.8438 24.5352 9.25 23.8867 7.75781C23.2383 6.26562 22.3438 4.94922 21.2031 3.80859C20.0703 2.66797 18.7539 1.77734 17.2539 1.13672C15.7617 0.488281 14.168 0.164062 12.4727 0.164062C10.7773 0.164062 9.17969 0.488281 7.67969 1.13672C6.1875 1.77734 4.87109 2.66797 3.73047 3.80859C2.59766 4.94922 1.70703 6.26562 1.05859 7.75781C0.417969 9.25 0.0976562 10.8438 0.0976562 12.5391C0.0976562 14.2422 0.417969 15.8398 1.05859 17.332C1.70703 18.8242 2.60156 20.1367 3.74219 21.2695C4.88281 22.4102 6.19922 23.3008 7.69141 23.9414C9.18359 24.5898 10.7773 24.9141 12.4727 24.9141ZM10.1172 17.4727C9.82812 17.6445 9.53906 17.668 9.25 17.543C8.96875 17.4102 8.82812 17.1875 8.82812 16.875V8.22656C8.82812 7.91406 8.97266 7.69531 9.26172 7.57031C9.55078 7.4375 9.83594 7.45312 10.1172 7.61719L17.3594 11.8477C17.6172 12.0039 17.7461 12.2383 17.7461 12.5508C17.7539 12.8633 17.625 13.1016 17.3594 13.2656L10.1172 17.4727Z" fill="white"/>
</svg>
