<svg width="24" height="23" viewBox="0 0 24 23" fill="none" xmlns="http://www.w3.org/2000/svg">
<path d="M3.9375 22.4961H20.0625C22.5938 22.4961 23.9062 21.1836 23.9062 18.6875V4.42578C23.9062 1.91797 22.5938 0.617188 20.0625 0.617188H3.9375C1.40625 0.617188 0.09375 1.91797 0.09375 4.42578V18.6875C0.09375 21.1953 1.40625 22.4961 3.9375 22.4961ZM3.90234 20.1992C2.92969 20.1992 2.39062 19.6836 2.39062 18.6641V7.83594C2.39062 6.80469 2.92969 6.30078 3.90234 6.30078H20.0742C21.0586 6.30078 21.6094 6.80469 21.6094 7.83594V18.6641C21.6094 19.6836 21.0586 20.1992 20.0742 20.1992H3.90234ZM9.73828 10.3672H10.4297C10.8516 10.3672 10.9922 10.2383 10.9922 9.81641V9.13672C10.9922 8.71484 10.8516 8.58594 10.4297 8.58594H9.73828C9.32812 8.58594 9.1875 8.71484 9.1875 9.13672V9.81641C9.1875 10.2383 9.32812 10.3672 9.73828 10.3672ZM13.582 10.3672H14.2617C14.6836 10.3672 14.8242 10.2383 14.8242 9.81641V9.13672C14.8242 8.71484 14.6836 8.58594 14.2617 8.58594H13.582C13.1602 8.58594 13.0195 8.71484 13.0195 9.13672V9.81641C13.0195 10.2383 13.1602 10.3672 13.582 10.3672ZM17.4141 10.3672H18.0938C18.5156 10.3672 18.6562 10.2383 18.6562 9.81641V9.13672C18.6562 8.71484 18.5156 8.58594 18.0938 8.58594H17.4141C16.9922 8.58594 16.8516 8.71484 16.8516 9.13672V9.81641C16.8516 10.2383 16.9922 10.3672 17.4141 10.3672ZM5.90625 14.1406H6.59766C7.01953 14.1406 7.16016 14.0117 7.16016 13.5898V12.9102C7.16016 12.4883 7.01953 12.3594 6.59766 12.3594H5.90625C5.49609 12.3594 5.35547 12.4883 5.35547 12.9102V13.5898C5.35547 14.0117 5.49609 14.1406 5.90625 14.1406ZM9.73828 14.1406H10.4297C10.8516 14.1406 10.9922 14.0117 10.9922 13.5898V12.9102C10.9922 12.4883 10.8516 12.3594 10.4297 12.3594H9.73828C9.32812 12.3594 9.1875 12.4883 9.1875 12.9102V13.5898C9.1875 14.0117 9.32812 14.1406 9.73828 14.1406ZM13.582 14.1406H14.2617C14.6836 14.1406 14.8242 14.0117 14.8242 13.5898V12.9102C14.8242 12.4883 14.6836 12.3594 14.2617 12.3594H13.582C13.1602 12.3594 13.0195 12.4883 13.0195 12.9102V13.5898C13.0195 14.0117 13.1602 14.1406 13.582 14.1406ZM17.4141 14.1406H18.0938C18.5156 14.1406 18.6562 14.0117 18.6562 13.5898V12.9102C18.6562 12.4883 18.5156 12.3594 18.0938 12.3594H17.4141C16.9922 12.3594 16.8516 12.4883 16.8516 12.9102V13.5898C16.8516 14.0117 16.9922 14.1406 17.4141 14.1406ZM5.90625 17.9141H6.59766C7.01953 17.9141 7.16016 17.7852 7.16016 17.3633V16.6836C7.16016 16.2617 7.01953 16.1328 6.59766 16.1328H5.90625C5.49609 16.1328 5.35547 16.2617 5.35547 16.6836V17.3633C5.35547 17.7852 5.49609 17.9141 5.90625 17.9141ZM9.73828 17.9141H10.4297C10.8516 17.9141 10.9922 17.7852 10.9922 17.3633V16.6836C10.9922 16.2617 10.8516 16.1328 10.4297 16.1328H9.73828C9.32812 16.1328 9.1875 16.2617 9.1875 16.6836V17.3633C9.1875 17.7852 9.32812 17.9141 9.73828 17.9141ZM13.582 17.9141H14.2617C14.6836 17.9141 14.8242 17.7852 14.8242 17.3633V16.6836C14.8242 16.2617 14.6836 16.1328 14.2617 16.1328H13.582C13.1602 16.1328 13.0195 16.2617 13.0195 16.6836V17.3633C13.0195 17.7852 13.1602 17.9141 13.582 17.9141Z" fill="#8C8C8C"/>
</svg>
